<mxfile host="app.diagrams.net" agent="Mozilla/5.0 (Windows NT 10.0; Win64; x64) AppleWebKit/537.36 (KHTML, like Gecko) Chrome/128.0.0.0 Safari/537.36" version="24.7.8">
  <diagram name="Page-1" id="d4GoEH0Nv1mqYTxrDrHY">
    <mxGraphModel dx="880" dy="434" grid="1" gridSize="10" guides="1" tooltips="1" connect="1" arrows="1" fold="1" page="1" pageScale="1" pageWidth="827" pageHeight="1169" math="0" shadow="0">
      <root>
        <mxCell id="0" />
        <mxCell id="1" parent="0" />
        <mxCell id="MBvQPwcf4Z8G5umYzWfS-2" value="" style="shape=image;verticalLabelPosition=bottom;labelBackgroundColor=default;verticalAlign=top;aspect=fixed;imageAspect=0;image=data:image/png,iVBORw0KGgoAAAANSUhEUgAAAs8AAAILCAYAAAAXC3EVAAAAAXNSR0IArs4c6QAAAARnQU1BAACxjwv8YQUAAAAJcEhZcwAADsQAAA7EAZUrDhsAAP+lSURBVHhe7L0HgNzGefb/7AJbr/J47L13iSpWsSSr2OqWJXdbtuMWKy5JnPj7/E9x4jjJF8WOe4nc5CLJVrN6pdWpQlGFFHvvvRyv31YA+3+f2Zvj8rRHk+YdxTu+P2kIYDCYGeCAdx68O5gJFQQoiqIoiqIoivInCXcuFUVRFEVRFEX5E6h4VhRFURRFUZQjRMWzoiiKoiiKohwhKp4VRVEURVEU5QhR8awoiqIoiqIoR4iKZ0VRFEVRFEU5QlQ8K4qiKIqiKMoRouJZURRFURRFUY4QFc+KoiiKoiiKcoSoeFYURVEURVGUI0TFs6IoiqIoiqIcISqeFUVRFEVRFOUICRWEznWllwiCAPl8Hp7ngZc3FAqZZSQSQSwW60ylKIqi9AVtbW1oaWkx683NzWabNjiTyRj7/Prrr2PFihUYO3YsZsyYgTFjxiAajRqb7boufN/Hzp07sXz5cqxfvx6zZ8/Gueeei8rKSpNPdXU1amtr4TgORowYYcpRFOXkQcWzoiiKMqDYtWsXstls51YRCuKmpiY89thjSKVSuPbaazFs2DCEw2Gzj3CdUGDb+IaGBjzxxBMm7p3vfKcR2mw26RRhHAV1fX29EdKK0lvw3iL2nlROLA4rntvb242nlB5TRVEURTlRodBloGhOp9OdsQeh1/l3v/sdOjo6cMMNNxhRQm8zfyWkEKb45ZKBsGmkJ9qK4ttuuw2JRAKXX345qqqqDhE1PIb7KKQVpTfI5XLmVxPefwxWh/G+K31Rs/uVPw3tA20Dn2vCX4/+XA4rnvmHIzQM/Cmr9A/EP2BpUBRFUZTjCZsvigwKZuupI7ZZ45LtF5cPPPAA1q5diy9+8YuoqKjoas/y+ZwIE1eOLwqR4qHF49jYcsk2jt1AfvjDH+K8887DhRde2BXPcm1eFOMU0dynKMcCBR5f+AjvX96LR0N3bVa6zfuznJ4b6PCa0ils6TPxzDf0o8H+MeySf6ByRoR/JDUuijKwoaiw5qVU2BBrG0oN+ECE501xx3Pt3jjZa2BRu3hkUETwutplT00YPcp0+hD2ef7Vr36Fyy67zPRxJrzePD4UsgK7KLIZn8/7cm8eFMeEaZYuXWo80P/yL/+CQYMGmTp0/7txnfd1d4eTohwLvA95T3Np78negi99J0MPAz6v9oWE8CX6z+Ww4rl7n7ETARqmUkNFw2WXpfGKovQNNBnWbNhlqTE/WsPOZ9eGgfYM2wbvz6HU1lk7Z+MG2nU6Uo7merKhpHjlPbpgwQJs27YNH/rQh0w8hYK9dymeue55FML8WDBALBYx5fB4Xnvu53EM3/3udzFx4kS8//3vN/mwTvbvUw7+rez9fbh0inI08J7sKRwtA/FFr9z14DqfYcuxDOBwWPFs+4X0J0oblu4NzMna4CjKn6LUyJQzCYcxE73KQBMYvG6lxro36W7r+rt9K70He+JIX8yYD68Hl/Q0/exnP8OECRPMR4K2HLtfcjXHFIUzu2lQRHD/wTaD6Vg2tzlSBz8g/Id/+Icuz/bR3LPMw+Zrl6R0XVGOFXufF+/xN1Maz3vP3sP9/T7kc3q48y7FPr9/Dod94nkR+1sg9sLxIpYG6znoKRzJxVaUgcrhDE65Z60vAsvns3g0BvBEp9x59kYg9hqV2jdr7/rL9WMdu//NewrlrsPhAgUBR9jYs2ePGVKOccR62bif6+zWwRE4wmEH+/fvl0a1+PEg99tjWD9ujx492nx0ZH/+5fG2vCMJxJ6P/Vsx2L/foX9HLtk28dqUhkOvy0Cj+/mVhqPhaNMPJHiv2fu7XLDeZgam5bXq+T48eM+dCNi6lAZbd66T0meup3AsHFY888KfTOFYL6ai9Fd475d7Jt6qUPosdjeS/Ym34rqyzP5y/Wx9yp3HsQabLz8QYqOaTCalQIkLFbth8L+Q7Of6q6++hFdfW4B9+/bj+Rdegi8Clcfaa0mhwZ94KTTYP5QNNQU043l8V7khrhfLCDHIeijsw+N9IBth+BKKebJ8Jg7keP65QuEQfAkFk08gaj0n9TWpJQ3Fi5xQ4MELsjyyeA4msrheKnD6eyhH9/v6T2Hz6Z5393AyY6+pvX+tmLah9BmwlLuGDH8O5fI5klCO0vM40nAsHNvRinIU/KmbX1GOhNL76ES/l07E+nW/fqXheHE8ymPjyDIoKonrHPS0UfS6bsQIWCfsoLIihpUrl2LN6vWoHzK8q2G1dexeV3ZpjMfjRpSbtHY3RUbBF42bg+/l4fmeCN8sPBHAmY4MCma3j4Ic70ueza0taG1rg5/3kUtl0JHpQNaTOvsZEdOylCx9EcwFEd5+1kfTzt2ip4v9uLvXqVTgDDSO5tzKXZvDYdOXCyc73YXz4Sh3/f5U6M8cVjzbC3eyBKVv0Wt9YlP69+lP4USmXH1P5HC8KFd2bwdbjv2ivq2tVSRssZEn3EchHSoEmDFrptl+440lmD59CoJQ0fPcPfBYO4oHQ1dZnUv7nxOB5OGhoaUV6zZuQFtHB+KVCexuOIB0No2W5jY0N7XhgQfvw5133Y7W1g407j6AA7v3ofnAATm2gG3796Mp046OfDu27tyDeY88jq989etobEoZ0U5YJ1uHgRyOhnLH/7lBKVLu2gyEcCyo51lRFEUZULBhtN6t4cOHY9SoUWgqmbeAodgVgl03HFRXVqGubjCWLl2CaDQOx3w0+GYoVg+IuLVjORvxbRphT/IKRJmLwOZmKI99B/bit7ffi5t/+Ss8KsLX93zcevtd2N+4Hy+9uACPPToPq1evwKuvLsCLLyzAN/71P/GrX9yM237zW2zavBE/+OXPsGjFMqzdtA7/+7NbsPyNxVi8ci2am1MIOsWzxb4QKIpyfFDxrCiKogw4rLeYQpdDyx1oaOjsF1wUzaYPsgR2o+CQc/X1g3H55Vegqoqe6vJilMdztA2Kcc4myG0TChyZSlSz+Z8iOoONG9egKlkrovgbWLtsOfbu2Iu9uw9InYDWtnZwMKtz334WLrv8nXDdBNxkJf7my1/GoJoqvLZwIbx8AQ0i1FP5AE0tebz9rLNx6tlnYdiIYV1eb0vpuqIofY+KZ0VRFGVAURTJBz+iO+ecc3DgQCO2b99+iND0zUgWBSxfvhzPPvscLrzwAjPbICUw03UPu3fvxqJFi3D11Veb4xhHwrI0nudO2Fs5n88iEUkixPGjvQCxsAsHrtnnhCPwfdbPM32a6a4uxOMIiYivrEwim+qAn/UQCTuyX45zq5GIRZGWPCUz4/EmPD8L66MoyvHB+YbQua4oiqIo/Z5SwUv4cd/mzZux8JVXcPrpp5v4gghPV0Ro2HUxePAIXHLxpaiprZK44sgYVhzz40D2MW5tbcV///d/47rrrsPs2bON95fQu42CW1yGRKxLEK0MN5zAs398DmvXb0Yk6uLCd12EJW8sFPH9OrZt34m6QTWYOGEsFr3+OpIVSTz22HPYtXszdh/Ygvd95MOIhaJ4+L6H0LInCy91AJPmTsSiBWtwyuxZSMZd4y2niKaALj1XRVH6HhXPiqIoyoDCemGtqGQYOXKkmWmQYzpzwhQrNrmk8C1NS5gHhTPh8vnnnzdTrV9yySWorq7uSkfMutlkP2sRs7KWSCQxfNhIk/cVV1yGquoKjB8/XgRvCOec83bMmX0KxowdjqqqShHmabSncrj0sotwxhmnYMa0maipqUN9/RBJNwOz58wUwT5VzmEMRo2qR3VVhRHPtg6ldVEUpe857AyDiqIoitLfKBXPpXAClF//+tdGPH/gAx8wcfTc0oNL77LtDkEolLnN0TUeeOABvPbaa/jLv/xLzJgxw+xn3izHlsH1QoEf8knZHKdZJLTvFcfO5ceCbqQ4xFwoxIknXHYMQdjJS7lZPPPMQjw3/xX84z/9HWLxEAI/QCTKcakLSGcyiMfikh+FPKcVl3qGKPYP9rpU8awoxxcVz4qiKMpJAYUyu2/cc889ZobASy+9FKeddprpgsGmkEvrbc5ms6Yv9IsvvoiOjg5cf/31mDx5crF7hmDFc3Hd6NzObQrk4rrtB+04LlKpjPl4MZvrQCxaCe6iePZEPOeyDhqbmjFk6GBE3OL04KKfZSEZhXJFoVyQuvkpuE5MQrSkbBXOinK8UfGsKIqiDFhKmzgKY4pfCueVK1caYUyRzNkD2a2DXmamaWlp6Zp++8wzzzQfHNoZBilWS73NJBQqLgsUu0JxfyB5pUUgc2SMMAK/uF82kc8VRCRH4BfSks6XfTFEIkVvchAw/8585b8AWTmQ2cUQcqVO9FqHi2Lf1oMvBVbUK4rS96h4VhRFUQYUpWKyVGQSds/gNrtl0NO8evVqLF68GJs2bcIf//hHXH755Zg5c6bpnsEl82H60jy650mhXKRTwJpWlR8P5tg5A4Fsh0MUvDyGXTtceHkfkWhB9uVlH7tlMN5BQcRzIAc4Lj9qlHLCnKVQlkEUIScnebCMYhcQe47du5woitK3qHhWFEVRTgpKmzuKX4psBorPJUuW4LOf/SxuuukmXHDBBV0C3B6jnl1FUSxqDRRFUZQBD0WwFcJWOFM00/vc1NSE73//+8b7/Jvf/MZ02bDeZgYVzoqilKIWQVEURRnwWBHMZSns4/zkk09i/vz5pivHfffdh1WrVpl97A9NwU2RTbGtKIpCVDwriqIoJwUUwKXdMOh1bm9vx1133WWWVVVVxut85513Yu/evaYfMdNb0W2PVRTl5EbFs6IoijLgKe2yQaxHed++faitrcWNN96IuXPn4mtf+5qZhptTeRMKZ6blcd291oqinJzoB4OKoijKSQebPnqiDxw4YDzQnDXw05/+NL71rW+Zbe5nXDQaLdvdQ1GUkxf1PCuKoignHRTD7JZBrzOD7aLBZX19Perq6swU2DatoiiKRcWzoiiKctJCL7MVx/aHWNsfmkLadtuw+xRFUVQ8K4qiKCctFM6lgVihXG6foiiKimdFURTlpKWcR9nGqbdZUZRyqHhWFEVRTmq6i2X7gaD1NjNehbSiKBYVz4qiKMpRUTphCEVl6fjJ/Q1bb7ssNxlKf+q2wfMo/VtwnefEyWAIh+dTFOXY0KHqFEVRlCPCNherV6/Gnj17jBCjqGQ8vbXlhOeJDutvZxD88Y9/jM9+9rNmspT+IpZLsX8Lwr8HoWieNWsWRo0a1fV34rI/np+inCioeFYURVGOCOth/tnPfoZt27Zh9OjRJt42I/2xObFdNHhuHR0dZmxnTtNtxWd/gtefgedjhfTSpUtx9dVX4wMf+EBnqqL3mSOJKIry56HiWVEURTki2FxQZN50000YPHgwrr322i4R1h+9zoQik+dAwczh6eip7Y/CmZR6le0LwW233Wa8zldeeWVXvKIox4aKZ0VRFOWIYZPB7g3Dhg3Dhz70ISPQrNjsj8KM50NPrJ1VkOdgl/0dnsctt9yCoUOHdoln/r0Yr55nRfnz0Q8GFUVRlKOCAiybzR4iwvqr2OQ5UDhbeG79+VxsIFYo05tu4/iio8JZUY4NFc+KoijKYbHCqxQKsIHgnS3tosHz6a9dNgjrbwPhuXSPUxTl2FHxrCiKoiiKoihHiIpnRVEURVEURTlCVDwriqIoiqIoyhGi4llRFEVRFEVRjhAdqk5RFEU5LGwm7AdnXP/hD3+I+vp6fOxjHzPxdn8+n0djY6OZgTAajZrRHjiSBZd9QT6XRSQakbLD8DzOduggFA4h8D1EIhEzygTrxaXjhhGNRZBJZ+A4rJM0fbIvjJ4+pLPnaxYGP+AY0CHJqzisXUHycJywlHfw/FgeA4e/66uPD3mdeX6JRAJz587tcag9LjlUHcfkfve7323iFEU5dlQ8K4qiKIfFijG73pN4pki99dZbcdddd2HatGkmvi9Hr3CdYp1yORG1jgMprTgKCIJDBLsZfi4seyW9L0K3KJ6LQrdQInwtjKcgJ6UtZCFUFMs8T2LPzc8XJ1bh+TJwfywWM+t9AfNPpVImf465nUwmjYCmoC79e3Cp4llReh8Vz4qiKMphsWLMrvcknilSKZwPHDiAL33pS4fs6xtE+Er+dCKHwxTPnHpaBK5oWpZrBa1JWaAnmGusp8SJOGa9evY8H6QzC8mfY0CHJa9Dx4JmHjz30jK5v6/Om/kvXrzYzB74/e9//03lli5VPCtK79N3LgFFURTlpMN6ZSncrPeX630RCLswUDjSo2yEc6c3uhjnd6VldwtZgx/4pmuHEZKSRWl+peFQuE1BWmwywxTenYKZu6xwtliR2j3P3grMn4FTiltK1xVF6VtUPCuKoii9AgWdnTyFgQLWrvdFoHBtaWnBxo0bsXnzJmzdutWIaArMnTt3Yvv27di/f3+xcpKWfZQpdBnHvs8mjx6h8GdeXFIYF9cpvul55pLnx5eFvXv3mrL37dvXJXBJ9/r2VmD+7KLBfuUWbiuKcnxQ8awoiqL0CtYrSkFpBaRd9gWe7+G73/0ubvjcDfi///f/4qtf/aqI6VY0NDSY+L/5m7/BD37wA+zZs0fEbmDE7u7du02/7JWrVhoRzPqVCxTZRY8ylyKYZZ2YFwL5j+fIuB07d+DrX/+66aZy0003IZ1Om3S8Dn0Jy6fX3QpqRVGOHyqeFUVRlF7BekWtx7nvKHqFnfBODIlPw3/9829w/3334O47b0FtdTXuvfcxXHX1u3HvfXfgkkvOx0MPPIB0Rw4h34XrNKAxlUEKSTTsb8Drry7E8pUr0JrJYOPWbQjyHhp370JjayPCQR6r167HgmUrsLd1O1rbt2Ddmo1YuWKZEdChUBoViUr84z/9HW6//U60tQTYvnU/CqDYzhSr2kfwGjMQK6DtNe/ba68oiopnRVEUpZ/iormlEY888gB+8qMf4aWXXkYmm8PePc2YPGkmwqE4zj/vHfjIRz+MeDIGOAEyXgZu3EVLRzMef/IRvPDCS7jnnnuxacN63HbrLWjv6MDjf3wCa1cvw9ZN6/DI/ffhxWefwqsvzsdTzz+PH/zsN1iw6A3k2Z86CGHI4FpMnDAFOSk3lWpHMhlH4PGDQqezjoqiDDRUPCuKoij9Ej8P1NZV4/wLz8L1138UZ519DjpSbcjnAvheWMSti4ibRDQWRSEkieHDdVxkcjnEREyfdfZcXHrl1SKY27Fz5zbMnDEV6zdswO79BzB86BD8+hc/xaTxY3HVu96J1158EZu3bsfgUWNx/Sc/gVgibrzs8ENobW0XAf8Ixowdhfohg+FGYmYEEEVRBiYqnhVFUZR+SSgsAjYUYPDQSgwS0eq4EVRXV2H02Hps27YF4RCwbPly3P67O9DS3IyAI4EEYYQLUTTtb8Qf/nA3tu7aW/wc0Mtg7qmzMP+FFzBs1GgMHz0aISeCpqYW7N/XgLeddiZGDxuFIOtBioSXZx/qAg40NeLmm3+L2kG1+NsvfwGJZHFSmBDU86woAxUVz4qiKEq/xIlUIJ6IoqWtQbY4m2EUTiyMs86dhiefeQj33PsAHnv0j0gkKpGIxkXQRhHyI4iHkhLiaN3fhKa2duzbvx8F30NFMo4HH34Y8apahCJxfPjjn0BHJo9duxuwYtVahPM+aiJRRH3AFeGMUB6vLn4Z8x5/Er6fx8KFC8xIHpxIhSNIK4oyMHG+IXSuK4qiKEpZSj9Ce+WVV8ysdqeccsqbPlJbtmyZmf3u7LPPNnHs2tA3H7Axb2Ds2AmYNGUC3EhxhkFK1mFD6zF16jREXBdnn3M2zjvvPMTiMYSCAuLJBKZPPQXTpk7C3NkzEE5U4Nqrr8LEMWNQUVGN5atW42Of+AtUJBIYNmQ46uqHoKq6ChdddAFmzJTjJs/AoEEJ87Eep+uuqxuCM884C7U1tSLSYxg2bHhRxHeON91XcASRN954A1deeaXZ7ukaL1261Pytpk6d2kd/B0U5+dBXY0VRFKVXoFDmxCSuiFauczg1OyJE70IRyNElohg+uh4VVUk44SjccAhOiCNqJDFu7HicdfaZmDhpnAhr1kHEthtCLFGL0aMHoabSwZjxk3D23FMwevgIDKoegrvvvBdnv+1tqKuR/HwR4k5UROdknHH6HAwbORY1tUPkmCEIhTmWdRgRpxpDh4zEGWeeJuF0nHXW2aiuru5z4cxuIRzX2Y5qwmCH0lMUpe/R6bkVRVGUw1LqPeZ6T9NzUzjfcccd2LZtGz7zmc+Y9H0jnov01HzZupbCsZqZnjMNUvjaNHkRnSKFzQQqPvtEO2E4ERH/XnFyFKbnKTB5EBS93eUo5l08V7veU/2OFU5Es3LlStx7771mHGtS7pxZvk7PrSi9j4pnRVEU5bCwmbDCi+s9iWd6P+fNm2cEdCKRMCLPfDzXR6LtaJovm5Z1KT0XrqUzGeTyOSSTFaisqEA2k0VYRHQ2mzVpXbc4e19xtsE3wzTMywpmBnvufQE9+x0dHairq8P//M//mDiW1x3WQ8WzovQ+Kp4VRVGUw8JmolRw9iSeKTYJZ9ljlw3bteB4U65ZK3qbbV04g2BR5IZ8Dzf94ud48tlncNuttyLuRhETcerBl3SciMRBOFQcQUOOkjzenDfPkV53CljmybR9KZ4J82aora3tKq87rIuKZ0XpfVQ8K4qiKIfFiMwjEM92v11SQEejUbPdF9iyjoTuwpGHUkCnW1pwzfuuw+JVy/GHu/+Ai99+PiJhEcthX45x2bPapDWUEc6k9BpwydCXLw0U6jZ/W5YtvxTGqXhWlN7n+LsEFEVRlAELBRoDBV1fCmdiyzqSQMFJ6KWlqBRpKXF5PDTvMbz88stoa2jCd7/5LbS0tsIXkRwOR8xx7NdhHNYS1z1PG0jpsi+FM6GX2ZZty+J68bwOvlRwadcVRek9VDwriqIoAx7bpYJYAb1r1y7ceOONCGSdw7ktX7Yca9asKSs6rThWFEVR8awoiqIMeCiYrbeW3Unoif7jH/9oJjX56Ec/igsvvBBnnXUWfv/733d5cbsLaEVRFKLiWVEURRnwsHsDBTSJxWLI5/MYPXo07r//fnz84x/HnDlz8JOf/AQXXHABWlpaTDpFUZRyqHhWFEVRTgps1wt6nTmU3hVXXGFmQmSXDfbPHjZsGD784Q+biU6sl1pRFKU7Kp4VRVGUkwJ21yD0QlthzHUOsccuGra7hv0grxTtwqEoikXFs6IoitIrWIFZOrLFiYIVxRZbN/vxIEU0g51anN06eB5ct+dll92xaUpDX2LL6H4OiqIcH1Q8K4qiKL0GRZwd2eJE6vbAuliPs60X68g41pcC1MZbIV2avvS4I6EvxaytC+vHck60a60oAx0Vz4qiKEqvQSFnPaEnsqCj8KSXmXW1HmbW165b4XwkMF250FewzgyW0mH4FEXpe1Q8K4qiKL2CFaClwrlU5J2IUCRbMco+0aXe5hMV1s3Wm9e69HoritL36PTciqIoymEpFWdc72l6boq5TCaDAwcOmNEr7L4ThdL6cN1uv/LKK2aWwb/927/tii8n+hlfjp7i+/LcWb9IJGKm3qa33PbVtudkz4HTc/NvpdNzK0rvoeJZURRFOSxWjNn1nsQzl0899RQefPBB1NTUmO4EFNEU1MdKuaaqIPrWcaVc5OEHBbhOHHkPiMCXsqMSFyBgopCPQphdMkJwwmE4nGpb0oRDDnzZ39LSaiZLmTp1qvlQ0HaDsOdVPDeKaS4PXg8GwqUVsFxar3A57DHHAssgHGLvn/7pn3r0lqt4VpS+QcWzoiiKclisWLTrPYlndnu49957sWfPHtxwww2Ix+NdQu9Y6KmZMuLXzyDsiNCV7aAQRTQi0jmXRS7tIZasQABP9mUpp+FEpD65HAIRyBHXgUvRKUvmz7pb7y3FqK23PbfiOv89KFLtPrvkcRTfhOvlsMceCxT3ixcvxt13341vfvObJq5cvqwXxTO90yqeFaX30D7PiqIoSq9AUUcRSpHGWfysEKUoPZbA7gnlQihEb7OIYkfW4RrhnMuJTI4UkKwWoVzIS5riKBoUy6HAg+MGSFQkEYnGqL676kgPOZcMTM9yeT6lS1tu6bY5P1lKBeD5nsnH4TEl6UsDjzvWYOvc3t7eJdx74yVFUZQjQ8WzoiiK0iuwmwCFnBV0DBR5fQU9ziwDgSM6WIRzNisCmuX5yOYzIlYpfCl2RdCGJA3ysvSQTmeRz8txIp6718/Wn5SeB9dtPLHrPJ4vDL4foCOVQs7LI5fPFevVh1DAl9aN24qiHB9UPCuKoii9ghV0VlhyncLSCs/eDoGfw4++/3185pOfxd/+9Zfxb1//Orbv2IwDB5rxs5/+En/5uS/g/934bWzfuV+EfRiFIC/7N5iuDEuXr0W+UKwbRf8h+Xb2V6YwtttWDHPbwniGVCaDhx97FPOeeAKebEdjcQQl+fV2YL1s32pbL0VRjh8qnhVFUZRegYKO4o7dE6wg7e7Z7VUKPrLZHD76ketFOH8D/+crX8HokSPx9NPPYurUmfj3b/wHpk2bg1tvvQttrR1GbAdBDvv27EMu7yPnZ9HU1IRUKmVEPqfp5pJ15zqX/NixtbXV9GXmNrtKtLW1FYuX8+O+n/7sp7jrrrtMGtdxTfeNgxK7b7CimXVSAa0oxxcVz4qiKEqvYLsOUNBZr2hfhrCbRqq1Ck89uQx/uPcuLF+1BM3tDVi0ohmTZp6C4SOr8f73XYiv/d1foaaqAtFCEmGnDQ0RD/ujBdx1y6345o//F3/9d/+BN5YsxH//v6+jrTmFX9/yM7y4cDHWLF+Gb33zf3Djt7+Hu+/+FR69/xZ8+gv/gVv+8ACyKRHXyCFR4eITn/kMrrjmGuT9gO5q+d9FITjY5aO3A0W7Xfbpy4miKGXRp05RFEXpl1CkR6IuxowdhWnTp2D06DHwPcD1s0iY1o0CMwQv4orQFWHrhgA/j5ho/LCkmThpPC6+8CIMqq3Arp27MeeUU7B77x4caGxC/ZBa/O73t2DEyKG46OLzsWTpYuxo2IPascPwyc9+3Ax5Z7zsrotBNbVm5A7z8lCQYtiXWsStoigDExXPiqIoSr+E4jVZEccpp87EO95xHqZMmYqKZDWGVMWRaWuD5wVYtX4D7rj/HuxrapDtPMJOxAjrpt3b8OrrL0smITnGQXXVIEydPhNr1q9Gbd0wjBxVj5aWBhHnYcTiEbzvfe/FYBHSwyaMRnPWgxuLiHCOAXkz0AYHsEPEcanokc95XUPWKYoy8FDxrCiKovQKFLN2adf7Ejp3o1EOG1eAG5ENEcLxWCWuuupCPPjgvfjlL27GI4/OQ1V1LSorqxByYvD9KCrCEYwaVIuW5jZsWLUeTY270HigGbW19bjld7/ByNFTRExX4obP34DmpmYsXvQGVq1aZ8R3a/MBJKIusqlcsQ6RiBHMUTeCwPeNJzom+2NRiVcUZUCik6QoiqIoh4XNBPvY2vXDzTB4++23m+m5//qv/9r0xy09tvfZhz3bHFRUJ1FVG6AQcGxpV1q2FLZu3YmUCNyK6hoMHzUaYfbD9sPIBztwYJ+HOqn/gaY9aG/zUVEBVMbqRQgD//iNf8S/fv2HqEpmkQj52L6rEU3tWUwaMxiOk8WW9mqMG1mDKo8TrPB6QPIsiMhuQjgURv3gus66FcV9X8BrumzZMtx888348Y9/3Bn7ZphOJ0lRlN5HPc+KoihKr2JFGvskU8D1HY4I48Goqk6gwOZMyg1L0Sxx3PjxmDFrJsaOHg36gCMOJzMBYrFajJa4eDSGMaPHY/rUqRg1ahQqKivxxpLlOOOMt6G2Jg7XLQrxCRMn47RT56CyahCqawZjmpSXEJEc5nTf5qNASFoHQ4bUywtFnTlfxh0vmfqnrm/fXn9FOTlR8awoiqL0GvxojoLNDlvXt97OwdTPpiULISFl8UtAiQonzaQpYYmlmBbdLBRQCLE+FSiEHYTMTH1O8UNCOTaajGLKlEm47srrkAgXkIxIXKLGeJPDch6uG5f0VYhJ6qgpJGRmNwzJ/s4qGMFMUW3ow9PmNeVMhhwS0Irj0heV7ktFUXoX7bahKIqiHBY2E1YEc72nbhsUcA8++CDmzZuH0047zXTboJjm2MknKqxfPB43H/jlcrmuOtvzsoH0vSf9UFiXckPRUTjv2LEDO3fuxI9+9CMTV9pFxi5ZX3bb4N9Ku20oSu+h4llRFEU5LFaM2fXD9XnesGEDlixZYoQo48qJvxMNW38GM9GJ63bueeth3bpj61tXV4fLLrvMbDPwWtu/A5cqnhWlb1DxrCiKohwWK8bsek/imR5mrrM7AcUzlxSjXL7V9CQcrVim0GSgADXjNZfhrWgue6p3aV3sOtOW/j1UPCtK33DiuwQURVGUfgFFqO2Hy64FhEsr6t7K0BN2H5esO8UzRSfPoTTYNMc7dK8HgxX6XLf16g8efkUZKOjTpiiKohwWijMLBRs/BrTirr9ju2hY8Vl6bqXhraKnuth+2cQurbC266Q0TelLgaIofz4qnhVFUZSjgsKNorNUoFlRZuNKlydyoKC0ApPwvLqfz4kWbP0spfG237NdL+2Cwu3S4xRF+fPQPs+KoijKEcMmg32ea2trceWVV3aJNrvsb1BQdhfQ3bf7E6y3/Xsw3H333Rg/frzp88zzopjur38rRTlRUPGsKIqiHDFsMjirHUfUqKioMIKMfYUpxvjxXX+D4jmbzR7iceb5nMjD6/WEFc4WnguHs/vQhz6ED37wg2Yfz1dRlGNDxbOiKIpyRNjmor29HalUqsuLaSkVbv0F1p/9nCn8E4mEWfK8+qPI5Ll0F888n0GDBnV9wMk4npuKaEX581HxrCiKovxJyjUVFGr0PPdnIUbhTO/sxo0bMX36dAwbNqzfno/9G/Hv0v3vxW3G83z5ctAfX3QU5URBxbOiKIrSI+WaiP4qvHguFI+EApLr69evx6233op0Om3iPve5z2HSpEldH0RaIWrP2W7b9RMdvtzY+peeg6Iofz76u42iKIpyUkGRTNasWYPvf//7uOSSS/D1r38d559/vhHSnPqaWKHMJYW23bb7+gOsZ/egKMqxoZ5nRVEUZcBD8Wu9sGTp0qVm1JB//dd/xdixY42opLd5+fLluPHGG/E3f/M3OO2000w/aO6j4OaxDP1NhNo6K4rSO6h4VhRFUQY8bOoooNk94/nnn8czzzyD97///Tj99NO7ZkWkwOQoGxxJ5KGHHsLcuXNxzTXXHPKxHWE6/eBOUU5e9OlXFEVRBjwUvhTGCxcuxJ133mmGbjvnnHMQj8eNELZD1VEon3322fjEJz6B2267Dc899xxyuZxJwzysyLZYQa0oysmDep4VRVGUAU9jYyPuuusuNDU14WMf+xhGjRrVJYJLvcj0TtuPBdn3+Y477kAymcT111+PmpoaE2+7cFhBXSqmT3Rsk9+f6qwoJxoqnhVFUZQBhRW07OPMQI/zd77zHSOYr776ajPusRXIFMB2uD2b1nqhyYEDBzB//nwsWLAAX/ziF81sfUxXeryiKCcXKp4VRVGUAYUVz5lMBps2bcLvf/97M/wcvcfsllHqdeU6BTO9yTbeimjbF5rr7MLR0NCAj3zkI+YDQ4v1VCuKcvKgr8yKoijKgIKCl2Hbtm24/fbbMXr0aFx33XVd3mKKYcLZ96wX2cJtpqFw5n6uE4rmoUOHmqnJOaEKRTODHfZOUZSTB/U8K4qiKAMKil5+GHj33Xeb0TIuvvjiLhFM4UwPs+2aUSp+KZxt9w0roq1XmusUy4sXLzaC/JOf/CTe9ra3meNUQCvKyYWKZ0VRFGVAsX37dnz5y19GR0cH5syZY0SvFcXstsFmj+sXXXQRLr/8crOPwcbfd999eO2118ywdtXV1eZ4imiOzNHW1oZ169aZjwj/8R//0YwFTS+1oignDyqeFUVRlAEFRfOePXuM4LWi2TZ11ou8efNmrF69Gn/7t39rPNC2vzP3feMb38Ds2bPNOM+Mt8dz3XqiGdiNo7Ky0pShKMrJg4pnRVEUZcBBwUvKCVvuW7VqlRnD+Utf+lKXcLb8+7//O6644gqcddZZZts2k1Zkd282ux+vKMrARl+XFUVRlAEFxW1pVwwbrAfZ7jscTEcojLvnZUW0imZFOTlR8awoiqIMKKyotWLXCl4K4FLBy/ijofvxRAW0opx8qHhWFEVRBhTdRXF3gWvFtApfRVH+HFQ8K4qiKAMSK5Apltllw/aDJt23e4LHWjHeXZTbfBVFOblQ8awoiqIMKEo9yly33S2s2OWScRwxw27bJQPhslR8k9J8ic1bUZSTC33qFUVRlAFPqQjmkkPOlXqNrVAmOt22oiiHQ8WzoiiKclJQOqugXbeeY65TTDNQWCuKovSEimdFURTlpMF6nzOZjFla0WzjKawVRVEOh4pnRVEU5aSBnmYKZU61nUql0NzcbKbcbmlpQWtrq5mZUPsxK4pyOHSGQUXpLwQF+OGQLAI48tQWQsU+mmH7BJd+y6RPtdKHFOReO9JbjLdl6GjuRx5Qmt7c14zovMH/zHubdWYPZ9ZFGj5sWL8J//Otb6EyUQlHxHLeyyEajcL3PTQ2NeLv/7//D6eeMtsUV5BnTh4187yZvEzorI8QLh1w42D0oXXtjGc9zKrdJxtcPeQalawXyuh4k7Y0vaUnzV8uraL0Bp33L/8N2RtNblpzi3be6wwFn8+Q3KAD5L1UxbOi9BMKno+M44tYDsPNeabBL/DDJtO6drbeoeKyAP3gSek72GyUazhCXW9ypchLHlvRbvTc9BiJ2xl8WUjgusnDhsO3wFbklhKwcZeXTx7JvZ48Q6m2DuRly404yOWyneI5X+wT7bioqEh2flTI0Tn44uobIc0cKBUCW48wu3oYuVASWIrtAsJjis9mOAib6yH/mu2CKGF5L0bOKe43e2SbaVhKuPM4npO9ZoHUpQiXEorRcAvl+mqzjoe/XopyTMjbY4FPEl8yKZwLjjxrEuSeNc+duU95T/Mfs9rvUfGsKP0EPqo5ERJu3seW15Yi1dKCtJ9DwaE1Mq1tcSmh0NVoK0rvc7SNRrn2suc8KPQoGHlPy9K4r+y9Lfu6RHTP2Ma6FF8adjfiwvc8+HnPiGPmmZf1pIhkj3HyMup5eRHMBURjMWQyWXMM90UiRa80BTih6LW1oif7EEx9BbNgelnprFI4kBV64GwVmUaO963+Jp37uLBZlcKyD+ZtMwrDEXGvKMcTc/vK/RgKybPB55b3d0GeLb/4ggl5MY3V1GDqKbMRSSYRGyBtk4pnReknGPEMaeAzObx2z0OolAY47Nrpgik2ih4qtrbGaClKH0FxWv4Oe7OHk3djwd6bJZTzDhsKMdmZk9DpRWVDTOiBPkQwWpH9ZgrBm+sRlpdMR6I9zzc1Yr9m35eXUQkVFZUIfMZRXPvIZLNSjZDZ74Qj8uyFRFhHRFR7krccLc9YwPpINXhu8TxLKKmXEfxSN55Dl9gv1imQdZ8eOdEQPB06nB3Js3g9mC/zp7+OcTzGMesWXvmwLwV2XQuWx/UwvE7v9aFw58HjFaW3CeTeDVM8ywsqn5VQ4MrjKve43NdpeZ4a/RzOefcVqBw+jHdv51H9GxXPitJP4M/Hflga+3QWyx98DLPGTYATi4ga6GwcTZcNu85GVVH6CPYzKAe9Tt1hVDlnU09Nj18hOjAlIStpKAzjEtkpRA2dZXAfPbBlKdNtyefxkk9E9knZbPooURH2pOF34OXpteVPzfJMBfKcORkU5NnirzhhJ4ogL+KaI3Gwa4oRzqyTCHGzFMFvuk9RETOwbpImnJY4noPdJy+7OaaXst2Q0dUOqyXCvRARkcx4ecYpzP1wIKI6jKjnimCXY3i95LkOUfS7sm2edV4L5k3CcESkvJnSNIrSF/AekxuZz4LxPPM5kSCbmXQOKzZswKlXXYbIsPpi/ABAxbOi9BP4oWAgxsnpaMfyx57AnEkTpPks9i8zDakREmxUBdoyRekjevI7F8qJZyNQyzUzPdykAcVzh4SMHErhmTRZGDFtYOPMY3s4nphn4lD4k7LxjIkAZVcnTwQyxbBboEjn/xSpbPA7+xZHm00+oVAxPmSENX+KpuSmePakelS+8hTmKPBZV5ZLcS5LI57bZVvWuW086GHzcSE3sxHzIzdiItBdyabgSDnyfPMF2Q/n4Tu+iGdHxHXEiGdeApYfZh2YdzHG5Fm8HrIWkpeO7phyy7xMKEovwF85efvJEyVbvLnlBVHu27DcywV5Yc3mgTdWrcHp11wl4nmwPA3ycjoAUPGsKP0ENpeOGCc/04FVDz6GORMnwnfZGDvS2LMZ5qPML5oPIyoUpbcwAk6g2CVOm0TJvedGwV4F9HWG+EFrNg1E5CXP90Ughk2fYjeZRCGXO9h1QtJxSUJeAp4Iy4jbirwfkfu+CvEgVRSqPr3AkjafBbsse6GIlCNlmklNCpK/yFo25CFpoo1QHgTk2yXPDHJx/krjIRpInk4Az/UR4a85eRGtFSHkc1kkc5w4JW68wuFQR7GuMRHGIqh9ec748goviUi0FUFezhMtsj+BfF7qkeOHhxGkIHUTYR2TelBo+8jJcRUigislnhcmDd+LIYjG5frkpH5ZhNIuwtGcEdSxaAx+hwj6eAz5IItYXuoSrpYy2uUaZOA4CThU31I3D5IfzzcclXxFaMuLAH9Cp6AJy7VidY2uLvvyoii9RJfjhoEvihF5juTWljs0nMphxap1mHrdVUgMHcbUAwL9LUdRFEXpFSjcAjPtdR4hEcwc/i3vOCJyRdCJsKTXNyJiNJ/JmK4SfN8LOyJqqfC4LqIvxI/yCiL/8vniiDKyThcPPb+B6Gt2n3CcoqAVKW2GwAq7RREdlnwiYRHAxgMuwlzqUfBFvDsiUCUqyrKkWKkg3JCkY3p5AeWbaQSybbp0BHIOTEPNKfmzm4UcRH3ABtORjPzOYbci8qKAnC9xLlwpl+m4dNm9g+8CBVfqyrrRcy3XgOdCaSviPRBBHxJxjEBeIkQ0G3e01DuXlfwiCeQycv5yjULsIuOx77W8EEi+5mVBjqELmx89OhLCIo4djrTB02axDGa9M0JRlF5FxbOiKIrSK/CDO9MVIuagI5dCuDKJQiIGX5Qnu0nkfB95Ea6RaEx0pisCMQcvK0JQBKIRipSGURHF9Grn8pJjAbHKCv6eIgKSwpVdGGQ9GpU4SUv3M7WtJOdAEyEpn15Xik0GX0RmKOxJXEbWC/D5fYCfFXEqQlnkMtMHmY6iJ1diCrmM+SiQ+VKoh0Wkh8JxEbpFHzJ/4aGQp1gviHgOPEriqIkzipXecxHX3C+ZyH5KXdZZmlqJN/2VWVlWO0iLpKYHXcrlcVJG2HjS5bp0ZJCIVRgFTPlL0c3uGmaLApxdRtjFg9058r554ZDKS0qBbwkmcN1E8B9FUXoRFc+KoihKr5D32b3BF2GYQzQRxQERpvMWvIgnnn8ee1qajfc5J4IvL4I38AO40biIRxGfIjR9EYomICdiW4RqNIzNu3fi1RXL4bMLg4jKNhHby9duQDqbR14ELoW46Fcp1zNLhnQuh4IrIpVdFUQk50Qgb9/TgG27GxCEHRScPLL5LNKiN6mlC6JzfRHC1OpmoI+KKLyICGZ5CShEksiJsC6I2A8cketRetELSPFFQM7F40gc4Sh8Jyz5yj65BhmpU0sqhawvLwwinDMcdYDe53gCKXlRyMfi6CiIQJfzy8l1ooc4kH2eXIecaOiC1DclF+j1JcuRFmEcyLkEjuQRDiErbwg8R8SlTJ5LWOol5Xv84FDKNdpadjNPevkPCmhFUXoTFc+KoihKr1D0Bofh5dPYc2A3fvyrX2Dlls0IxSK4/Z67sbuxATmPnl0RjiIEQ3ER0/ywKOIgiIjgFZGYCeeQ9tl3N8DiZUvw6PPPoDUv0jmRRGN7BxavXoXGdBoZiluONhMT8R11JQ9XBHEe8Zpq2RaBm8vAFxGcC8Xx1IIleG35RhHcLCNvvhXw3YjspwD1RTwzr6iI0yzach3worIeluYxLuI5JPlKXTMi6FMe+yJHEa6uRFrEbEqUaUYUcyCiOi2COC3SNZB8cnJouCKBcLJKtuNIFQpI0/su6Q6IgL533hPYsH0bnFgM7TlPBLcr9XKxZe9e/P7e+7Ftz1489vTTyPIYB+jwRfCH5UVBrk9OXgp8KSNV4Dkk5drWystCwtTVfAzZKaANFNCKovQ6zjeEznVFUU5w2O+yIA3p/jXrMaxukDT8IYnjO7BtLgvSXmqDqfQ1co/xazRz3xW7PPADwnCkSu7HHHL5JmxvaMDjz7+Kv/77r2DWxPGorqqWfQUMrq/HM08/g0XLliJZVSkqM4RFS97A64sXY9PWrdjXtBdvLF+B2goXmyWPNXtakW5vQrY5jeGjxyAbeKisq8HTzz+PZcveQFNbB4ZInhkR7M++vBDL1q5ELBlHRTSOpRu34RWJW79+A4aOmY4pE0eYDwFXbd6NJ59/DflsG2qqHDz2zMtYv2Urhg+vxKZduzB/4Ups2bwafiEq5+ViwcIXsGHLOiSTMSxfvQUvvP4icohh+NDBWL18FZ5bxLyyGDJkCHa1NOCp+c9gq5SdrBqCjnQL5r/yKtZs2ISGhl3IimD/5W9uxSAR4MMHV0vei7Fk7Q7kc2ms27IFj//xKUyeMAkjxo5G7ZA6bFi7CgsXLQE7n1TWxuS6rcRLL7+MdZt2yLWrQn39MPhBRl5bcvJXkL+HXE/TdUWC8Y6xT4maBKUvMW0ObQED7zrHRHGEqJC8LO/b34jB0ycjkpTnfYDci+bZUhTlxIfCgx8UgQPQm4+LaKh8Cfx4iaK5UziLqOFSg4Y+Cxz+jIF9k8MtsszKrVgpt2dc7kgHTqwDzU27cebsd6CyMAhOcwazxkzG+OFjsGnDZmzctg3OoEG476knsGXvTtx29+/hViTx5IsvGa/rslWr8fKCJejw9mDH3ixy0TDunfckNm7aiWeffhiNjc3447OvoK7GkWOWY8PmLXjt5efQlAmQjhbw6MLNaGvK4pmF81AjaRLBAQT8cDDTgVx7Hk+/vh4vrduNRLwGjz72MDLhArKoxFNPz8eC11/A6yJ08yK+f3fr79GwZRvuv+13qEkMxS6p6+tLFqNq0Ag88/wiPLtgIebNfwLZZDWas3Id0s1Y+NpiRAcNRzodwisLVyFoTOH51+fDHRyV/Ochk8rK/kGISMg0tSMei2NN6248/txLiCcqEZZyOppTUuavsXb1Brzw0gsIVSfwsIj9ZUtewVMvPQ8nlMDOA634w/PPodENzMgjTj6DUF5sgO8bb3rg5CXww0K//N9Qg4ZeCWFjD8z3Cp0fxvI/tk9hEdPmkwRpm9h8FdusgYGKZ0UZgBT7PGrQ0DeB/Yk5Sx77CvuhiGwzDvDybWaykcBPIBxKokHEZm2li6gb4ed5QN7DisVLMHvKNFz6zneiseEAWpubMW70GMyZNQsjh4/A9CmjMWHsCLS3daAqUYPp42bgykuvRrK6Do2t7eDgFxzBYtjw4Tj3/DNRWRPBlp2b8fSzz+KFF17GAw8+jlcWvY59+w8g5jm44PyLMEbyjiUSSCTiciz9YgEmjR2DkcOG4g8PPmA8xc89/yzmvzBf8vcwXdJf/q5LsWP7duxvaEA0HsfMaTOkvs1Y9sYyPPnYY3jp6SeRbm/FuHFj8cS8B7Bs5SIzysjLzy/Ai8++hKeeetZ4jf32NM6bdSrOmTkTg2vrkKyswoTxEzG0bhi2b9uDhfNfxrLnX0Hay2DQsFokByUwctIY0z1j1749yKXbccWlFyMeCaG9pQFVyaic9+k49bTpaGndjwj7dfPiu1Xy5MtSXqw5PrQZwtJ8qCgSptvfT4OG3gx8tMsGgXJ54Ejmg8iTpSjKQMMaLA0a+iTQkySNo5lYRKSo8TGFfERCOUSdGFy3FmOGT4Tf0YIn/ngflm/biN/cfzdeWv4GRs+YjK0H9mLhwoWoESGZjCXgiMDjsGvgR4RBTgRjBoloEoVMgHxzB1YuWoac5yMeT7JXAvgrC0sFsigUchg6uAZzTzkF1133XtzwuRtw/Uc+hJGjhiOUzmHl6tVYs2N7ccptfkQoISZHhlJZVMZiePuFF+EDH3w/PvzB6/CJj38YYdfB+s1bsXLpUlRK/WrqBpmPIOORCCaOm4wz5p6Jv/z4x/CVL34ep82aiUnjx+P//M0XRMSG8caSxTjvzLNw3dXX4XNSj/dcdSmiHMYuk0WN1Dsv9fHyUo9MDi0NLXjmuRcxY+o0XCsvEn4+LedHX10au/fvQF4Efl3dYHn5SGLdihUIpP71NbVwCwUR6Vl4uTbEQh6SUb4KyEuMiGVfyuIvAhzj2fVlKevswnHI306Dhl4OPWFGjOzEpCvZ7u9on2dF6UdwXFrO2tSwdh2GDqoxQ8MW+zyXQGHDj51oqDRo6IvAhbSGvPfYhaj4k600KPJPKBxD2AlECFZh3LgJeOXV+Xhp6RLMOu0UvO28c1E1qBYvv/IKNq3fiHddcjEmjR2LjpZWjB41BtlcHmOHJkWIVqM2XovBw2uwY5uHnduWYs6cM3HqjJlIt+/CiOHDzaQq08fXoqkljHFDBomQnYrnX12Gha8+i7H1YzBn8kgEuSwen/8UnHgI5869CMMHieQOZbF3fxaDq4dj4ohKjJ8+Fvc8+Di2rN2AC86Ygj3NrXh52S7sX7ccn/7kZ1E/ZDDa25owe/osjBgxDAf2pfD4Y/egKlGBieNHYt3qNXjimecwdOggXPGOSxBP1ODhPz6OXVs2Yub4iahMJpBCOyaOGoG9e5owefoERIICdm7YjLedMQfLVy1DZYWIdAnTpoxGQ2MjvKZmDBsyBBdedClad2zBiwtfx+xZZ+AdZ07F3oZ2TJowCYEXiC0IMGH0GFQ4DvKpFCTj4quMCGzOpkjZXHzR4R+GfzQNGno7dHbTYAcNLvgPh52Ue9DndxF5X+7ZAxgyfQoiFZWmq8dAQGcYVJR+Ah9VTv7gZzNY/eAjmD1xLHxOLBa43NsZBDFYHJJLUfoKTtxhXtr49mZazM77zwcy+QLitXmk0wFi8Tr4hTYEsQS8fN4EepnZjSPvuohymux0hxzHvvsuQm4Ubm4vPFTDzRSQTTRLO3wGvNAWUeb1yDW1YXBtGp6Um/ZEsqe3w49PRyLUCjeUQsatQ85pRSxbg3i4VaoUQpPrIxwNEG6uQ3VS6hLuQDo7EplUHLXJFgSJDFKFBCqRQLphKW6b9ySSE67BB86aJCI0bmYzLHitSMrLQEeqGbHYSDnT/fK6kIQfbofjxqTMSuTRjOoMx7GWfOIO4iJeo7k4Ajneq80ikcsgm5brEM0iGa2SayHXy00hFAlBHmk46QgitUAqJxo464kIdpB1q1EZbkE+Wo1MOoxqdxdSflKuPRBNxJER8cxxnuPyNyhIJl7UR1RshGN+S+dfpAAOuUcxoyh9g9xrtAWcPdPYAW5H5NkJzAyDhXQOS1evw4xrr0Jl/bABI57V86wo/QXzhi/NYT6H/avWYdjgWnZnlIa0GB+SN3+zFNvEtSOHacsFGsIjpdzxDMc7j96AnvzudSBHU4/jnUe5tD0FcqR5kDenZVdaToMdhEWchfmyVlx6EjhFNreL3TpknwjjsAi8Qi6PmNywDoW3hLzcx56fl1J5/4Y5sR84EUiUE6FIkRyqLqDXtJBCxOVUIw4iYc5emDNerQjLkuMcqUtI4ijAOfufvE+ikEnLdljSStlBFvxuLioVYpePgG28F8At5OVZysgLqAPO/M3uIoHEhSN1GFo7GqOqEki1N4pYDiEpQjWXzSEWjUotPKmvlCUFu9EIsrmciF8pQ87JkQvDKcfZ99llxbwccgUPnscRoOXlIOzC51B9Uv+wnB+7nHheVtIW4HKcabkmYal3hB9jBiJ45Vg3IiXKiwhHMeGLMfyYnCPz9kSgcIIUiZcrEQpxtkER3TQA/FPyZDtH3mB4M0zE+O7haO7R/khvnHe5PEi5PLqns+Foyit3PMNb/7fi3RWW54z3NG9PTh7kyeUJy/PAbhsFuU/3HmhE3dTJiFZWypVjvfs/6nlWlH5CgaJDGsZCPotVDzyKWRPHwHc5La9rvNLS2hp7yrbTKBtF6SuKHY87Nw4iErlz7SB8ueO02d3xJHVg7lsRwKHitNNyi8ORe5pdDSie5eY2Q9CFQyJaw0kzTKMfUCBSvATmQz4qbQp0TrpCBR5IJpweO1xISNZSStAux8ZFtDJ/EdNyLEcIIHyeWjNtiEv+MVHdAdLIBZUicocgnz2ASFSEvUORK+cm52CEueTBLiMhKYPinhO01FTXIUhnkU+lpTyphyvlRzgptzyfjivrUhcR7Hl5geCLB18cEPKQSHJWljzSmRSSbrWZqpyzFtKjH0jCICRiWnS05/HXpYzUS65wkESU3bLYK5ovAFKHUCgm+yJSrzae1iHQC+2Udj5VlN6Etxa/JZDbno+/L/cmx2t35Z7jvel1pLBszXpMffcVSNYPl5fegXEvqnhWlH4C+zey0fdyaax85HGcMnE0cpzKmN02+BhTbBCxTWEzdVpx809TFBJvpjO/I+JEyaM3OJGvB/+o5f6wPZVXjqPN4811ljZRKJNH2YaRvqkyUHzzvhVxF2K3Agps2S5E6FEuCmgz4YqXF2EoApzdDySNaFepqbwwSrUoXimAWaopmerb/O9JmkpJLuKy0CHVEvEaRItFyj4jOhnMwHoUuSLCJa3nt8vZctbDekmTQTjKmjA9f8uJFL26AbuYsH7F82IKTlUoGls0BGNCZuQRTp8d4hB+chw4hbeIYdM/3Fw8XlPmISJcltTyvhwUZncr8w2DxEpa9s/msHMF0z8rL9eAM7IkjXfa1EsENC9bKMTpwDllOL3QPNyWIYeJ3WB4M0f+9x5Y9MZ5H00ex7u844xUzXfl+ZRbs/iSLEGe15AvT1c4MKPNLF0t4vk9V6By6IjiMzQAUPGsKP2FzifVy6Sw6tF5mDFmGPLRsDTL/JmbO4uBtomzkh0xxuCVoaiQjowTJY/eoD9ej57SlkWOL5f8KMqjJ7Ncc14uCx5Nb2t3mK25b6X9Z3eNML2tIlKpkenZDYIAUVdEIwU1u4IEIqJDnSNI0JMqmXrhonim19o4v0x+Ir5FCIdQJfvonU3DCVeIAKXAFLEqDbrpn8kghfMTu6AQFSEuothNS3kuQl4CjuSV97PG28sROAIKX4mjbLWwTJafo3iQfRQMPCeKZ3rOw6IoHE7hLS+4ASOlrCjPtysL2WCduSa7iy8CxYeX+fA8WEPOG14AvdXsslIhxzONXCOpWxGps1yboudf0jOYl2nGMJ+Dde6iN+7R/khvnPfR5HG8y3sL4P3M9zqKZ/7SJDe+3Hpy58pz4XWksXjZShHPV6J21FjZ1cO59DNUPCtKP4HCwPQV7WjHpsefwvQxIwARz+DPvKbR7AxsuI9GPBslVc6gsfE9Uk6UPHoDipzu2Ot7pBzvPHq6duXoKY+jKI/NRrnozuUhSLXohe0Ou09Y8Uz5a7ptiPANQtIKm1E8REaGRSibgZ2ZjH2Ni32Kza8wciintCbm7EvqFHJFaBYqZZP5s7tDpSwpqmWdBXadavEAH0nkKXYjaSMEgkzEDDHH0SsouAs81niNpSQWxi5UIpSN+1sWmXgIrizZRYJl+iIQ+LzSG+2wDzQ9v7wO8h89dJTI/BXJiH3538h/JmZ+FB4mX5OhFMZflji4XkaiOItgBS9GsV6SmRlJQy5QwYh+nhjLYiEMdNNLHPt+vImj+HsPKHrjvI8mD3N3FlcPgX/EI6U38ug7eE+bqhjhLPc+BbI8H6YdyuaxYu16TLmm2G0jxCF5BgAqnhWln0D7xAbaa23F8t/fiyHSsKalcXT5cy0T8OMhNqTS+rtlf6btCRqzcgbteOdRrkEix7uB6I16HO8Guqc6l+No83jzebONLEdRyB2KuTPKiGeKuqKnmGmKYpniORunUOXPviJIeW9z1jz2L2adeb9TSPs5sA3OO1GjMSlu+YGSFGROzQ93SJ5VEphnRoqqknRZKTMlBbNGcq4U6LJM5ESEurUiTX0R7q2IiCp3/Cg8yds3oy0Xu0KEQzFz3mwyKdRdU2fJTdbZc4rlG0EtGI+4iO2Y5MMPA30pO8zuF1L/DD8aNHVg7SjIiy8R3O/7niwpvOlRZrcPFhiTPBKynTF1CctLAbudFIWxvFBIGtPFQ2oUzVNki6Uwaoaean4w6Ug4UvFMjvfzdrzpjfM+mjyKf+s301flHV/4zAe8TwNZyrbnhOW5ZJ9neQ7ltqtyY9jb1IrZH7oWsdohCEV6Opf+hYpnRekn+Gxg5WktyJt8w/ZdaGtoQtyV5tc0tIdS9tc82m8eX+DPydLwi8HzPE+ERwHRaAS5XB4ORUogkkHWo3E2xCLYXVf25cxHWEbsCLbBZ4ZFb5yEcmUqSm/cGuaGPopcTL/hbvSUR7m0vQAft3LPIb3wPb18lKXsuRy5aDI/ox9VgUr/Rmyy+fWiYGw0gxPmy1VxnXfCzp07sWbNGpx99tlIJJPGrkfFznPJF1i2D8U7+Ajg7dW5WgrfZQPJJyftk1MRx7AxoxCvrpT0/Aag/6PiWVH6CeZBFcNGb5mxTDR09MKVaUgPZ/aMAaXYtevGBIREnIvRlOWOndvxwP0P4B0XXYSZ02fAibA/JcsUkc6fmjn8lxha+s3Km01FOUiv3SFl3wh7oCexWF7Ndq70PuVyNjU40nPp8Tz4z5Hn0XdnqJyIUATTlnNmTH5oW7zdCsYB07B3L372s59hz549GDx4MP7uK39vZrIMPBG5Ytf5gW4kynFljpxydyIdPcVPauVfqQBvZf56FDFj1vR/VDwrSn9BnlQ+rvyAiDMI0kPARjFyjBOi0AJkszkzbu3GjZtw44034vzzz8dLL76Iv/iLT+Kcc89BMpEoDsElUHg7A6TfmqL0KeVaV310lD6GptrcZvIPlx6HVgyFsXbtWnz3O9/Fe9/3Xlx22aV45pln8eSTT+KrX/0q6gfXoa2tA9U1VeaDXf4aeSx4cvP70lbRh13sIGVvfa71f1Q8K0p/gY+qCFd6D+hZKITZZUOMUpknuKeHmsardJ8R42JpvbyHF55/AfPnz8fVV1+NOXPmYPv27fjDH/6AESNG4KMf+ygSIqA5JbAbLfafNPkUq6Qoh+WkvUXKPYhvwcXoyR4oAxD+seUeM/MCsP88xxf3cnh+/gtY+MorOP+88/D2894ON+LCF7v/+OPzsHDhK/j0Zz6NSRMnGoMedkLGSXKklE1Jd3eB/fZFLLNO5qNZSemqeFYU5ThiHtTOx9X8LBfmoFnF/7pzpA81f9bLe3ksWrQYd999F778t1/G+HHjjeH0ZF9zUxO++a1vYeTIEfji57+IWCImhrL4n6IcKcd+tzCHo8mlXJ/gnvIol7YvORrxwCe53NN8dHmUsxHKwCXv54v9nDudI/Ofnw9OJv2jH/0Ip8451dwPHMkmz9kpCyE8/8J8PPLII/jrv/5rTJ44uTOXI6fcU1Uctk6ylzowsE0xQnpgaGcVz4rSXzCGkEbPvsl3NYhvbvyL4vqgSbPGyzzu5n/ZL9utra14/PHHsXjxYnzyU5/C9OnTjSj3veLIHUyXyWRw8803I51O43Of+xxqampMPvyQ0ObJpaL0yDG3Mj0J3544QcRzueLY+fOIz4UXrtzFO4o8TIfXY/4DKCcgxpx32fbih34ceUYijGjOZrN4VETx6tWr8fnPfwFDhw416fhBIdOZpRyfFRv/yquv4o477sB1112Hiy++GLFYzOxjGX9ybOYyt5fUSv6VYNqRYhKGcuO+9EdUPCvKAKT0sS4VuKaftCzZp23fvn14+OGHzYgb11xzDUaPHm3SccQNwrR2+8CBA3jsscewfPlyfOYzn8GkSZPMvkik2C9OxbOiKMrxhXac0IbTXjMkk0nj8OC+H/zgB8bJ8eEPfxgTJkwwaUuhDc/ni6MscUSl9evX495778WMGTPwkY98xORB227tu9r5g6h4VpQBCB9rBho7K5hpYGlIGb937178/ve/N0bz05/+NGpra0264hBFB7F58Fga2UcffRSLFi3CZz/7WYwfP77LeMfjcbNUFEVRjg9W3NJO08ts7XBjYyNuu+02853KFVdcgXHjxvUofG37wOPpDNmwYYPxQI8ZMwYf/OAHjRjnfopr5qcUUfGsKAMQK3qtcbVQBLOrxk9+8hPjPaZHggLapjE/+3WaBB5Lsc2lFdY0oC+++CJuueUWfOUrX8Gpp55qjrVBURRFOT6UyrdUKmW6WuzevRs///nPjWB+//vfj7q6uq72oBxsE7jPpuH2/v37TVe9iooK4yjhkvbf/tKoqHhWlAEJH+tST7I1jOzb/P/+3//DJz7xCbz73e82wjgajXYZ1lLPM4+hIaXBtF4JK67Zh+6HP/yhyee8887r0TAriqIofQOdGdYm0wnCbnW/+tWvcOWVVxqPs8Xa8XKwDeCxzMNuMzD9TTfdZCZUoZ1nVw618wdR8awoAxD7U5xdpzF8+umnsXDhQpx11lm47LLLujzONAE0wExHrIC2eTBYIc58uM3l0qVL8eCDDxqjyj7TVVVV5jhFURSl77E2mzb8tddeM/b4oosuwiWXXGLstLXldlkO63lmYD62PWDgr5T33HOPmVCFHxLyg3Km6065uIGOimdFGYBQ3FIcc0njOG/ePDzwwAP4wAc+gLlz55r+y/yJj/toJOllYOBIGqWGlsaZgR8XWuHMfHk8023cuBH333+/Maqf/OQnTR7s6mGPLc1LURRF6V0o4ZYsWYKvfe1rxoExZcoU82si7XSpDaaX+pxzzjGOExtHm057TQ8zhTLTMD8rpglt/apVq1BfX4///d//7drPPLi02ycbKp4VZQDCx9o+2g0NDcawctKT6upqI3D5NTaNK6Hho4Fk/+V/+Id/MKLaGl3ue/bZZ81X20xvj2EeTMP97e3taG5uxve+9z0jzJnGGlO7VBRFUXoX2mBCe05HRqldJnSOsB1g3CuvvIItW7bg61//uhHM1k7T9rNf8/ve9z5MnTrV7GMcj2F+TMNue4znr4y2XVHxbK+EoigDBj7W1qvQ0dFhPMf8oIRGjnE0fDSODFxfuXIlXnrpJTOQPj8OsUaRPPXUU2aEjWuvvdYYU+ZrPc92m2k5FJLtP20NONMoiqIofYO19cSKWGt7S+Udp+HmL5Df+c53zLZNS1t9/fXX41/+5V+MOGb7YOOZhnlwSa807Xt32273n2xoy6YoAxAaMxpBGlWKYQ4rN2vWLMycOdOMskGhy5/36GngNuNpFK0hLF3SaHKKbqZjPtOmTTN5savGxIkTzZKhVDh3N9yKoihK72LttP1V0HqTre22Np0eaP46SLvcXRQzsJ2wdpvrTE9sHLH2nUFR8awoAxYaPhrT7sbQGkAGGkYrdCm2rdeB+xhnjak1xHY/twnTMd5u2zK5zX2KoihK31Nqk+2SttjaeH7PQvts7T3XbTpu27T2OGLT2rwJ99syTmZUPCvKAIWGj9AQsnsFu1rQ6DGegaLYxnGdWINqYbw1qFY4E2tA7T4bx7LYP640XlEURel9KGppo609to6O7raX2/bjcLvfCmQrqHks03CfFcw2T+7v3jYQm+5kRMWzopwk2I8/LFZUE8bbYI0h12k0SXcDadPa9VKxzA8Oid1WFEVReh/aXSuCaW+5bm02sXabwrfUXtt17rfC2B7LfaX5WqdJaTmleZWWdzKh4llRFGNEuwtkCw1rOa+DoiiK0j8pFcHK0aPiWVFOYqxo7kk4E+uFsIb2cGkVRVGUEw8Vy72LimdFOUkpFc42lKNUPNMDfbi0iqIoyolJT7a+NK77PqU8Kp4V5SSinNG0lBpQC7etYFbhrCiK0n+x9tvachunHD0qnhWlF7F2SEyU/Mt+wmKkzHo5DqY5XqH4qx3L5ZfU/CmP22IIQmGEOv8LfKlzIGnsyYihDTxf4uR4iZMUjCwJHKmDoXt8Xwc2BMXlwaAoitK3GKtjzA3/Kdr44poEWSmuc+SLw1gm7pMDeIzXubTpLczLLEsCo0oDMevyT2k8Azm4XjT4gSQMJGNf7LwJYtdB+y+B26Q0j9JQjnLpDheOBtbGk395hYs1k3bG2Py3HhXPitKbiH0qGghKTD7wVKcc7odCz+wwCbhNm4UCDzh+gUbTGNnOQIPJ7hjRWBwxCbm8h7AjRpSVk/QFqacv9ioeT4rAdsTGuhIvIRDTEUieEgq+rBcY3lze0YQC8yoTyqU15cl1Zf2LnhQO8l8cbk9RFKUvEbMopk/+ERvEF/hQgePoZ8VeSZDVUMGXkO5cljgcKPyMYuYyL3E52ZcX25oTMZZH4Odkn9gziljaaI7PL8uwHGsD8+oKkofvZWWdw9Vxm8VwyXJlKRFMF5bl0CGD8fhjj+CiCy/AZZe9E1ddeTkuvfQSvOuSi7FwwYvI5zJwwiy0M+8yQYz9m4Ipq0zankK5PIrXhGVznefMkJe8Wf92CXKduJv7O1vYtxqdnltRehHjgZAnih5c/m+ec1kGBTFwIvSKdEYyFIrD/5TSGw8kc38zrBiNTynF0nbu3IX//en/IpcVI945XFFA1Sywv/NVV12F888/35xDCBzyzuzqgud8NPUuW7/ylTZ5d4eGNGwrYRZ8VaERLw69pyiK0ld4IvScsLHyCDwRv+EUfP+AaL+siOqE2EcPoSBj1gsh2qSiETvExIkQLHhiYx3aW9mUf0J0DEj6gu8h7LqiKWnXuiMxJiM6D0SAU4iHODGVjWMK2TANUWeJsk6HSMOe3SYNhyils4FJaN9bW1sxfsJ4yYbtkbwQmIPeTGdub6Kn9OXoKQ/jFCHyEmBzDAUxuYb75ByrEItNkVi5HtIGddn+txAVz4rSq9Ag0agWhbLxPYtg9UUk83Hn00bDZh7+opvApDteFKxY76wHYf8313XQ0dEBj8bcvOJz/E6mZ/eOEBLxhHEMRKMc85PeA3PoQXrBlvVkicrZSV5fc415jNnPFYY3v4woiqL0JsZWGUeE2PXAQyG3Hdu3z8fG3UuQi1TB9XJw/BzSYbGbImx5AM2UDQZ6V2lvKcQjLjw2GY4rOUaQz+XhShyPY1F28hO2G7THIRHuzCkUzor4dZHPF4Uw0yWTFWayE+v8YIFFmVcsmZ5yV46x/Z6ZH5cczzmQfeyyRwdK8ZhDYdrumFRl0vZEuTyK2HjmVWwXkxgqWe9Fwh2BM0/7LBCrgC/JiiNPv7WoeFaU3sT8fFd8tPlmH3ZSYpDaROYNMQaGD1uXieBPVW/yBPctIUQ71w6F3Tm6HOOlSIVzYsijsQh8jzNRAWG3aNgOsRy9YEZ6MqrlTFShwJ86ef0issFGRpZspEyjoiiK0oeI6QnCIprF1jv0IKdWYOXqO7G0bQ3SiUGI5HOIiXjtiFSiEBJbBa/oKxGsmfULWRGHDly/gLzk5EUdeDTCHkc2oq72jaA19o8+DR4kO2gni86XkAhzdv2g/aYHmSI6j2RCxLMcy/7LXbaTSx4rq8yTs8CWzhhL0c18rXh23KIHujs9ycWeBfGb6TEPXpkur3MxTVV2GAr57Uh4I/Duy/5LTH0SeUkT7bqKbx0qnhWlFymIYA7xJzTqOieLvL8Hu/evRkfzbmQzGeS9PJywnQVK3vgp+LphjeyxYH8B606I/YJpd61h5LoYvkhEDK/UzWOfZxGgtAo0Y1yPRqNdhpghFCoadHouTBY0ykdZ53L1O5o8CohL+UkkErUYOXwKamtHouC7kKopiqL0LfxmxeGnbBE4vgjj/DKs2XAHXsw0or1yEKLpHOKej+ZIhdjHdkTYbU8OM0HsnFmGK5EMwihI2rSXg1tXLeLZRy7ThmQyiVQ6hXgsXpxWm99+8KBOG9kl29yw6R/Nb1ba2zukbXER5rCi8p9xiHSKWtMvu9ObzK4gFM7Gmy37+LF48cNrOYoC2jh9it7y40exzek6QdMYFDDYq4Ob34xYWx3ec9m3JSYBL5yTq17eCXQ8UfGsKL0I/chh81GDGDUxRE5+G3YtfRSFlhTCIwYjL0arwhNjlWmHG5E0qQLcmBiCcCBGMwJXVoMgLQbNFSHrizhMGG+C68SQCbXJvoQIxABe0I6QL4Y7WoGwGN64hGxBDHA8ye9WkHNaEfNjYmxi8KIxhMXAxrN5dCQLyIrhD0l+jhjTWFjWCxmaLgkRFETYd6Q6jKfZ8+Nw5biwn4MTCyMT9mQpxjiTk/pWFD3SIlbDBWlEQgGy+QIisYScB424pAtH6J7BID+MNki+kSzi/mBZO2AcDFHz02EBXs4TYx6Ta5MCPNZZGoBwRo7NI+Ik4cl/vLJFo04PuBQalfOM5NHe0or6ie9ExdBZchw9PNrnWVGUvsWX/xwK33BedLSI0fwqrFv3Wzzf3o5MvFJSZEQw58QiReG7dFiIMPUTYubjYm/Z5UxMXWOAx37+BlLNIaTr9qE1tB+f/9In4Q/KiGCOiihuEzNbQLJVjks6aO9ox6D0UOxCDtXxFjjSfsRDMWRz1RKzG7fd/Dw+/cnrEKpoRkWiFkG7tCkxaReiOYSyYhfjeSTEFre2phCtrhRb6SOazSIfqUKb2NqKmIj27Gi05veiEEkg6co+aR/C3iA5NI3mhFhXsfGu2OxszENFNop8Qtq4FpG5bgviNXVoTctLgqw7hSo5rlbakBaE3by0YSJ3I0mpazvi0siZOE9aHWljglBGzsWT9aLtNm2RkaUBgmwMI9vWoCo1De+66ruImncBEfbFd4K3FBXPitKLvEk8e9uxe9mjqBQxmRw3WYxJDFHaUpeGg6IwIQaYYlYEqIhQP+SjIIYq5IiBEaHoIo58Tgw1DU6+TcyKGGOIEBeFHKBKjGYC8Yo4wumU5OMjF1DsOiJyZb8sKcKzcoQrZUTEsIkKh+hhOMkqEfAphMQAeyKqXWkIgoIY+EjRy8wRN0KSH93PIRG5hWxGDKocKw1FWGrFL6xN5zM2BJGYpBHpmktL9lGJcpGT9CFpWKL8aZAe4bAsohm5NvWSbjcibrWIYDHqItYdqaPP715MI1MhrYoYbEfORxS2i6Sck4hoqWdO8o/KdfDk5cOR6xcON6NhxzYkRpyNZP0cuTaeqZuiKEpfYsWzKERZC+DkVop4vgXPt6VEPFdJChHPYnlzYr8LTqdXN6C3lF5hkVxiP8NNAV59cBPOf/s7kZwQwh0P30UfCi56zzvQkEqjJh5CvDqKzG6x4GJAXbeA7Qt3Y1OmDZeePx2Jimrsa2pEdfUIOPG9eO3Z/bjonLeh0d+GVC6PKqcaqBIBn0iLkI9IWxQWoZ6WtBXISJ1qXRG07Vnsy4kgrqlCVaIVhebByDqN0gZIyxNqQ06q7BREPItt3S32fGhlDfwGEdKsXyiJ8KgYCq0+8u0+0tKeufEYInER4ZF67G9okrI6UF0TF+MuwjktFtpPobKmQkx8OwrSdjiOvGjwGhYyVODSrvBK8XrRmVNAwYtjVOtaVHRMxruu/C4iJ5B4dr4hdK4rinKM8LEPmwdfHn0Rz2ExEh37NohAFANWOVJE42AgLwbUTWD9xn246w9P4I1l61E/fBRqR9fIm7kI3ZgYPRGvmVwgeVTDE8PDj07cvGs8GRl6mmsGIb0nh5dfW4uaYaMQdWIIwiIsRby67BfW4WDBgqVI1g6Dm5T8pFaiSJHPhBBJDhdhLZtR2U57cKJSJ4cfYkRNvbKeGDExahyVLhAjGvgRpMWKzvvjyxgzfg7CkaQcE0KmtQN/uPcZPPLMYqTFME8YMw7r1mzGw4+8glHjpqK2rgo7tu7HnY+8hCFDh6ChuRFbd+fQ0LoXO3e3YlD9EDGgIRHTYfzhrkfxxAuv48UXl2LF6vUYNnIEYvEa3HPvk5j3zKvYf6ANI0ZPRDQu14NinP95rWhrbUSserQ5J8J4RVGUvoRfr4TZ90xe8M26vx8HDizDZrFlnthQ9kGgJQoQk2VERDEFH7vo0RuRF+MrNjzjYsPyzRg5dghCNTms37AFMb8KW1ZtxI4DexHuyGHL2m3YuGYbnnn0ZcycOAM7l2zF2o3bcMr46Xjw90+IiPWwXmxuTUUWy57fgpHJ0Xj+heexfdcBrFu6Uew5UDe0CmLFsWfZbix8bim2bGsS2x5HRT6G5+58Fjv3tGPrpr0YP3woFj23HitWLMfqRRvQvHkHMukMDuzuQCIcw5MLXsP4UaOx+dVtWPHSZuxYsVteFAKk2jw8+4cF8EX/Lnt9BaaNH4uXn1yM3Tv3SHuwHJWxJFa+th4bl2/HqjdWISntQnVV3DhUwtLm5PM5uVzyMmH63BUtOK+tWYZiqM4dQMwbjAlTLmcrJvHy7wlg5lkXRVF6iTc/08UfdgpiGMIheX/P+nTWYtHi5SJGX8KI+uEYnKzHw3c9gcatWxEPqhDOVCNIO6iIyHougVihUrY95IMY4NaKGB6ObLuDgp/AC0+9AIdfWqfYVyOLqLy6h7MpRDIRMZSvI9WUQyKokHxiyOVcuFERn14FckEcGTnOiVcZD7XPLhROAR35FNxEXPbTEx1DviBiXcRzu5R9/wNPobkxiyDIwPca8Mxz89CeyWHyrNl4fdkyvLxwPpYvew133PMQVktDkE/vwWuvvoJfPvBHbNixB2vXbMKStbuwYu0WrFqyBMmYg1i0IC8FGSx9+WWMrhuBU6bPwuSxo5F0C3jpmaewf8dOTJ0wFds3bceCZ5+F39GKWJAv9jOk15rtUbjYd69sR2pFUZReR2xNqLu9kW0x7vSocjg1rnNk47AsGcwwdAK7uPliszwvhr0HWvHS4tfx0B8fR87zMWf6Gcjv9TB71qmYOHwcNi7ZjDNOfztmTT8Tr7y8GNOnTsPps09Fy54ONO3MiuCdhgM7GrF7826kGzNIONWIhypxwdsuQFVkELKtASrcCtHrATLNHdK2xDB28CTECwlsXrkNTTuymD5iNla/sg7bVu/Ci0+9jHe943KMHzYFfrucQ0rqnykg6kWQb87Dl+22PSnMGH0KaiPDsG3DHuRzAYYOqcGF7zgTBa8VXqoN7fsbccacM/GOt18s7dswrBPhPqxyHGpDI7By6QZE5QWDPfsCseOcSyART5rrYzzPcq1I1/JN1/nEoFg7RVF6laJkFgrFDzQgxiocULwGaE/txSuLX8P0U+fgquvejndfdxne+c7L4Bc8vLxgJX7x83uxaNFqEacv4qaf3Yzv/uB72LF3A5auWIJf3Xonfn3rg5j35Mvmq2h+JHLHHQ/gzjvvR0NDC7w8rQ+7SqSR81O496H7cfPPf4nNW3agLevh/ocfx49v+g3ue+gxZAt5PDpvHn76s9/ivntkOx/Ctm278Ytf/BZ33P6AGOhGNDa14r4HH8Rdv/890ql2hLwcImFOnJJCo5RdUT1UDP4cXHvNezFm1AhUxCI455yLsWtnIzLtTWhv3YH6SePhxuUS5PPwQhXoyPFrbokg0mCwv3PcqcC4sVMxbfpsnCLXpa5+EJpbmuFG4pgx+3Rc/Z7rMHnKNPBDFl/ENoVzCI4IeRrfHC+0/HdiGllFUQYuRR+pBPmfXc0KogA5RCmXRg1ypA2O+0yvs8BvOhjojK4aUoczLjwXF151Aa54/zswckwdkmIjo8koHGk78h1548yorqtDQ1sjcoUU0vk2sdU5OLSlDU0YVjscw+vHIihERJiLUBfzXxF3UJ2sRLo1DT8biH2NYszEEZg8aTLSIthXvb4Yrc2t8BGVNCmcffrZSMbiqKyoFHtM8c+84qa7YEdrq/n2xc2FkCzEkG7rENvciERlHHWD6s1HjYnBYo8TWSRqXHRk2+UsI4hEK1A/eAR8Ed45CvFsElXR4RhWP0auheRP2y/23HFEmGd9OYbi2QpoXlVeUPn/BO1ZrOJZUfoSimf5z/ejYkAdZDMtInj3YOPWjRgzaSzykWbMf+1ZbN2/C5mwj1Ubd2DstDkYNXkKDnR04OoPvg/R2gRWbFqKdRtX4YlnnsVZIk5Xr92EZUvfwI5d+zDnjAtQO2IcXl+xUQStj2xI3uITAbbs24zZ58zGjLmz8fjTT2Pt7l2oHTwUf3nD57F2wzosXbYYy1euwPvedz3ymQg2r9uFRx56Cldc8QEMHzEd/3Pjd7BEjOzmrVvxjneci1y2DW7IRyjjIxyO48J3vgcvLViGr/79/4fnnnkZg2uGSDsRwYRRM9F8II1N67Zh395NGDp6iBj8tJSRluvhGoNdiNagPReWxiACiJHdImL7x7+4BV/7j2/i9vseQksmj/MvvQIbd+zF1/7zm3jg8Wfhu0nTBSWIivBmP2y5vGFHTGyEH+CodFYU5XhjrU6xj675EprDj5ql3abzhMKZgpqSix5pF/lwCvFB0iaE2pFCCxBrERsnS8nHjTkiThOYM3sWXn51If44/0mcctYpCFUU0NCyF0NHDkUgpjMZcZFu70B7WxaeVCUf9hCr4IfYGcSiIQkRKa3o+X5p0cvYuXOb2Okq1FUlcMqps9BBu+zlsHXbRsTiMZx97hmY//xz0j6sRyaQvJIx7Ny1HWtWrUHz/gYjduuHDRIbnBMxvwepdJucltQ36SJTyCPtZzF42Cgx8xV45bU3cP8Dj6DhQAtGjBqB5uYOKX8/8nlP2kER2nF+DJ9lD2ZzTYqCWS6X2aaINr2ejXhmMPH2cp8AaJ9nRell+HMUf2ri4x4qtKL9wCZZRpEUcRlxxYCKgdm4tQUV1SMwYngNXn9tCxYsfBWDhqSRa67GpBlTMFQE846Nu7Bq/R6sWbscU8ZWIOs5GDJyJs4/71Rs27oHydYOEdxVeOelF2B/yzZ0BA4yjU1Ytm4dasNZrNyxH2deMAtj6gbj6fnLMO3807Ft/X6s3rIF27YsxrvOmQv4NVizYx8ONO9FUozt6o3r0OHnkWprg9eRQRAriBGN4ZJL346Vr67BheefgeSgOIJwHnv3Z/D+D/0Fzr3oFKxesRXLVs9HZXwI4vnBCEV3Y9nW/eDnNG1ZHxPnXCj13YW2fL0Y/TRiuRzmzjgFESePXEcTVq9ah3/+xj/hLz7zMZx11hzEIpK/1Ov9130CZ0qjsW71BqyQl4VZsyaa2bEK/PAmaENHeyMiVWMQjY8wv6IWza+iKErfQc8yBSk77lLghfzdaG5Zhs0ZftLim88CnbxYozCFchR5sfu+I2I0H5X2IYKs2LdokERlMoKauko4IiSLbUYGhUFRDK+vR6HSx/CJg9CyuwNTTxuL2XPGoaq+Gm4hjuqhNZhz3nDs3rsNk2Xf2OlTUTEkhGHjKuFWR1Ar7UosmUPlyASSw2rQkUljyqTTkMq2oCm1G2+7+FzU1ldiwoQ67GlrwvmXnoohY+owcuIQNO3rgJdJyfEe5r5tNlJyjtnqWkx/2xwMqncwaGQt9jbsQPWIJOaePgNuwje/ONYOTSBaFUaN1J0Ok45sI6oHVWD2KdMxeFQVcuFWVA1LYMY5I+TlwJUXCTpAeCXlWrLR5HWUFw7zEsIgLyGBE0VN9gDi2cGYPOVyiZP09K6bv8Jbi3qeFeU4EJHXa98TMSpv01WDhuLUU+bg+fnPoK0xjQvOO8/0/WpsSIu4FoMbAdJi7BYteR0zZk0SA1SJjBfIvgS2b94h6RqQSaUwdPhw48l2RaAjm0MMEbxtzim4+PzTxOhORIu86ef8Wmza3Y6q2ghWL30OuUyjGNHxiDtJdLTmEI+HcNHF54nxS2Dz+g1m+LqLLrgQM6ZOx+ihwzEoUYWGXfuwc/sO7Ni/D34sLMJYTHwmg4cffBDPPvUUJk2YjNmzx6P5QKsZCSMc6cCgwXEse2MFLrroEiT5oUymHRwXOoQUkEsbYw43gtb2LKKDBiMbSGMTcdHW3IJ8Ng/fD+HZ5+ZLeBr19TU48/RT0C5GntcnnozBpUdF6npwmlYxtifoz3uKopw8dFkhMU2HWKSS93ppBkQE+hgzfhRiFRExXSK4HQdhEZVj5owWsd0OryD2O5TFmZeegWnnVMKv3IOgqgXTzxmKyIhGJMY0Yu41ozFoVhjtFQ2YeN4w5IbuQd1UBx35JgydUI/BI6vR3LoPiAfIxNtxyvnTcf4VbzMfKKbcZtRNqcYZl08GhraiPb4LbbFdeNuV0zH2lKFATQDUhjHz7Jk47e2zRVxXI+M0wB2cwdlXzsApF45BpD6FmpEh1I+pRCpoxtgpI+CFOlBd5+DUCydi6tuHI121F1UTfMy9fDxmXjgSCbHfnISF50yKwrl4reif57UhJ7o1V8+zovQifOCLb86dnudAjNL+DQjlPVQOGSGiUAyEV8CEKdORTFbhzlt/h+dfeAkXX3IhLnvXO9DenEJtfR2G1dei6UADHnj0YYwbPwwTRgwRMexj8+b9WLfqNcyYPhPnzJmNNi+FmbNGItMhgnXQaIwdOdgMUxcREduYzuGpF5Zg86bN+Pj1V2HyxHosfPolbN2+G6OGDsXcGVPR0LQXv7vzD8i2pfD3X/6SvN1Pwg9/9GNs37gV13/gfZg5dyYaRRQ/+czDOO20s2W/GHuXE8GEMWXKbDz91Hzcd+8f4Do5fOkLXxAxH0I46mH6nHGorhqM0+ZOR7bdE4E9AtUcarRmMIbWOljwwsuY9/gTWL9hHcaMGiXLnXjosfuxYMFCPP300xg1egjOO+8CPPvMC7j/obtQ8AN88pMfRW1tDB7HEg0KIpzTSHUcQKR6FKKJkeaan6gflyiKMnCgx7ToeeZ6gJC/B41Ny7AxW4DHrmRih2ijCg77DzsI+FFzKIAbiFCWfTk3j2goJnYtLypMjuHY/dJG0LOajmSRiNK++WJLI+jw0wjctOyrQMGrFrWZkPQesk5etjnUZxWibg3y2QAc7pRd2Vw3hHyQBYdBLUj+hUgIaSkzFOSkfA+5cE7y4MfrUq7UEfEC8pKfE00gn4ugZlA1ho4dZLzYQUQMt9QrEffhRl3kPDmeeRTyiCRcdKQyiHDIOX50XnClPkkpJ8qrIlExuU6OHC7HpQqIRSrBIVCLE2xJCnZt4fXkktfMbAmywhY0CEldMg2I5eowsdPzLFfmhPD66jjPitKL0CTwhzo++iIxEeY4zyvnoSIIo3riLGTSDqJOBKlcVgxjEkgXEEnyJyx5DGmMxJhlUYl8RztiMUeMlBgYMTYJMYoPPPy8CNkQPvHxd4lBjCOezSHPD+cKDVJSHKHYGKBjL7xoG8K5CgQVEbTlE4iK4Yy6jfClTMePwo9VI8Kh6rKtYhg9ZMQoR5wKJHIpMaQB2jnup5dEhdTLz7cg7yfhJDMiVB247HJBrwE8tLXl5AVgkDHYbjKOcF6Muc9RQKRx8FOIxV0xxLIMD0KhIifXggafo4ek0d7hS95ROZ79wDukfoMQcrPwOYZzOAxfXjpc/jwXrYUn6b2sI/tSqKqRq5tmQ+RKnZvRsHcdEqPORmXdaeaaF4OiKErfURzn2TG/3Yv8FHu7BBs2/Q5PtvhIx0Q0ihB08iJm+ZNjISLCNCemid02kiKkw0jFO+BkXSRFYHsioP2YiE7JT0w9cpEc+GWIw+NyYs8iIhhjKbF7SRHcNWJvcyKmZTucR1LsoplYilN6i5136WE2v3CK7XQcsb0OMiLK8/Ew8rEwEm3SxngB8pygS0QzJ88KSX6+IwI9LOJd8grnOLSd1CWaR5PY76hbJ+1GCBWRDPL5auQl/Z4DOzByxDDTvZtCNuRm4HHmQicqJ8DZCER08+VCxDvrG+FHiJ1tQ9qh80WOMf+wrZRLRBlqhqo72G0jXJDrJ0J8TPMaVLVNNpOkMH0gdZOzfss5EQS8ogx4OCJE4HGSEo6hnESyIi6iVt7EZTsc5uQiGRGLDgKf3TCyYqg4QQqQcAMxcHkRugUMHz4Ec0+dIQarQ97cO0RUZ4sGMybCVYxha3uTiNwKiU8gNHgkvMwB1MdziHrNYrezSMbHmPJCXpsYqDTCcTGUIlBjYuzdfKvUsRgfCkn5VWJsQ+2SRoS0K8aPcXF2PxGj5lYj1Q7UDK43++gBjogRDujVcFsRTcSQiIkYdloRT1SIEBcDnWkzDYqfk7pkWpCMBagbUisvEiEkEhE4YlCjklcyEsg7BMtPyvXIw81JneR6RCMwY4N62ZSUJy8c7CMYPtTTrG4ARVHeamy3Awtn1u6OMVVisymMwV/yRA26jkhWL4xkLoJCNhBbGUEyXIOKvAM3HUGikJR2QER1npOeiO3LJcXmxcUmO4hHw2YirGxesgxVIhyIbQ8nkWkNEPWT8LMx+CmRtEEV4l414n61GQY1lK9AhVeDSr8WiVyNCXvWNqNjbxpJV/a5NUg61ahk2W0+Fj+3BHu37MOSV5ego6mDU3RJXiKU82K/wzFpWyjYY8Y5E4hB9sRWh0Q4Z8SmcxIvXwR6l3DuQgS0bFvz3bUsc91OJLTbhqL0Inzw6USWf83Dz4/a2vdtkGUBFTUjxUbEZY8ITshbPr9SFoMH5OUYfoAigW/iAT+G40cUzEuMJY2I7Bs5agTqh1UikkiabiA5EZfhCMfw5AxUWRHRCTGmHeZnQL+DwwZFAXpyfQ75VoN0Tgx0KGdGzAAqxJiJoPclH0njSp5ylDFqITHI7PrBmQWDTEYEegRZTsziJ5A3sw9y6CNXqpSTNFJf3xehXY1cxx6s374VTekkhtQkkAlnEIlKvjkR4VI/X1qIiCtGOMiaibT585/vSxppQDj9i+m/LOcZichrg+kPJ3UJS8PBvs1SO07Z6kgenHlR3kRkX0pEfBMiVaPkmoyUFJLmEKOsKIrSF9BOcpETq8NuZNtxoGkRNohZ53chnOTDLTginEUVm4S0XxwVSNYoKCXKZS8N/hcSsezzV8qwiE4fHfvbsXFtC/bvasXo+olY/tIb2L6pGbWJcfAamrF1bxs2rtoh6YehoqIW2yXtth1NRsi27m7DuqXb0NSYwqARw9C6qx3rX91gugMOHzMaQWMOqxeuxO5t+5CsHQREo9j0wlZsXr0Tqf1hDK2qxP2/mY9cxsPIcWOx4pUN2Lxyp4h5D5HGNvz2F4+gfsJI1FbHMHnEODTuzmD165uQaXcwtHocWjZ0YM3mFjSs3I+c5BUbVIO82HSeuBPhZ5Ry/vy1lO2MMdW8AmzoHLkuYutFSLuSPiRRHJmkWtqSivwBuPkqTJr8ThNXHP+56LF+K+09a6EoSm8ihvGgF7T4cPOnulBBjKRHgSrCLxBRzB30HlM007BK0pCYQBrWsLyt04CYdSYTw+PKWiTuYv++ZjFueUQra9DRkQYopkVwcsihQiQqxkre/isrRFj6SHeIJM75Uq4IX6mUH46xdwhy2bAY+aRYtITpyhH2YiKko/BSLmLxIci0taB5TxPC8SozeH82iOGNF9/ALXfcj/Z83vx01rS/FYVopYjZOL7yf/4F+3btxqJlq7Bx1374WU4xXoOdexvgRTjBi4eMHJNqlmMjgxGLDZKzCclSyo/Qi8yL5spShLGIeNpGesVD7LYS0LxKg2OCXDVJWhwzNZBVHsdrbC6eoihKn0PJV4R2iDYojMC4mCkK2a2N9ov7xZaJDaOYpo033fPkGNcvdpnwvQLyvsSJeKbfhH2Vly9ZjkUvrcD0idNECG9AusFBNB/Hvbf8Ae079+CuW+/HiJrh+Ol3bsKuLdvx5EN/RKqtA0lpIVY8/wZqQ3VYv3QjNq/fiqWvrcD4unHI7evA7jXrsGXlehQ6pH3wk1j+xgo0tjfjiRefxejJE/DGilVYt2kJ6gZXY8SIeqxZuxYHdrZg/IhJWLx8JVyx0/W19YhL28LJrw7s3Yfnn1uA0UPHY+mCFVLPdmxfuh7r127GsGQtlr++Ei0HWhDkxU5LG+flM9KWpOHLC0IxBNLmcBhXCR5HoZIQFIMv14udV8I++4uHjQeb19k4SHhZzRUuCui3CvU8K0ovwkfa/AAlSrjoeW5F+771RihXVA9HwI8nOl+cjREIcU5/rvCtPCrrUVlKAqahcGQIS2InwNrVu3DPQ09j1+4dqK6sxkOPPInnF7yCZELEsJfHA/c9gxcXvo6Va7ZiVE0tXl+6DE8+sQCtzfvESFXilrvuxsaNWzBu5Hi0tOdw86234dVXl2PS2Aki0l08Pu9ZPPn0AsTCCVRW+Hjgkeex4NVXMf+5Z1A/bjZefuQZvLphA+bMmo0H73kUC8X47tq7FzXxOO66/QlUJwIkR41Csn4yopkO/Pa2O7B2wzYMH1aDlo523HzLg1i6eDkObE1h9LiJpk+3J0bTCcUQYgNi+rzxonHBRoeuGXrozWvGIfDjm5Bcu6LnmdNzj2CsHFo0rYqiKH2F+ZXOGHix83zpFzvfuH8tNudkn0s7RrtW7KbAD9zKWSV2Pyvq7aLVijAvP4/Gvc3mV8TxE4ZjySur0bCtXex3Fh3NGYysqkTV0NE485TZqK0ejI5UAyJyzMw5ExEPCnjsnueRcAejoXE/knU1qCpUYun8pVKYgwvOOx2LnluKpl05pKXZacqKMJ45AU0tLZg+dzJ27tovtjqOTAtQUxXGmDEjsP6Nbdi0fjeyTsHM/Lrw5aWYeOY0tLTsR11lHXZLXS+76HLjSOGvpaH2NEbMmIAJ1Qls3r8Tk6eMRYIjNLFfuFv81bAg1804ikoCR9zg9eC6H3blXSIhIY6onJNT2APHq8W0SfxgkL9CdjagtPY84C2y+ayFoii9CtWwUcRdSyOY7bo8dgUR0bSc/OpY/i96qmlJg85HkhHyth4UsnIUPzbJYfP6Xdi5tR1nnHE6Vq6St/rmPC6/8lrcec+DaG3J4OknX8CFF14B30li+Yo3sOiNRRgzeSpmn3Uebrn197jm3e9BeybACy8sxssvzcfQIaPxtnPfhU1bN2Pt5g1YvmMXLv7Q9fjZ3Xdiy77tWLJkOaafOhdjRw/Bo0+/hNkzp2PS7FkIReJobMviksuvwZJlK9HW3Iz6yiE487RzsXnXLuxobsDT81/CWWdegGFDJ+DJZ17ADv4Uua0RV197FZ554nVsW7NNGh8xqGI0C549Z14IEc0S6KngRyQB1+WydA+KoihvFeYXLwN/E2M3M06hGoPji1AUA2UcpcZDIit0KZcJ/LUtLKLU4fCkYgJ9OgxkvT2XQjbUgXDCR1VNHOeeex7eddFVuPgd16A6OQp7d6ck2wS2bd0totqBRw+22MlotAIjhk/BeW+/Cte952OYOvk0TBw/Bx947yeQiNdj9fINGDd2JqbPOBuXXv5BvP3sdyGUdZFpS6MqnkAhXUB1ZDDSjW0YFKvCpkXrMLluHC4+/R2I+xXmY0VPzq8AjsgRRzw5BK5bie0796GpOQtPzj8v7VfYjcrSRybdKieVR8j34NDOy6XI+z51/JuDnD+7J7JHRsDRSiQ9PwssuPniCwjd+OwCY+D167yu5u9gLvZxp7PVUhSl9yh9qLs95KZ7Bscojso2vcwMYhTE4HLIowLyRjgyrZl6WgQm4zjFa0yOGTFoPEYMHYTd2zZh5Rur8Ltbfo/mxnYzDeukseMwbHAd5syZgT/+8S7UDU9i7ORRUl4W23ZuwO2/vxlLl72B5v37MXvGaBHja/DQ/Q+gpXEHVi17Da8ufhU/v/XXyOQ7kOrYi3gkhNHjhmLU0ATSuRwGVbliMB24joedu7bhN7f8Gq2tDaiMBaiOxhBzY2a0jkDSNLQ2YeSwMZgyfpoY+yaxNLUYKYZ91Oi45JNE1OU5d8i1Scv5ZWW/vCSEUhIyEseuLbxOnFCgQmymrHcPtLaKoihvAbTmRYenyGgj5Iq/lPHj5hD7xRnnR0QseuevaeaIQ4Mn6ThSB5c+Q5BHXpZVIwehZuRgeFEPU0+dgDfWvIS7HrkLe1r3Ief4OJBqwe/vuxUV9S6mvW0a4mKfg6SI8Wpg4txR+MMfb8P9T9+FjnATtjdtkPW7sS+1DXWThqJ6fAUWbXkRv3/4Z2hq3yGCNYth9ZWIRnIYNqIeaS+LqaeMx/qdG+HWJrBs3UKs3vAiqgZL/rE8Zkh9Nu9Yi0H11Rg0pBrjp4zEo0/dh0ysDVPOHG8mZUlFxY5XF1A3ZggCeafIu/TTs4tGgEjIhS9iulzgaB0+27uAo0KlkJB2KM5vYkSAuz6vIYW7XDvzZsJAbNvK5fFFWyBF6VXsQ026PeRmVYwAX7X5Fi1iOBROipDml9EUhCIa+TWyecuW/7uCHBsOEPYLcDl8UaoVY0cMxbSJk/He97wXQwePMF9nN+3Zi2y6BRs3rMCcuRORzjbJW3sO0QoXQ0fU4oorL8RZZ56G4fV12LJxGS6+4Gy8+91XYPd6ST92OOZMGI/PfvQjGJKMoDaUA8SAuWLAYw5FLYdm6kAkVsCWTWuQam/Ge665AoV8SurVgUImLQbYgZNwkQnS7IWCPXt2Y9+OPaiprJN2JSGGWsRwuAV+vl0MD18IZBnmsEoimMNpOW8GKZfdVIw7QiyvXB9J9OYg10VRFOWtgF0x2P2g6IH2xCYVHQAc9s18VGISiQ0LYrJCY2XbgoPB2HlZ0llCz7Pjyj8RYPzMSZg8ZwY8p2Bm/bvgstPx7o9chDlvnwAv0Y7xs+tx+QfPw4XXnGYmLDn/qjMxaFwCflULzrp0It798XPwnr84F9VjsphyVh0ued8peNf7T0NoWAaDZrg4/31TcPmH54gwr0VFdRpvf9ds5GKNmHneJAyfVY9xZ4/CrCtOwfCzRuI9X7gIb5f05753OpyRGbz/w+/AO945Gxdffjpq6ws45YyRuOq9Z+GCa2ahI7oL40+rx6hZtYgNCTDljGlwa5LISdvB8a75QXjBkysn59090BnCj8O5HpH0MbmOlX4aSRHOUd9HJJA0nU3oQa9/T8vjg47zrCi9iXkB5ijIAbJiDGKBCMgVT6JahGLF8OnmI72CE8DJRxDy2cfZl/RiRE1fhM4gjyRHiS56M4oeDXZpeOnFN7B3Vwfec+1VaG7dg9/d9gc8Mu9lfOpzH8ZZs+fixv/8BZpFyNZNHI2f3/h/8NBD92PC5CmYM/t07Ni+H1/84t9h3OTJ+Pev/jOyYon++T/+DR2Nzfjnv/lrnHHO6fjBr3+He+9/Al++4Xqcd/oQPP7Iclz+kfPxxoaN2LcnhgvPOhv/9i9fxDUfvh63/ep2DKsfjInjB+O9770IK15eg+UrVmL01OGYMmsqRo+ahhv//ftIxirw/33t00g1D8GChfNw/SfejVt+/iSuuPx8TJwxGn6uBY4jZ+uF4FA0l/Eg8Gq+GU4g0Iq9O9aiYuR5SAw6y3yUQ4+1oihK35ITSxWFaEERe+1A61JsWfMktux9TWS132m/87IUW8+PAWnXu+GLUOwOR5zw+cuk5GuPElkJfi6eSRewbWsDOrIZTJk6EtGkh7DxyB4KB0DiyEScjMUXc8iP7dgjsOBkkc9kpb4OEpEofFnPZXOIDErA8zyxw3whkGPlOE6cIhbW1IP5uYyXEM7zF9NDYdPlM4FBCmTfC8E3I0mJWO7MQ94FzLofSpv9h8KdvtSTH7Wb1xGz7ko9Uh1VqEiehQvf+QXJZChzNE6ltxoVz4rSm5iniR0wgLw84VF/Jw6segyRfICKoZPgx+MIuXlj9MIBh62TA0qFM2OcmCxkncLZimhJlxer4nti9AIPbqSANIejSw4Vw9aEzatX4w93PIcv/t8vISRv+3FOg00zE48hn+bYmgnk80DMySCa9ZF3xEAlomIM+VYfLXYRibgIJP+II+UV9okhTQDJdhHaDgrZeuSaW1FRVUAuJC8AHicpiUq+ORRyjYi7HAovjXBlCJF4FNmU1D9chVCQFYN3QIz/WGRzBxCJZcVo15mfCSUT42A2DVEhb+pRvBbdKGeiRPyHCgewa/s61Ey8CPFBc2m2TwijqijKACeg0HOQpShEu8joA8h27EZ7Tmxtp82m/KQzIIwKWbL7xqGUE178EJrOgi6xbRwpkp0RpRERuS58iYvG2BGCv+DRs30o9NBSPPNAI5oZJJ4fqxeHA2WdZSF1jUZj6JA2wHFcYzs5AobrcHIuetOLZRvxywyYpWmLumGyZIvH1OYIxkrZjCse37WUwAmu3oycsdTP1LVT7PNoF63wcpz/YDCGDJ8uhzNveu3L5XF8UfGsKL0IP3AzBioomk4nvxn7Vz2CcPMmxCpHIs9vS8Ktst9HVASta4ZmIzQKRaMT8igs+VjSCtKEFB9RL8ijra0DQ4YMRVNTo5neu61Nkjg5EeMe1q1qwKzTZyJVyGJ4NEAuI0ZdhKzPIZL8CNo6Msgn2lEpJsmpSKDNzyEu1irgrFIReZv32iH6F/HKKuTCHSJsHXTk9ksBLsK5GlSIwfLyzUjUD0d7Wx5OQIMbQjbTZhqSitpqtOVbEUsmEOTDyLb7qEi1oGqQXItsFVLpZlRWucimI5JGzotiWY535GWiIGI/H66RZRmjWHhznBeOIyMvIG0dHRg++52I1szihYUr11RRFKVPoX9BFChtvCcv/yJrxXpTNhftT4mElP/oImHMoRhB2g1j9TuT2jzYFNBJzQ/Lidlv0tA/+2bbaFqSzrwpRm0LIroYjuzMS/NC8cxZt6XZQNBZEfNRnyxN09N5HPNiUWYp8WUc3W+mmJ0pm5jjO+NMHsysG0xjBL0ElstXCK4Xve7FeprPZAp5Ec5yAuaF5K1FxbOi9CK+PPIOHymxcJ5YDzfUgOzexcimNokYrRUB7InRFcVbCMQgxmXRaRFpPoy1CYmh4U9jnZbHWiIhJEaOXgn2GwskTSziiJgNIxcUZ92Loh6RmI9ULmVm/CuEPDGQYtAlX0fEZjYvZpy2Niu1dCX/mAtX4oz3JO7D8VJS9wRyIkI5nWwEcXh+WvKIGSHMbhHJeEhEbt54MRw2GX5BzosfckgmUoe0CHzOLBVzpRGRliUBUeNSj0DEuyvWzxfBzqGdwmaK1pgYcv606cGNFpDz2fCUsaxspbrhybF+ISZFhlEzehoKyaHyMhKRo+3LiKIoSh8hNq4o9ERwiimlzaO32HRvKKY4aLrFpB204gcx3uEysLsFRWZxo2RpTaMUUCxdyuzsIvEmbLNiYR3FIHuebyah2rVzJ375y5vR0dGOv/qrGzBp8kQRqEUPtMldTop9kLvOpZNyLwGE/qIuyp9WEVP3N1Mct996tVl+cS0nrQydUbweYUkTFhUeSBvD2RPfalQ8K0ovwqeJE6DQSPDBd8IenKAJeVQXRTE1JqcplbT8SPDN0IzwgxM+lrRI1ioxnoKYwxRFZC8nU/EkTxGvZixRzlIoZSArQjUrJSeLDttA3tJZjvlJzIUvdXNFWAciZDNyfNR4a10URCSHTZ9jeaP3xUw5aaQyeVQkOWthp8ELUajnkOBPZlItz/dE0LtizAqSR9FXEBh1zheAopkt9lfmjFKyj0I7HJV6BKbHYNfZMX8xkK6kKxbUnTKRcqBxmMilCuQlIisRcdkOvVlnK4qi9CoF82Gg2E2PQ7PRQonx4Qff/PjZQNturJtAw9S5WkoZs9YzxbaCo3MYL7Ss2xkLe4LthSma4lP+Yx05kVYqlcLXv/5vuOAdF6C2dhDuuv0e/Mu//gvGjhlbPK7ArhvMmaUUsVVlPm+GhRxMIca8uOw6qoiJFsrlUIxlO1XcsgQ8R6PMpT0xS2nH2LacAN+2qHhWlF6ET5MRz/KG7FGsSlzUmDERvSJ4w/SihjwRsSIewxGJswbqoLHllNzF9RIDwadURCpcCmvJo3PiEDMIUNgx/aDDUh57efCnOaZncv7M5bhi5FkSbamULamkVDGkUgQ/5GBafg1Nb3lBQnt7G+5/8D4sWvgyvvjFv8a4sWORrK6Ax6/CpQxXjjF2TA7htN2uG5NV9vGTLORfY6o56QlrJ0a1IHWlQ4OmxpNC+XNh0dbKPlkp9ueT/5nBEcIrRFgX/gzoi4qO8gTDb+4DqCiK0pvkRSRHQmJrPDGEtIUhjkcvdj5U/OXLRHGlaAbLYsVkKYxjcnu8TcJ2pXSfmVNKVuz+UmxxBWkAuN9hQsmAtn3ZypW486778Pa3vx0XXXI+olEXL85/CY899jiuvfZanH32GXCciBlzudhVRI6zdlnyoWukOyzPdCWxdFaAUfYcGWVDhG1ON8y+Evtf2s2jCG17sQ3jKCWlxb1VqHhWlJMIPu58g+fkLKT4Ng/kcjkxpFHs3r0bP/3pTzFy5EhMmzYN8+fPx9y5c3HVVVeJUbVv/SJ3O73mXLd5KIqiKG8ttNGc/po22q6TBx98ECtWrMAll1yCc845x8RFIvwI0cMrr7yCF198ERMnTsTVV1+NeDwO1+WYzMV8LGrrD6LTcyvKSYZ9Xy41ijSUmzZtwq9+9StjQD/ykY9g3LhxGDFiBO6//360t7dj6tSpxthSeDO9Fc5WUCuKoihvLdYW0y4z0F4/9thjuOuuu/DpT3/aOEMSiYRxhljGjx+PYcOG4b777kNHR4ex/RTQbCMorq2dL20zTnbU86woJxHWoNp1QsO4d+9e3HTTTTjjjDNwzTXXmHgaVxrOAwcO4Gc/+xkGDx6MG264wQhoeqpLBTSxS0VRFOWtwdp4eo3T6TSeeOIJLFy4EPSTVlRUGNttf0W0zhCKYsZnMhl861vfMmL6gx/8IKqrq7v2q50/FBXPinISYX+Gs902uHzttdeMcP7Upz6Fiy++2MTTQFqvAw1tQ0MDbr75ZuONoFeaQpri2e4v9WIoiqIofU9P8o1CmML5zjvvxNatW/G3f/u3qK2tNR5nHlMqgLPZrBHRhPGtra3G1re1teEv//IvMWrUKOTzebOPdt4eW5rHyYiKZ0U5yaBgpuGjcX311Vfx9NNP413vehfOPvtsI5gpimkWGLjNwLQMP//5z5FMJs3HJaNHjzb7LKXriqIoSt9STr4xbseOHXj88cfN+nvf+14MGjToEPFrnR6lAti2C2Tfvn1d3fXe8573YNKkSca+2/KsrS89/mRDxbOiDFDoZaaBtEbRGjrG05Pw8MMPmw8Cv/CFL2D69OlmP/dRPFtoHhjHPBhodJ955hk88MAD+NrXvmb6xjF96XHdy1MURVF6H9pn2lnaXApa2mF+u/LLX/7SdMG7/PLLUVlZ2SWUbXouGXgc9/E4K4itSKb3+qmnnjLhE5/4BGbPnt3lWOlu30vXTxZUPCvKAMYaOvuYWxF86623YteuXUY40ytBSg0i09OIUiwzjgaWcTSyXK5fvx7f/va38ZWvfAVTpkxBLBYzgpzprPEtzU9RFEXpXWhnaXcpamnXN27caITzeeedhyuuuMLYX9pm2m2uW5tuxXSpfWZe1m7bNMybHmyGv/qrv8Kpp55q8uLITEzDMrl+MqLiWVEGKNYYEho5GsX9+/fjjjvuMNvsu8wh6ex+a1jZ/63UE1FqImw6xi1YsAAPPfQQLrjgAtPtg0aU+61hJjYPRVEUpXehHbZid8mSJeajwJkzZ+Kyyy4zdtj+KmjtMG00BTD32Y8FeTz3v/7666afs/Uusy8007Gf9EsvvWSGsvvyl7+MCy+80Bxjy+byZLTzKp4VZQBiH2saN2sg2Y+NQ9E1Njbiv/7rv4yRtIbTYtNao8glf76zngZu06A2NzebnwPZZ/q2227D+973PvOxIfMk1hvC9IqiKErvQxtNm01uueUWzJs3z3yTQvtLu87RM2iv6X3mOm3yf/7nf2LChAnGNlsPM/s2f/SjHzV2ntukqqrKDFtH8c04lnXuuefis5/9rBHU1tafrDZexbOiDEDsY20NJH/Ou/HGG81YnhdddJGJt4KYRpDpuc2+z/X19V0G0XqSly9fboasowG2nmnCJUX57bffjve///1dwxtZY3uyGlZFUZS+hjaWgQ4Oa/OtA4RL6xixApjD1p155pnmF0fa/lKnyFe/+lX8/d//PYYMGdJl35kn82BeFORMTyFu2wwey/1WcJ9MqHhWlAEIjZ81nDR8a9asMcPR1dTUGI8xPQo0gAw0nAycXZBfVl966aXmOGuACY0qDTT7R9Ng8uc9GmDGMR090bNmzTJfdtfV1Zm4k9GgKoqiHC8o36yIpc3nUKL2l0LGsw2g6KXDg9v0TNNOc/Ira/vt8f/wD/+Af/7nfzbOE4sV4NxPe27bFXscse3MyYaKZ0U5ybEGkoaV5sB+aGKhwfz6179ufq6zP/cpiqIo/Qt++DdnzhwzdnN3O87+0nSS8JfDnmx8T3LxZGwTTs5XBkVRurCGj94F62kuNZLcfzIaR0VRlJMFOkms/Vf+NCqeFeUkh8KYYrkn46nCWVEUZeBi7X9PnmWLdaR0DycjKp4VRTFYw1lqDBl3MhtIRVGUk4Fy9l/pGRXPiqIYg9n9Q5ByqGFVFEUZOFgHCVH7fuSoeFYU5RADSkpFdGlXjsMJa0VRFOXEhLbbhnLQ5ts2QO38n0bFs6Kc5NBQlhrO7jDeDjunH5QoiqL0P6wdpw23/ZutSOZwdqWCuae2QDmIimdFOcmxhtLOSsXtUkHNYAfhP1nH9FQURenP0H5b0Uw7znVOekUxTRvPOHWOHDnaEirKSY71OHBgfWKFM5c0plyWDqivKIqi9C9ov+kgee2117BgwQIsXLgQy5Ytw5IlS/Dyyy8jnU4bQa0cGSqeFeUkh0aVIpneZWs8OeazFdGES+5Tz7OiKEr/g/Z87NixaGxsxBtvvIGlS5di0aJFeO6557Bt2zYzORZnkGU6dZL8aXSGQUU5ybEm4M477zQeiGnTpnX1ceY+Cmt6Kv793/8dkyZN6hLUiqIoSv+Attw6R/hLIqEnmuvcZ9sB2nd1kvxpVDwrSj+m1OBZw0jhy3Uu6UG2QtjGMa3t52bjaUBXrFhhRHJVVZXxQjPQuMZiMQwfPhznnXceKisru/IohfWwedqgKAMJPksUFeXub9773MdnJhKJmG0+J3wubFo+Z6WihPH2+S1NR+y6fa7sM3ws2DJKl72V90CF1+irX/2q6dLAv102mzVL+/dmsH9XG1eO0r/t4WB5fYX9m3dfL4VxR1rXUv6cY44EXlNi8+e9yjgbXwrj+IzefPPNJr09x76qm4pn5Zjpq5tTUZS3Bm0WDoXXgyLJNspWLDHeimTCfUxn44l9geU+xnPJOC6tB5DYdHbZkxD7c2G+rDPFPWH5yuGh8+CLX/wiPv/5z5u/Cb8L4ZJ/R15LXkO7ZDzXu2PvjSOlr/4uPdWjN8o72nM8Uni9U6mUceDwb8Hry7hy13nfvn2466678P3vfx/xeLwztu9Q8awcM3z49DY6cbCNb6mni3+j0saf8G/G/aV/Py7t/lJsWmXgU3o/KEXYWHNkAjbKvDZ8vmw8nwv7zNEzycadcXbfiQLrTc84hYhyZNBmUjj/6Ec/6hJk1hby72uvJ9OVvggpvQOvcWl7ZdfLtVG7du3Ct7/9bdx4443mb2XtWLm0vYG2hooywKARp8HgkkaewW7zY5GNGzeioaHBGJbW1lazvWfPnq5tpu0eTiQRoCjHG35QxYaczwjX16xZg7a2NhNH7DPHRts+KyfaM8P6qXA+OqwTgt02SuHLEv++3V+mlN7FPkO8xvQ8c2m3uwfb1ZD3uU1j1/sC9TwrxwxvUL2NFGVgoM+zohzkk5/8JP73f//XfO9hnws+IxTVVlzT62n7unfnaAVcXz17PdWjN8o72nM8Umy+vK58YeE2v78p5+XnS+03v/lNfO9730MikTDnxdBXL7EqnpVjhje03kaKMjDQ51lRivA5+PSnP42f/OQnqKio6IwtxlOUUTg3NTXh2muvNb/a2bHySznaZ6mvhGhP9Tia8o63XSjttsFfTXbu3IlHHnkEp556qokrZevWrfjv//5v86JD+GLD+vbV9VTxrBwz2tgqysBBn2dFOcinPvUp3HTTTUgmk11irPT5aGlpwSc+8QncfvvtXX1t/3xvZ4AC8qJSIxJcKjTJz2c0crKOcAjRHNOF4EmScCGPUBCGI2kLTgjZggdHynZkP2E9GVifQqH4zQt76xbPg+KSnvJiGolgPwn4gQ8nFGaRUlzxg0g3LOklSUGOYfrAD0wa5hfIC0RB6sUymNZ644tl9Q72RYX9mT/+8Y9j/PjxJr60jC1btpg+z/Q8U2gXz7H36tCdE6tTlnJE2AfiaEJ3GFfuJ6be4nBlHy3l8uE2698b+SuKoijKkUJRZgPbIPbHZeA2hV735ZGHkIhfVwSoBNHOjghiiRYR64ggdkSwuQi7UqZDwSoSORxF2BEVLXGBiOOYG5G0xbxYNoWszZvbxfrYeOZf3MduEIyzx/gijiMS78i2K2kMnXkEcr5MzyUJdZZRzLsockvLPZZg62yx7f6JQJ+IZ57g8RQ1pWUda9ndj+2eX2/+4ZivFYClZdjt0rhS7A11NKGnvPqK0vof77IVpTu8B/ms2eeNBr63jXDpPa8oysCl+3PONrac4LPLI4fpS4/h2P0+/GwKqVQGhUDsWCEnFcijta0VGa8Ar0BvdcnISp3HW/vGOnCd+2n3CJc8Bd8vnodN63l5s8+NFPsU+3kP+UwW2VwOrZmU8UZLRkY4O66DghQVBEUvM4/j0tajN2B+9hpa+3qi2Ng+Ec/EnvDxoLSs0ov959D92O7bfXVjHEudj4Ry+fdlmdaIkL4oh3n2Zf2VgYW9X+w9U3p/9hal+Xc39H+O0S/NozRYum8rinJ8sc8f+zrbLhvd7Yp9To8omCPs8dwW4VzI4rlXX8I/f+NG7DvQLPEenpn3CP7yo3+BrTsPiDFz4AeeHCbCmBlIsCKZH9nZvCmQ6RHO5fJmH9PQs92V1pe0smT9KY5NLfwATzz6OH5zyy347R2/QzafZawR0Z1FISS21I4+wnIIy+o6p2MI3ekp/q2gT8Rz95unv8Pz6as/WrmH7XhwPMrt6zKOxzkoAwd7v5SGvqI38u5e1+55lotTFKXvsc8dl9QFVix2fx5t3BEHI1lL86BX2YNTk8CrK1Zg3cYdKHh5bFyxHK8+Mx+RWBx5Kbu5tQl79+5GKpVGqiPdNWQbh1NkHShs2a2E/bP5gWNjY5OI5gDpdMbEcYIR9mNmyV7eM0OatrS0mX7OWzduxt59e5HK54yobmxuwv6G/WiQNMw7m8uacphPe3u7qfVRn3cPoTs9xb8V9JnneaBxPP9otqwT5SZ5q9FrofQ32HgQe9/21j2sz4GivPXY55v0/q9YzLvoRQ4VJO9C2gjjsbNPweoNa5Ftz2Lc4MGYNeMUNDe3YOmKRfj1r2/Dj79/K+743T1Y+OoLuPe+P2Dz5u144IHHJY0I2lAg+WXw61/9HLf+9rf4wXe/j22bN6Pg+/jZr27Bj777cyx49mm44VY8NO8h3PTzH+M/vvMdbG9MIxYJIxHOw0tWYOP+nfj+D76Pn/7oR/ju976NjZs2YP/e/fj+D3+KX/3mN/j+97+DVLuIbvmvu/f5WOE17p5Pb+X956DiWVEUpZfpLbGsKMqJR/dnu6dn/ehtANOLICz2LhZEohXyqE4mUF1Xjx07t2Lbzj0YXFOLfU3NqKhIYPKksbjhc5/HRz/8WWzesgNnn3MGXl74Ej7z2c/htNPOQFVVDdo7REAXsuhob8EH3vc+XH3lVdi8aROeffZZjJ88Af/8D/+CV198Hnt2b8SipYtw/cc+grGTJuO+efOR6Ugh29aMLbv2os3LyMtCCP/0j/+IwXV1WLpsKdatXouLLn4X/uqGzyOV7oBf8MxHi6HCQbF7LLawVBx3z++tEs5ExbOiKIqiKMoxQCHXO2KuKKAN/CIPUdHPBVS4YYweVo///cWvEBXxHK1MIJ/rwC2/+i2+/93v4pnn5mH37h0ibl3MnXsaBg+uQyIRM0I8Gokh57FfNFBRWYloPGamm+eQbhWJJKIJIOv5aG/Pw8t5iLkuhtQNgp8V0e2EzIganJsy6UaNaPYLARKVFaa/dMGXfIOcnHuAyopqKcKREgM5pvjx4LEI58PBfPsq7yNBxbOiKIqiKMpRYsVyqWg+VgFdPJz/SChweLo4qhNVqHIdzJgwHus2b0Xl0OHIF3yR1T4O7GtAbU01qqpFIPtpvPLq6zhwoAEf+cgH8NKC55HPZxER8eyIIG5tbcPCV17Biy+9hEHs+jFrFtavWY1HHnsUdZLnqFGTMGLoMCx67XW8+MzTOGXWNI5nh4II8kSogKhXQMxxi9PRRxzU1NRg7OiRWL3yDbz+2qvYvHkbAlZbTsKO4NFbMM/SQEo90DbueKHiWVEURVEU5c/AijYue0MwcvKSUn9qKJTAxHGT8J7LLsEZp8zEf33rfzBq6gz8243/jvq6anzuszdg0vgJOP302bjhrz6HispqfOxjH8fV774cp59xCrK5lAjaAF7gISwCvLW9DZOnTsGpp81F3ZDBeNuZp0maDnz4o9cjUVGHD33wQ6hKVuB911yDiy84HVdf+x68/wMfwgeuuRrDawfjgnPPY6Vw1tnnGPE9qFYE9JhhyKRTGD9+IvJegECEdijcO17hcqKY17mnjzSPFyqeFUVRFEVRjoKePJ2M72nfn6TrMK5IMLowipEjR2H21KmoEaE6c84MRBNxEcdXYnBtNcaPHY9r3nMtZsyehreddSbmnjoX9fX1cN0wZs6ahurqaqlP0UtbN3gw3vnOd+KKKy43w+u5josL3n4OPvSRD6BmUB0KgYuRw0bikosuknChEYjjJ03CzNmnYs60aaitqMKc2bMRjcUwefIUjBg2HB3t7Xh+/tO4+847MXz4SFRWVZrac6bC0o8GexN2Fyl9UXkrunCoeFYURVEURTlKrDCkmONYxxwOjksb7MyDRxy8vBlmLpcLI5f3kfNk3fONNzcelvw8wJX9QeDAMWUC6WwOWZ+zG4YRpodZtsOIIFSIIMiLoBSNmc9mZV8tPvfZvxExXSP1Zf3yRoDmcoGU7Rux6+Vz8DJSD9+VbRG+TBcUJE0ITqbo8eWkLL7UtUJKKcj28IkT8Dd/9zX823/8Jz784fexizRCfgGB1Nlelz/rWnQGXg8uWXZx9kO/KPzZdeQt8jqTkPzhe/eVQDnp4A2st5GiDAz0eVaUg3zqU5/CTTfdhGQyaZ6L0ueD6wcOHMAXvvAFTJw4EYlEwgg8xjOUekePBVumzY8f4rEcblNMcn/ptq0Dt5mWcZFIxIhQK0A5JjM91FkKa0nD/ClymY7H2XO1H/0xeCLmbdqD1yAs6YtjSRNb1qFpivVn4PqRwvTMiwKa+S9atAjf+ta3MHXq1M4UB9myZQu+/e1v43vf+575EPJoyzpaVDwrx4x9MBRF6f/o86woByknnq0o5TbD5s2bjTClcLRik9j9R0NPgq+7oGWg2C2HrYNNz2NLj6dw/td//Vdcf/31OO2004wX1+ZXKnwZR3gMg2883AfPjVA8d64aGE+BbvPonv5oYPn2WjMfjhBC4cyXlO6oeFb6HbxB9TZSlIGBPs+KcpCePM92vVRIc5uhlKN5lrofa2EZpDR/W153upfHNIxjHtbr/Mwzz+CGG27AmWeeiV/96leoqqrqOs6mL5c3+4CUK79QOPS8uc/uL03fc749w/ryGHuN6Sk/EcSz9nlWFEVRFEU5QqwoLBV1drs7pWn/VOgJlmG9rxauUxB3D3ZfaZ5c8njup/j8+c9/jp07dxoRza4QpULTilVi8ygNFrsuh5rji+sHu5aUS2/P4UgDKe3bzLzLCee3AhXPiqIoiqIoR4EVilY4WoHH7dJwtHQ/3ubRfZtQjFpKxXVpWpve7luyZAnmz59v1lOpFO68806z5Ln0JHwJ82HfZovNm+lsPbjdvR6ldN/+UzAf1snmV3q+bzUqnhVFURRFUY4CCrnSYKHQKw1HS/fjbR7dt4kVrwylwrQ0LQOhCN27dy9+85vfYNKkSRg/fjze85734I033sC6deu6RsRgeiuiS2F8OOzIGs+VApkfJXL7YH3KXYdSum8fCczT5lWa/1uNimdFURRFUZQBTltbG+rq6vCjH/0I559/vum+8aUvfQkdHR1mv/3QT/nTqHhWFEVRFEXpZ1iPbPfQE/Q2/9u//Rvmzp1rRtWIx+P48Ic/jHPOOceIZopnhsPloRRR8awoiqIoijKAoSCmMGbXB34UyMDuGRTRDByhwnaRUP40Kp4VRVGU4wq9XN2Doih9D2fnK/Uw89mzQpqw77MK6D+Nimel17AN4H/9139h27ZtZl0bRkVRSmETHUjbXOCYsYVWaai1sVb6H7Zd45LCk7PgcXmit3dWHFM8UzRbIW0/xuPQcCcSVkPYa8tgxb7dfitQ8az0GrYB/NrXvoaxY8eadcZpw6goCmEz1xXY6IVrZC0iQVH6DxRvbNfsksKTHt2jae+s8OuLUA5bT4pjm84K5tJjejqe2OP6IpTDxtu6l17fwx13PFDxrCiKohxXXITghE8sD5eiHCn01FrhxiVFtBVzRxr6knLlMRCKUHpt6YHmeZSj3LEMfUm58qxQZn1tsPGlQvqtQMWzoiiKclxgU1e+uVaU/oMVd1ZEWyFX6h09UYOtL0fa4OQo3fefSKEUK/pJ9/08p+NNSAo9/qUqAwrexHobKcrAQJ9nRTnIpz71Kdx0001IJpNdwpMizgo4CtCf/OQnZrQKenOZxj4/3N+X9JR/T8+vjafonzdvHt7xjncYEX2iwvpSNHNJ734mk8HnP/95DB06tDPFQbZs2YLvfOc7+N73vmf+FjymL6+/imflmOENqreRogwM9HlWlIMcTjxzRj6KZ6a58cYbkUgkuroWkMM9S9x3rBztc8r0DNZDTjFaTjz3ZZ3LcbjyeI05lB7T/OIXv8DnPvc5TJkypTPFwWNVPCv9Dt6gehspysBAn2dFOUg58VxKc3MzPvnJT+KOO+4waboT+PJMhQvGK53LuIglsnCcA8iHKhApJBEKopKAI9BQ2AYImymvKQptF4WDz6Itn0sGpi2E0ygECfjIwQlHEXiBLCVtIOkCScNPCwo+ZM2I5u75cMm6WYFK8e/JMuoyL9n2AwSOxw8V4EpdC8gjKOThOhSokDqIEJe6el4ejhxTKEi+LETqzTh+oMg09oWDZfhSt3BBzjMk+Uq983kpP1pl9kvtkPdypj48joUwnp7n//zP/8THP/5xTJ48mSUcAsXzt7/97eMmnrXPs6IoiqIoSh9A/RYEeZGEHuKirQuBK+KzWvQyR5kpikOL6M4uKHSpdUs92bYLgxWFFNaBb7fDyHlZSUPR7Jng+TkjgPN5EeWdwplpuc58bVzph4Pc70gegQhuSSTi10HEZV15HAW91CsUM2kpdBkfiHh2RewaWJfi/10je3C/yH0TGbD+JmHRAx5IPW19KJC5jEVjRrQX0xXpSyH856DiWVEURVEUpQ/wgowIRg+iQdHUtB8dHSlk0/TQ0ovriODNGWFZMKKT3SkoFDkec84cT4FM4WgFdDqdNtsUvBS44VAE7W15EZoUuSLMRd86sgyJ0A2FfCNqPe/Q4fUoUK1g5jbzZmAXCUJN7bAMqXQ2lUVba0rykP1+Br4XQluLpCtQREtCqZYV4T7d7EIgcczPz8t5hx0RmpKXpOXSeKrl/DpPx3R7yWaz5ryM11rimc+JNt50d1Q8K4qiKIqi9AGOU+yy8fi8p3DHHbfj0ccexre++T1s3rxbRKzIZzcswrnoXeY2u2uYLhAOvcwUtsV9FKhc2u4jFL30BDc0NOPmX9yNjnY5zqcQ98zx7Fqx4OUXsWP7Djz0wDwjUq232YroYv2Kk6QQdpUggS9qW8r2pd5/fHweHn/0cRGLHFkkj1cXLsVvfn0Hcp1C22O3DsmX3uWw5OOxvp3imGNfB53lkOI6zxFmUpl8PoeXX16IW265Bb/4xc1Yu3at5CXnTPV9gqPiWVEURVEUpQ8Ih3y0tXZg/jOv4tpr34/3f+BanPG2WXj+hVeQ8wJk82m0tTUj6+WMxzaV6kA6nUJzc5Pp5pDJZpCVQAHO/tUUzq2trWhvb0c62y4iOMCBhjbTHaS1rUm2RThLXN7L4umnnzDpLjj/YhHNjhG5zKOjo8PkQ08z86KwZjqKanqB/3/2zgPQkqJK/9/t7ptejpNzYAhDzjmoIKBrXFxWBUFF17Ciu667f901r2taMa5iQAQVSRKEAUTiECbB5Jxzevm9Gzv8z1f31Zs7j5lhgAlvZs5vKDpVVVf3u33q69MVcrkM1q1bLaePsL2lBRs3bDKeY74IdHRksH1rlwhtDy2tLZK2iEwuSwc0uqTsMYnHvOhN5/l4rs6ODiPWee6sxKVwrqhI8PJw5pln4KMf/TDGjRuLGTOmm3tGr7MV9wMVFc+KoiiKoihvAArPXRFGGazetAbFigY0jxghAtTH297+Zlz1nndh2osv4Bvf+jZ++oOf4EffvwmLlyzFZz/5afz617/E92/6Ee659y784fbfY72kX7VmJW7+5S8xc9Y03HLLr/CH3/8Bv/rlr9De2S1CGdi2dj3+52vfNcL7K//1ZUydNh0rlizB/Bkz8cc77xIRHmDq08/hez+4CTfJuZ6eOhWt21vwr//6Ofzspz/Ht7/z31i9dhGeePJv+PnPfoavfve7eO7luUiGDgIRyiKFRTAG8n+2e05i6aJluP13v8PNv7oZP/rhj/H000/h3rvvQWtLG26/7TZs27geP5Vr+NXNv8L3/vdbmDVrBv7ls/+Fm37wU6xdt4Z3RgR8DHV1jVi2bIWkfxYnnHCi3B8P3SK4d3c/BwoqnhVFURRFUfYSem3t0obdiT0nyqMr6kBnVQpdbI8sojEWuqh0QixcvAjDx07Ev37iX7HopQXY3NqOwXWD8OGP3IATTz8L8xbNwzETJ+CFWc+DDTLOvuA8PDP1b5h8/NH4yIc/jm2bOtHe3QM3mUQq7yPfEcKNxYFiDPXDRuOEo4/DeSeeiHh1NboyOaxdvhb/8P5r8a63vRsr121EFMRw7HFH45Of+hSqamLozqxDodCD9k2bsVnE9sz121Dhx5FNeCKb6QnOA14ePvVzEKK7oxur16/ByuXrcOKJx6G9dbuUaRuGNA1GT+sW3H/XPVi1cjVmz5+G2XPnoJCtxWVveTeOkmsqjbQBZKVcI0YOx+WXvxW/+91t6JSXgYo0Ry1R8awoiqIoinLkEVVizLBR8Lo2onv9OtO8Ytq01bj73rsQ5AsosllGIY+qqio4bHJcVY1YogJRrBOuG8fkE47C36bOwSNPTMPIseOREhEehSFy3QUkE00Ii77I6h54FewQGKHY48P1k0i7SXjJBFozPcj5McSTASqqPDhOhEwmazoahr6I+IoqZLLtSCRDZPJdeObZZzFBRPfgwSMgEdATcaQQRwIn1ZeXhlgOMaeAubPnIgxcnHjCqUgkquTcAeobKvDAg/dh/LijUNdYi4pqD2+69GJcdunbccLkU+FLWRPxtBmaLpBriMVCtLZtlfJ0Y/jwEejq6oTnUZaWmnzsDvvycjBR8awoiqIoirIfCFCNoY1D8MEr3oSbb/offPHfvoi7//wojjvxeLzpoguxft1a/Ot//BtOP/N0DBk8CG5VJfKcGMQL4EYuqmuq0NQ4AkuXrUF9fSMuv/xyvDhtGr7y5a+hUQTu+NGjRXAWkK7zkCtm8P3v34Qtm1s49oYI5hT+9szTIpg5G2KAUaOH43v/+10z2cjRRx8jQphDxMVEuPdO7iLCvramFjPnzIaTD1DMiHBOembkDY7mARHLnhdDRaUrZanD0qXLMXfuHBHESRHhlRjU3ID7778XEydOQF1TM67+4NV4/Im/YeHCFchlfYnjIR5PSB5xKY9jRPSiRYvwxS/+P3zve9/FRz/6ERHxnhltw3H37Hk+2AJaJ0lR3jD8XKU/I0U5PNDnWVF2sKtJUsqXdpKUO++8czez9QEhvbWhxN3UglRdFaJEFZKiRd1iiLZ8FikRpul0JTJeiCCbQ0pEbxT1iECj2HSQCxIibh2IrkQQtMEvcJC7eiAewvULcjyF6soC8t0xFJ0QiSiFYjxCOpZFkCsin6yVPEUId+fQgRAVRTl5dSUqRFTnizm4Hq8nLwKZsycm0NHTjpqaoejygfrAx3ZEaEiI4I2y6PYzCPJ1qElyXOYI3cjAKyRQXRdgxsxZmPr0HHzuc58xHmpOdtItojmVqgIKDkQ2w0nLPXGKENkuK5zMxEcm2yWCOdE7yQyH0YuhUCwgGed9KN1rivuvfe1rZpKU8ePHl26uwGNEJ0lRFEVRFEU5DBB9KcLZQyiCtX7oCLjpODiEMcd1jrku6qqrkaqqkHgB4iKJa9IuEiIuk1ENEvGE7I8j5eRE6IrY9EN4TgqJZAWceAyOV0Q8ERORSXHpIJ6KI1HhwqmMEE8y/xTiFUlUeb6IyTji6WrjIU5VcFbDAgI/Z4aTi4msjaEaTqxaZHKEutpqSNaodEWAJkJJL+cKQjhhEulEGpWVrghuEenpGKrSHqpq0iKkY9iwfjv+7u/eboRuGLoiXtOorq6Xc8fk5UDSpDjTYYSQk7dwGD65pDDwRFzXyPGUxJf7Iv92jPO865d4CmNL+fqBRD3PyhvGvoErinLoo8+zouxgd9Nzc53Dx3FYNnpDP/7xj4uorDTHSHm8ndKVCUIz8zb3m6Vd9B7nYMkSQVLKP7b/ZXqGUn5scsF17mHTC85Twt29mUqwq/I/+c8TkVwsFCSZY5aVVZXo7uoS4UrhW5pAhXB86cCM88zxp5lTqcQsBf9FvfmLeOTCHJWzSxkC5HJ5432neE4mE2Z4PF/yNu2XTeFKaUupSulMNiafHUf4H8vDMal5j7nkGNS/+93v8KUvfQmjR4+WmDtzoD3PKp6VNwx/oPozUpTDA32eFWUHe2q2QbpEgP7gBz8wAtGOlWzhevn2waQ0qUppghTy+OOP45xzzjFCk/sJj3HsZ3p9X0u5mTfvibUbvBfM057PhtcD87T5cf3GG2/E8OHDe4/uQMWzcsjBH6j+jBTl8ECfZ0XZwe7EM+E6JxUhFJz2+ECE5aIXl2Wk0Lzuuutw4YUX4stf/jLsDIO27IxjBfXewrQUufbeEO57I/eDaW1+zJuBZd3V1N3a5llRlIPIcvzw3Bg+NqV3c4+8lrj7kSkfQ+zcH0ppDgKv8dxTPiaVyUG/YYqivFGsqGNzArYb7u9lZeA+O/31wQ70DrOcXH/sscewePFi/P73v8eaNWvMNZSXl9vlaV8tMJ1NS2HL9Axc739f+qfdUyj3YJfnNxBQ8awcWVDslD3IO3RMSQjuvK8Mm65MKO0shHYnJHfkWx7O/WFvLrstj6IoijIQsZ5Z21bYejkp+KzYY+C+gQKFJ8Xo+vXrjSedzU1aWlpw1113memybVnpnd4dvM5dhfJj/WG+5ffktWA9zOX5vtY89hcqnpUjh+U/xLlX3IwbHrYP/cPAN3b2GrIN2M399pEp90m6G27o3Xrt7DhnKTz3mQl7VR5FURRlYEEBR5tNsUwBbSm38QMNithcLoenn37aNHGw5b/nnnuwZcsWc4ztnXltFNm7gnnsKpDdpbHwfOX3am+x+TL9nsp2oFHxrBxhnINjJ/au4nL84rnPQGRsH5O/9CXc8PydeKhcwYrI/cbNN+Cd7+zd3qfsuTx99PNQm2Dc1FPwsdi5+OEP7fGPyR6Bwrws7g6PNj3hEn8509nj3O493MerHS9nD3F3Ww4eOrdv/87p+nvre6/JslOekm5p7/5XsKtrZV7l+fe/tjd67ldJryjKYQGfb1LelGDHcz9wPM4WCld6mmfMmIFPfvKTuOSSS4zX+aSTTsKyZctMswjb/MRez97C67Ve991du43zWinPl+G1lm1/oeJZOXKYcCWuOud53Dixv2Aq53K884bncWeZel7+0J14/oZ3ypF9zF6Vh4j4u2I+blpW8mgsu+kcurIR/cKWSPK4EXhYjkXRL6ScEv9a4FazXYq/szed5/wGju3LD7K9s8i7+Yodxx+W+3Hjd3cvAcvj7pzXHsohIvTaGyf3lpnhOdAZT6Z8bCJunCzX15duPq7oay4j4vRaudiblvUe/xIW3nizObJreK334Z0m7jLcdM7NuCI2EQu/ZPOW8l5blve5uzh3nwB+9XPvuewDm1WrVmH+/Pm9W4qiHE5QdDY1NeE///M/8dWvftVMNMIvrTfddBNOPfVUI1Jps3YnfpWdUfGsHEFMwGee6xWDE/kWu2vRevk7b8DzN363TwB+l3rp829MOt98xQ6PxA5v5N6VB8uXYj4m46hecTnhqMnA/KU7CbIbHqZotuzswZ5w5VU45/mFWNa7TW54eIdYnfCZL+EGOcPSsgzLj/N+9D9fObvP69XKcTPu66/JRVR/42Yx6GX32+RpvwYsfwh3Pn8DvmRPyHM8vOfmNDvuzQRceVXpxcO+d5h7acvUm/fDfS8l/a7n1c79amUf4HDs1GOOOcassxJVFOXwgZ7ndDptBLRt/0zBXFVVherqarPO+kmf/b1DxbNyxHH5L8q8jrvy+l7+ThFMvcJuyn24+ZyrcKXVS6+Tnds8lwvdvSjPhKNEOu8Qt2x/jclH9YnSXbFTk4iJN+L53v2753ksLFfXb4gdee22HBM+g+fkguf3vlT0daA02JcJG66Qv0YvyxbuxbW8TnaZ90Qce07v9ezVufdQ9gEOPVP2syrLrijK4YMVzMTWRYTPut3W537vUfGsHLFM+MytuMkKo524HJ9nEwNRzxSq51x15R6F6r5it+UxnucdouyKm3f2jr6CKR/DxPImESJSz+k9tHvK216/UXrzerVyUECbYw9j8o0Ty9pDy/XZNH2h17s98di9uJbXyS7zXoaFz/dez16dew9lVxRFOUhQOFtxXN42mfu5be2V3afsGRXPyhEDvaA7eTinfBc3WmHUD9PE4OYrjFDd8Zl+37LX5aHHk22c+8TYzp7rV2PKd1/peb75ih0e7uU//MYb8q7vbV67KkcJend7V0078JvxjZ080WUYL3zZcXbgu2If+XZ7z31FWa/Gna7n1c79amVXFOWwwY4cYe3yQBecViBTNNvy0hvNr00cns7u55JxBxL2HtswEFDxrBwx0LN71Z0TjXEwwXTC241X0AghWb7GjoI7t23eISp33l9qprDX5bn8F3gYV+yUfo8TczD+DewYV4r7jWNvQv9WwTc8/CUs7PVkG+/w7kb5eFXOwU0PX4U7d5XXnsqx0+ghpU52JWc624Ev2/m+MPRd7+X4Ral9S2n/xIX40l551vcGnvth3CAvTfa8E++8Csv67s2rnfvVyq4oyuFAubeWw7tRSPNZHyjCblewzCwjYZk5sgZnR+Q+jrTB5UATzcQKZmNLJQyUlxSdnlt5w/AHrT+j/Qc91DuLOGpPitFlpfGiXxOlESU42sSeWn4oRy76PCvKDnY1PbcVohTNVnByohE7bB2PMQwkWHYGlpme5k996lP4wQ9+YDoLDrSyWqwdsveacJ+9x8QuD/T03CqelTcMf6D6M9p/UChfgfKh6UoC+M6rVDwr+x59nhVlB68mnsn27dv7mj4QLu26TXOwsR0Ge3p6zPY3vvENfP7zn0dtbe2AKN+usPfOvqB0dnZizJgxO72g2LKreFYOOfgD1Z/R/qR3/OGyBsPn3PR6hDNR8azsGX2eFWUHuxLPhEKUIm7btm14//vfjwsuuMAMBVcu2MrjH2zYRIOikm2cuZ7NZo1wHijNIHYFm5ekUilTVi6fffZZfOUrX8Fxxx3Xd1/tUsWzcsjBH6j+jBTl8ECfZ0XZwe48zwwUou3t7fjABz6A3/3ud31NIMqbFQwU7DPNJT3m9ER3dXWhpqbG7B+IsKy8l1bgc3KX6667DmPHjjXb5Rxo8awdBhVFURRFUfYSCjqKT4ozBq7T68xOeOx8R1HNOCbEAjh+AbGAgpuJ2+m1RBQTUUhhKPquUMxKvBBRGCHvFyVOzoizsOggCAvIxyJkfR9R0Zf9DiJIXhIhihXkHBlIKSRPSRPJsZjEc3y6RhFG9I6LiIwkT1eWjohmF0gmXFkPka5JI5DcGDdC0Rx3JM8w6IITyAnyUgaT3oEvxyUC/NCXRV6WUoaot+mElBdOqxzPyzXIi4Ok6YllUZSyhFJ+FJhnYPLgMZ4nZHmlDH5ByitFCOQaMoUiAlNm3mW+nJQkKu8nz8P7aZvKHGxKJVMURVEURVH2OWGsiFwQQ09PNzrau5DN5uD7IiAlBBz5Ip5CUYRjTARjTMRhINo3FEXpxinUPRG0jsRJyFERzJTOvQKSHtlABGxPV0FEs2eEp2hwEbCyP5T8RbD7RRHe+QC5vIhfeIgCkcm5IopFkc1SJgrjghyPIS5lEYErWcdiLop5Eb1JSZvplrQiikX6xijIJX1LS4+UiR74SIS/nMMXwQspn5xbdptrkVcLSSNinC8ScZelNueTIkkQtSzlZjtxSYH29g60tLYiGfdMUw02KykxsLz35ah4VhRFURRF2S+I7HTymDF3EW768Y9w8//9Gt/59vewbfs2Ec++CMakCFgRsaKUYyKSU8kkMiKuC6Kg8wE9tfQ1i1AWweyKuMzmssYD67JZAlxs29qGn//idnT25BA5MeRyeRHgpfMuXrgQHds7cffdD6GtrUNEsghiEcauCPG4lzB5U7zHooQR7GzYEXOSsi9CjxugIGL5yUcfw29uvVWOi9gO83jib0/g9lsfRCBl86RggS/COnLhh/S4x5ErZlHwi3BCEesUx3JtcETyi5gXGW3OIwU1Kpv//vKXB0xTi29961uYMesl47lnKDUzYRiYqHhWFEVRFEXZD0SFIja1rcODTz6Ly99+JT776X/FyFHDsXDRXBGTwJJ5C/DiCy+irasT3dks1q5chXlzFuGluS8DXoC1a9bAF0EciOpcvHwZ4skElixZgmkvvID2tnb4gYOWNhGsQQyLV66E4yawfPEyrN+0Ab/8v59h7szZaB4ywniT6SF+acbLmDt7HopFEef5IlatWIw5L8/Ecsm7GObQ3tmBOXPmY8aihdjW3YPtG7ciX/AR81yEYMe9NNat6pDyFLB40QrMm/8Stm5rw/p1rdjW0i7nj4wnORIRHYhYnzHjJSxbtQx+VMTyZWuk7EuxdWuL8S7TOz506BB87nOfw1vf+lYR0g+io6Oj1yNN1POsKIqiKIpyRBFzYli7ZRU68wGOOmYS4m4KH3j/P+Lsc87Cy7Nm4J4//Qmzps/Ar2/5HTZt3ojvfP3rmD9/IR766xQ88reH8Mhjj6FFxOb6devxxzv/hOkvv4QnnnwC82bPwZ/vuw892QIKBQcbNrfipp/+HPmeDO6+8x4sX70CnR2dJu2SFRsQ95KYN2+hpH0KU6Y8KgJ5ATpE5H7nf76M+XMX4JZbfoXN29ZiymNTMH3qDNx82x/w0vwlSEQpRLEkopCe8SK6JM+q1FAsXDAP99/3oOQzA3fdcx+WLluLx/76OFo7WvDQlIfRvm0LfvV/P8e06bPwS8l75qxZ+PEPfoVHH3lKBHI3EvG0uT+nnX4qqqurkMlkMHLkKDOqBj3rAx0Vz4qiKIqiKK8DNi8oNTHYHSEKxTziHCbOixtnquc58BwXL70004wccf1HbsC8RQuxav061FRV45prrsUxxx4twvRljJPj8+fOQ1bE5bnnnYuFixbgqIlH4SM3fBybN2/Gpg2bJL+ECNu4aZscE1nX2daOxqYmHDPpKJxywknI5Yro6c6I4F2Ed7/73bjsssuwcOEiODEXx594DP7xA1ehrqECre2bMGHiGMn/aHipSmze3g43SiKbY0dCKXvkw3M9Ebo5DB0yFMefcDwaG5uwfNlKnHHGKVixYqWUSYR6PGHE5dNPPIXRo0bLC0SEtevWob21Bxecdx4mTRpvmmY48mLhSn5z5szGI49MwXukbOx4yQ6Y7CRYfl/3fI8PPCqeFUVRFEVR9hIKOXbWs4LOjrqxS7wMJg05CV7XOqxYtQ3ZmIMZ06dj6jNTRei6CCSPfFREt58FKpKIN1TDiftII45kkMZpJ52ARx59CM8/8yROPGocMi1bRbj1nt/Po666Cm4sLyJXcpMlJ0EJJedkvArFIAMfHUimHLihx4Ij52dM4MggxXyEeLoRsbgDx5Pzh124/647MeellxH2tAGdGUlSgVhCrjPi6BpyHjcBN7URM2bMxtPPPISlC9sQFSJUVkCEcgMee+wJnHzy6QiChAj+AtasWio3oYiKimpEsWokvUqERY48kjPtpp9/7gU89+yL+PQnP4H6uhopeQwFdqSUU9oh6nify2cYHAioeFYURVEURdlLrFC2opkjROxW1MVq0dw4Cm+6+Hzcdeet+MlPfogHH3wAw8aMxvGnnoylK5bjf77xTZx90qkYVFNvPK+5XA6O65h2wRw7urMnY9o71zTU48JLLsa0WTPx9W99C7W1g0WUJlBdE0NDg4eOti247bZbsXHTRnCUN3YMnDZjBno6W1DfUIExY4bhllt+iTvv+gNGjR6GqmoRwq6IahGsiDg+Bid5cZApdMH1C0g4Il6TvuRF4eqLZI+LoBVhT5EfjyOTyUoZMygU25ErbMCwIYNwx20PYOiQYRgyfAwuvOhSbG9tNyN0JFMevEQGXpz3LoZ8roDu7h7cJWL9pdkvYcqUKXJfHjTNN9hsgyKa98DeY3qjzdB/A6RJh06Sorxh+MPWn5GiHB7o86woO9jdJCkUcVxyyuhrrrkGd955p5mc4xWI7qT0LMi/bds3IyoGaK5rQFSZRjLmomN7G3KZHOqbmk1zjp7uDtTW16M7m4GfL6C+phadubyI0yzqaqvM+VtEkBaLERor61FR7WDTplYMHlKDjVvXIxlWI+7FUdlYhXxnN2KBAz+RRnWFY0a82N66nQ+5aW7Bx7wgAr2qshYdnVuRSsekLDFku/NwaiuQjBLwfKCYdlCV4JjVeXR1iKjPFVFTl0RLSws8R64jVUSqpg2L5rfgwftewn988RMcr07ydtCe7UTodqOxrgnZDpHn8nKQTnsIQr4guNi4fossPYTyL5FMyEtAg7mvZmg+jjAicawHmpOkfPCDH8SECa+cXVcnSVEURVEURRmgWOHMJUeGoFDjOsXaK4JbWiYdF8MHDcLQwYNQUVWFlENPL9DQ2Iihw4ehIpVEXERkvQhrjoxRWVGF2ro6ng2VlZVorG+U/Y7xcg9qGozhQ4ciXZmQ8+cxdMggWRYxYshwNDUPRX1zg4haB9WSV7qyBlUinF03hOt5aKgfhOamIUZgx+MxOU+tnCOG2pomEaw1qK6pQeOQZgyqrkNFPI5UXQUqpWweOFFJJapqqlDXUG2GzRsk19I8uMlM853PuHjyiWfxj1e/V+5FBFeEcEVtGoOHDkFT0wjEnSRqqhOIJzkYdAgvnhQx7mHEyJGSTzOGyT1olHvB+8iyEd433mcu7T3eMRLHwUU9z8obxv6wFUU59NHnWVF2sCvPczn0vn74wx/Gd77zHSNy+xNGRRGJDqJAZLCIYnpYg8gXMenBD0R4yz42SQgCEYcS35HsiyayA4/notOVz6T55xvBHXJ6QQ50FyvAdSS/Qhoxh80rQomTQOQGkl9OYqTMOSP0SHw5X0GydRMSYujJdqGqMoXA52yIMRQLgYhrvgAE8KW8Sb80k2EuLkI4jIGTFkLScXg5iu6CiHh2HqSgj8k+LgMKXV6A5GG8xfLCEIpAFukOh9cnhzgrohn7OWL5eTWykMvxA5ZdziVpSjslhCXBzPtO0fzDH/4Q//RP/4SJEyeW4pRxoD3PKp6VN4xWtopy+KDPs6LsYFfimZ3X2JygUCggm83i85//PJqamnpT7EwoQjkm/yLRkp4bR9EvlrzRFJMeJxcJRCC6pTxFKJqZ+0REUoi6VJV8FrmUfaLYJB96YjkShQjDGGf9kyOBCGJHjrNTn0jVmCvxgtKMghTu7OgnSlbi0NvtGWG7Zu1KTJg4XsQzO+P5SCRS8EUQU1izEyObO0tEiLaW08pJpLyRnMxMr21kLk/HKbSlLHLMlEnOzmm/OTtiSUzLS4Dsp4CnEJaszYsD74ccMIH31JyTQpm2hzmbS5brkBiE94YietOmTfjSl76E8ePHm7+DhXmsWbNGxbNyaKGVraIcPujzrCg72JV45pKCjkuKx9bWVuN1tm1zByIsNwVoV1eX6Yh4/fXXm2Hr2F6bnm/TSVGOU3ja9YONLYNtIsOXFXag5LUwlLNq1Sp873vfU/GsHDpYY6IoyqGPPs+KsoPdiWcGCjq2Qab43J9CbV9hPeYPPPAAPv3pT5s2xo8++ijq6urMNdjrGyjXYts7M7DZBsvOJUf6INZO8bh2GFQURVEURRmgWFFG4WyFHbGieiAGCmfS1tZmXgY2bNiAZcuW4amnnjKilN7ogXYdfDkp9/CXe/a572Ci4llRFEVRFGUvscKtNEue0+cJpZAeqMEK0nnz5uHFF180Q8ZRLN96663o7u4218B4A+k6rGi2ZeJ6+b0uXx5oVDwriqIoiqK8Rqw3lyLPrg9U2Cxj48aN+J//+R+85z3vwamnnmpGr9i2bRtefvllU/7SqB8D5zoojOltLi8Tt+3LixXO9sXgQKLiWVEURVEUZS+haKPHmZ5QLrltPaQDFYpOdgT893//d3z96183I1ZcffXVuO2224w3l53xbBvjAy1E9wTvK0W9xd7vcrjdf9/+RsWzoiiKoijKYQxFJwXzGWecgfr6eiOQKTi577TTTkMikTDimWL1QAvRQ5FDVjxb132xGMAMOChwwUAHP8cZVBRFURRFOdKxYpkjURB6m7lOUW296NxHbcWg7JkBJ57ZtiUIigiiggjgogTZllAM2AuUbV+KppG7ddPH4xzBu5SWCwZ+POFg24qiKIqiKEc6/b3J1FpsxkGhzGYRFNBWYHNd2TMD5g7ZPyT/eMZnHJP/y986Jkv+zblkcV03bv7Q/X8IiqIoiqIoyiuxwtgGimbrdSb9O+Upe2bAiGd+MkilUkYYcwpLF0kpXFz0c2ledM8pDU+iKIqiKIpyMKEYtZSvD1Ssw5Ei2ZaXusuuU3tRNDPeQPM82zIOpPusvnlFURRFUZS9pFzEWS8tl9w/kAReORTNFMa2QyAFsvU+W3hsIGHvp528hXB9INxjnZ5becPwQdSfkaIcHujzrCg72NX03MQKT84yyCanXJY/NzaeXR5s7DTiFNEclu5LX/oSvvzlL6OmpmbAlLE/LCvvMQNFM+85pxQvF/y27Ad6em4Vz8obhj9Q/RkpyuGBPs+KsoPdiWdLe3s7PvvZzxoRap+b8jj7U8C9FqwQpXeZInT27Nk477zzzOyCAxWWlUKf5eZ93L59O77xjW9g1KhRr7jHKp6VQw7+QPVnpCiHB/o8K8oO9uR5tl7n97///fje975nxk8uF2z7U7y9VmybZgrRbDZrhqXL5/N9Q9cNRFhe28yE69/+9rfxiU98AmPHju2NseMeq3hWDjn4A9WfkaIcHujzrCg72JV4tkvS1taGD37wg7j77ruNaNufgu2NYp9rW36Kf06OMtChcGaZ//u//9vMisiJXfrf5wMtnrXDoKIoiqIoyl7SX5TRm0uBt0uxFgYIihECdMh60Wz7iCTwmAQ/hOw1IYhEJMoykmUYyEH+F0rc3rngfEnLuS8iiR2hIHnkGEH2hcjIVt70XYxkVw9j8xCKUV7OzXNy3gy2y/bh+5JO9iQ8B4Gc3yAn8H0OFSw5yzkksiRmqgB52c6zbFFW9mdMuXh+xg1EpBpRLhfEJAXJKpRz8FoYL8jz2mW/XHsYSVqJG4QsEydjYWQ5WuC9KUhZJRvO6RFJ3mZuD0aP+to48x4T7uN6eTBlOICoeFYURVEURXkdUDDv0cMpQpLzVuREDM+YMRvTpj+PjZs2yXYR2Z5uRJI2n8+K+BPxTQEooZAvSp6iKf08Yg7zp0CkBKWQFvEreYWhRBBRm+npwbLFG5DNhSJYKYApXzlCRR6RqFmOn7Fl8xbEZJ3lDCjAKTZlmxPQcT4NnjZfoNgWqSzpS+JURLFkuGXjJmzYtIGXIOfNYdv2VqxevcmUl/kEUhZf1H2YLyCUZVEEOkU+xTHFNQfw4GAZ3Cp09ch5ZV3+x3KYu+YXkZeybt6wHkW+MBiYcmdYdiuQ7T3vHw4kKp4VRVEURVH2B6I6u/NduOeBJ/DcizOxeOEc/PL/foY5C+bBSSVFfPpIiBTzKCUpcCUJJW9BxDUcClOKb3aa8yVEpqlFEHAEirhEDNEiYvaOP/wFjuhg10wmJ6JY0hRFnD465VFs2bAZTzz5PLo6RLgGIjIl73g8LaLcEwErglRkLkWp59GjnYXjxhCX8uRE1EYxB4/++RHcc+efJS2Fto/p02bj5p//QeKKwBbxTc91UBThn/Jkj29m54ii0myFLJ+Ru7FAriNEIl1vlpER/iWxy/bX9935J/zgBz9AJivC3xG1LRo6ciQPE+OVHGzhTFQ8K4qiKIqi7A+iHFo71uL5F5fi+hs+hmuv/wCuufoqbN2wER3dXXhx2ot49smnsH7dOhGP3Zj29NN4fuqLeOLZJ5ENurBo0SLk8j1o72zDtOkvwBVxOWvWTNx//1+wdf12uMk4ioU48l1ZPP/cc4DvYN68BVi/ZYOI3jswf+ZsnHbqeUgnkujq7MLTTz2DJ598Ei3tHcgW8njh+al4/PG/4YVpz4ggz2HTxo346yOP4ekZL6K1J4t0LI2KiirTjMIRcRyFIpLDpJxThPT0F/Hc1Bewbt1GzF+yEFu2b4IoaSxashRdmW50dLbgL/ffjfnz50kaB9Ofewkzps/F+vUbRVzHRHhHWLFsGR555GG0tLahojJlRgXJ5/IiiAe2PFXxrCiKoiiKsj+IBVizcTHq6sciBAVjFhMmjsU73/RWPP/ss3jiiSeQTKXwo1/8DHOWzMetv/4NHDeBOQvm4tbf/xovzX4ZK1esR8v2dhGeM/HYX6dg8eK5GDqsHr/82e+wadsmFIs+2rZtxl0ilrt7ivjTHXeIMO9AY0M9EvDwyJS/yfEOPP/M82hracfa9Zsw66XZ2Nbajj/88XZUVVVhyiP3YdnqeVi6bLGIaBcPPPM3PDVtuohmFx3ZAnJsLhJl5QricGIprFq9Gps2b4Iv57799j8gE+Zx34N/xuYNG/DEk09jy7Yt+PrXv4JU2sODf7lPRPtz+OlPfoPly1bK+Wrhei6CMMJxJ07GZ268EU3Ng5HNFuG6HuIDeAQQy+sSz/xsoCiKoiiKouyBWISq2gTaOwsQHSuqizP9hQhFkG5evxFHH3MMzj7nHKwVIbqtsxVjR43CmWecjjHjx2DNutU48YQT8fxzM7F9ewcuvvhNeHbq0xg3YRSOP3ESqlJNIpY7RYiKpJV8M5kMnMgx7ZArqyvRUFeHMSNGiRgXMRoBa9eux1lnn4mTTz4Za9etNyJ50qSjcOqpJ4ugTSOX68AzzzyNT3/603hm1gxs7mxHzImzLyAS6STirgvPSyCbKaKnpxu33PIb/Me/fxGrV6/B0UcdDXZIXL92LY459hgEkY9HH52CG2/8Z/zkJz/G/AULEYUujj/+BDQ1NoKtOjzPQczk6SElLxBsJhKEIRwvvtsmGwOF1yWe7XiB+wq2jRnIQVEURVEUhVAXlDrLlTrfmQ54u9EKUawSY5pOw5DUEiyf9xLWr3Pw+JPzcOvv70YySqNjcxtWrl6J2nQCtVUNaI+JmEQO+dBH1fAROG5CI/469TlMnf4ympuH4LQTT0VPWwYtmzuRc7JIVwwWcbwZKacSUTGGjRtWIsoGiPwIbjzE9o4MfBHrxZSDIY0NWLR+HVrWbkZlUz3iASdNSRhhHUVxFCV9oRDg/276Ji449zQU4Yog7kAq0YOixA2LzfALHaip9LFw9hxcefG78b1vfw119SlUeevRXDcc99y7EOPHjERtKouLLrkEt/z+Ltx37+/w9++8TBRnswhj8z4BFCmSA9nnwE/UoDvnowIxJNwY/KhgxKltyWzv70DSY69LPO9L4Ux21fh7IAVFURRFURRCEcfh02ygQ5FLK/DKAyVgOlWBD3/4I3jwwQfx3e99FytXLse7/uF8vO3dF6An14bv/M/3cPVVH8GwwWMxbhybd0QY2jwYg+pEbMaTeMtllyIfFFBTV4M3XfYWLF21Et/8zndw8qknYOSwoRg3djQamhoxeOgg3PPn+9HYNAyem8KIkSMxfeYLaG5KI5VKYPJJJ+CB++7Fo397DCcdN1n2JTF48FApu4sxo8dhUONQDJHtR//6NzTXNKAikcLgEcMxuKkZcV6rG0ddcwOah9Xh+JNOxsp1K/HI43/FuPFj0VPwMXzYCCxaPE/ybEZT4whc96F/wh1/vAvPPvM8stluTJg0BNXVIvLlrrj0OvfKY46hPenoSfDlZYSjeFg44gfhvbW6k+sDgdc1SYpN8kaE5es47X5BxfEbh/dwoPw9FUV5Y+jzrCg7eLXpuVtbW02c22+/3UzR/Uo4tnJkmlI4TgL5HCcmYVOIrUg4aUSBiEEuXVcEcgxBLoOqZBJ5N0RP2IWGKI4et9I0Z6hwgcAvioj1kC36qIqn4BcCMzpGjMecEGFRyshRNdIOXBHc2a4MospKEb9SFNGfbpzjYcRQlPwoiJlfGLiIJzlEXQ5+McGTIJeqRhjFUOv7CBLyIgAXTqz0gpDpySNd4SEn11KZTiP0M2I4OvD4316W9A249PLTJXYgAjNhrjueyKFQDOBE1VL2mATaGYpjThnOcZ99FPIRkiLW2UbccUREh1LOMtFMLz8nSeGENOPGjTP7yjlkJkl5vd5nDrvCwBtxsAJvqA2KoiiKoiivBWogBuoI9gPjNNLlULyVQuk45RbHUI7HGS+C4zUiiNIiekUwRhxjOS+Z5koiXfJ02G45JqI6JtJY5FZahCSHi/MoYEMHnhs34yKzHXLg50WMU1cVJEhZkq4I4oAtIxCvSEqaAK6ovSgh4ryQQ07ixSVtKOWj15md94CElCEhwj6JmJeCFwWocGLwYz4iKb/DsZmZRvJPV/FcMRGp7PTH+wDk8jFUV1fjjDOPMyKbDbwdjlEtocDm3l5CriUv96Okw0oeZt4fCuNQhLO8UHCWFNkXipiOJFMeo6eZmpH3uSAZMe1A4HV5nvlD4GcKFZ8K4e/gdfyMFEUZgOjzrCg72J3n2TrjOjs78YlPfALveMc7jC4ijGefIYrZRDxuhDbFH8UgO8f58SS629oxqL4evsRp7+pAbX0jijkKRxGXgS/5iQiWfxz/uJjLYlBjnQheeUZTlVi1Zr3Er0Rt5KEo4rk7VtJl9RVVaO/uQnVVrYjq0JS7p7sDmVwPYjUVaAjjyKU9pLul7CKMk07KCH+Wj2XlDIQ9+SJSXhL5YlaEcgpN1TXo7OnClk3dqGtII1tYj7rK48BZEz2nSsrXJvdFBHPMRReHt0tXIS6iORH3RGDLC4Lcs/b2Vrl2Efty3bxvFMSk9NIRIC7ni0VJI7D9IIOEV41CkXMxltqXcxpxjkxy4403YtKkSSZtOQfa83zQmm0ohw9a2SrK4YM+z4pSgs/Bddddt5N4tlj9Q2cix03u6RFx2rvPxuOSXlg2T+CsehTRBYnPWL4bQ9JLoJDJi6BMiESU+Dwg8VwR2JwRkN5ZkdEmftx14NNxKXn4YQwh8xXxmwrYGiNC0ZUc5HySLd21pjlHMpE2I3CkEnHJpyhxHKRFsxYTLrysLwLelfPEzPk53J1kIEGWnIAliBBPxMy02rFiqWOf51ZIvAy8ZBZRsR6OWxChK2V15EVCknkillnYYlHSeixvQcSxlNcPjLDntOKOuUdSfk4II+uleyZXYBzRnuTly73yJV5C1l0R2pwcpuR9Jm9+85tRV1dn1om95xTP3/ve9/D9739/4IpnvjXwYvZnwZRDB/4OXsfPSFGUAYg+z4pSgs8BxfNPfvITMxaypfz5KF9XTbRvsbaoPBAjxHvX7T3vL573N6+rzTOFsy24oiiKoijK4QaFGQM1D7ECzu7XsH9DuUBm8w6K5nLhTA6WFn1d4pnwYhRFURRFUQ5XKM5s+2ai2ufAYUV0/3u+K8HcP97+FtWvSzyzUP0vRlEURVEU5XDBCjB6PRms7rEjbVBQ23UN+z7w/jNw3b7A2JcYi/2b2Lj91/cX2mFQecPwd7C/f6iKohwY9HlWlBJ8Dq655hp8+9vf7h0Vwo4OsYPyZ0U10b5ld/e2fL8V2Rs3bsQvfvEL/OhHPxq4HQYJez6y7Yly+MEfo23jtTdoZasohw/6PCtHOlaQ0ct59dVXG73DQFHGYyqSDy782/BvwL8FX2a45Kgi5M9//jMqKyvNuo23P3jd4vm1Cizl8EUrW0U5fNDnWTnS4e/fiuQlS5aY8Zn3lwhTXj98ueHfxf5t+Dc76aST+tb7fyXYl7xu8cxk+mNSCH8HWtnuoPxecF1fMpVDCX2elSMd+/vvPyEcxZp+cR84UCATa7O4tH+j/e3gfd052x+ToiiKcuizefNmrFy5sndLUY5crL7hrHaW/S3GlL3HvtzYvwe3y/dZj7QV1/uD1+15VhSLfetTSpTfC66rwVUOBWbNmoWWlhZcdtll+jwrikARxk//+jwMLKwwZt3Kvw0D9x0orzNR8ay8YVQ870z/e8H7oygDneXLl6OtrQ1nnHGGPs+KUgZFGaEgU3s+MKCN6v+36C+o96eAVvGsvGFUPB/+8O+rlcbhB/+uNrB9J//GqVRKn2dFUZQ9oN+TFUVRjmAomBnYZGP9+vW9exVFUZTdoeJZUZRXRb3Ohzf8+27atAkLFizo3aMoiqLsDhXPirKPCKIiIuy/3r2Ksq+xXmeGpqYmjB49uveIoiiKsju0zbPyhmHFqz8j9MlmfSNVDkXY2cbOoqbPs6Ioyu7ZZ+K5PBuKqb2F6crjv958lIMH/06seF/P36v/399ifwf9j+0u/kDA/nJfrXQD+RqUgcG++o28lny2bNmC7u5uTJgwoe/521/sqVxRmEHgeLLiIixkEXMz6O5wsGL1MvR0cwpeF8OGj8Ko0WOAwMf6tYsx/qgTSokVRdlpqDb7LPN543r5tmVf2JojDfU8K28YPnh7I575U9ubh9Q+4Pt7nMZ9zd5en3JoEKFYWvK3GNsxWcL+gucpZ1/+lmze9jdq8y7/zXKcZ3YYfOc732k80Bzf1o5za7H57Kps5Xm9FvrnGUYFud+O3P/IlIPEYqH8TwRBzJN9RjNLuRISSsOHEeZzqNkMRdkf7Oo5tc809/G4fV645PTj/OLEOKzLyyeHUXaNimflDWMfxnKsmC5/eHe1b1c/P+5jeC3z0tt8+udt92ulquwtItl613YQw5EzJS+fIfvcvBb29AJdnl+5Deh/Hu4Pw2Lf8xpGvTbDfNdhYGXPdBxvl2FHHlzadVeOmYPyX2jSyapJpwJbObzhb9w+Xxx+ktvxeNzs4zPKr0tz587FqFGjMGLECBOPz0T5VOTleSi7RsWz8oaxD9uBguey5+O57UNevp+UH1OUPRNKxRKAmgsizCw7fltcPzJEF6/5QD7Pb5Ty557igFA8x+hVk38U4HJRxpttrQHj2+uMUVX3YvPhoiTOSymYrwmSH1/qmZclkN+N5+z9i76i7G/sc0BRbNf5W+7o6MDtt9+OZ555BtXV1fiv//ovI6LpeSb0ONtZ+pQ9o+JZecPYCkZRlMMDrRYU5dCGzzCFM5eso1tbW3HHHXcYcfzhD38YM2fOxJ/+9Cf8/d//PS644AIjtBmPx+mpVvaMimdFURRFUZTDACuW6U2mCGY75vnz5+M73/kOrrnmGpx99tmoqKgwcTgl/2OPPYbhw4fjsssuM+2erXBWp9ieUfGsKIqiKIpyiGGFMj3MXDJwn92fz+fNKDpf//rX8elPfxpHHXWUEciMbz3N7CT8uc99Du9973tNZ2HuZ7MN23yDS+4jjK+UUPGsKIqiKIpyiFEungnXKXbt/qlTp+LBBx/ElVdeifPOO6+vTXN5Z3x2FKSAvv/++02666+/3rSHpmAuF85WTCslVDwriqIoymECq3R+qtd2q0cG5RLOCmkuKYafe+45XHXVVTj11FN7Y5SgIGY6xrN0dXXh97//PTZv3mzaRDc3NxuxzXiMXx5XUfGsKIqiKIc01pvI6tx+ki/fr8Ln8MT+rfl35jpfmLZv3268zS0tLXjrW9+KY4891rR/TqVSvalK8LdSHqzovu2229De3o4rrrgC48aN6/NSl3urFQ6aqSiKoijKIQmFjxXOFD92yaDC+fDG/m0poNmkorOzE3fddRc2bNhgOgeOHz/e/B7spCdWZFuhTLikuLbi+Oqrr8YxxxyDH//4x9i4caNpN81jTKvs4DWJZ/4R9nQDedzCdf6B7Hr/pV23f0jSP56dXYrwvNzPuFzaH0E5/dOT8vwt5fHKz90/HinfXx7Xhl1tE1ve8n3l8frvL8fO8kPssfKy7epYeZ7l65by9MrA4lA2SuXPqP3NsQ2doij7jv72vByKHx63z6IV0mrzjwzsb4MdA3/1q1+Z5hcf+chH0NTU9IqXJ4ps+1XCwvQcfcNCDzWHrrv22mvxrW99C3PmzDE2vTwfRZttKMoRT/nLFw0kP/vdc889xotx8skn45xzzkFlZaWJy+OMX26A1agqiqIcHGiPlyxZgj/+8Y9mwhN2Dhw0aJCx5/ZFivbaDl3XX/LxWLkDh/bcTpqyYMECPPDAAzj++ONx6aWXmo6EliPd7qt4VpQjiPLHnUaXBpBeBQ5fRM8VZ6D6yU9+YjwRl19+OX7605+aJQPj2s935R4Nm+eRbkwVRVEOJLTZFL+cKZCdAzlWsxXCdpg5wiWF7yc/+ck+281A282puh9//HHkcjnTvINLxq+qqjL5L1u2zDTf+Ld/+zdceOGFJr/+tv5ItP0qnhXlCKL8U641oDSQNLTz5s3Db3/7W/PJjkaYhpRt59gDu7a2Fh/60IdMPOt1tl4NhnJPtKIoirL/oT2n/eZXQjpBGGijaZNpn20TOjbp+M///E/8+c9/Nnbd2mum56gcFMwUxtxmeutYoYhmXIaamppXdDq0olnFs6IohzVWPNMY2s94ZPHixbj99tvx5je/Geeee64xvDYODTB7YLMt3Wc+85m+zifWYNKEHInGU1EU5WBi7TltMIMVuv1t8sqVK80kKWyCwWMUyITp//KXvxibzmYZTMPAOOXY/G2e/e19/+0jAXUXKcoRhDWMNJo0sj09PXjqqadM84xLLrkE559/vjnGOPQ60Kim02kzViiXv/jFL0z7OsLj5QZVURRFObDQBtOW2y+BFq5bO04bzVEzaNvLhTOP0etsBTe92Nxnj9sl05cH0n/7SEPFs6IcpljjSeg9pvHk0ho8GsrHHnvMfLb7+Mc/bsQzjSgFs22eYQ1oY2MjPvCBD5h2cBTQ/Axo87ZG2MblfruuKIqi7B9oxyma+68Ta+cZaMsZiLXbNj6/PtJ+23XGK8+LS5uHzY/hSEfFs6IchpR7C7hOo8h163Vgx8Df/OY3ePbZZ/GFL3wBkydP7vNQlItmGk4GbtfX1+Mf//EfjYh+//vfj9mzZ5vB9HnMGlYKcsJ1a6QVRVGUfQ/tbPnSUm57rWi2Nr1/3P6Up321uEcyKp4V5TCEBpNiuNwQ0utMccumGnfeeScymQz++Z//2UzDSsNqPQyMw/TlRpf7uWSHEQrtr371q5gyZQrWrFlj4vM8DFZo2/iKoiiKcrih4llRDlOs18AKYgpf9sr+13/9V2zevBmf+MQnjHC2TTSs0OZ2ufBmeq7b/Bj3vPPOwzve8Q7893//N/7617/29eq2IpzprfhWFEVRlMMJrd0U5TCkXOxaEbx06VIz5SqHovv85z9vxnbm5CcUvjY+lwxW+JbnQ7hNcU2RTA/0N7/5TTMD1R133GGagnC/epwVRVGUwxkdqk5RDlOs8OWSM0Vdf/31OOaYY3DRRReZzoMUyBS6HEWDTTnoheYwdUOHDu3NoQTjPPPMM1i1apUZuo6eZQpomzdnJGSnQ06kcsMNN5jOhfbc6n1WFEU5sNBml9teNq/78Ic/bJra2eFJaaMZaLv5VZL2m/RPq+wavUOKcphiPcY0kBxB47jjjjP7Xn75ZTMhCjv80Ws8bdo0s/3www+b8Z4t1rhSLN9999144YUXTJrp06dj6tSpZvvFF1/EihUrTN5WjBOmURRFUQ481vbTHtOGl2PtuoWOENpr2/RO2TvU86wohyE0mjSgDGx/zEBvM6HnwR4v9zJQPPPY29/+dnOs3Mj+x3/8hxlhY+LEiWZfeTpiz0MPBo/b9NbLoSiKohwYaItpg62NXr16tZmam7PFUiwTHqON5iQp/FpohypV9g4Vz4pymFL+aLPDIAUv2zkTGld6G7ifRpbrNKJMQ/HMJfdbkczh7DgW9OjRo/uEcTk2HvdbA8x4iqIoyoGF9rjc/m7atMkMM3rOOecY209o++ncaG1tNZ2/L7vsMrOf9ltF9Kuj4llRDkP4WDNYoUtjWG5Q7T4aUNvE4qGHHjLLK6+80izL+eIXv2jaTE+YMKF3TykPmx/zJty2wtxuK4qiKAcGa/utAKZt5ldHNq+zHmkG7mc82upRo0ahpqbGxCdqt18dfb1QlMMQGr9ycWuNqTWc1rDakTO4z3okiE1XHt/uY152aUN5HLu08RRFUZQDhxXG1gazUzhHRzr++ONxwgknmHW7ZKBwtnacWGeIsntUPCvKYQo9CtYglgvZ8nVSHo9imutWUHOdYVeCmNs29IfprUBXFEVRDgy0x/bLHym3z7TJ1oZzads/Mw6PWbuvtvvV0TukKIcxNIT9jWG5MbVYg2q9z/3jW0+G3S5fkvJ1plXjqyiKcnCgPS4P5dh91kaXH1e7vffonVIUpY9yz7Klv2hWFEVRlCMZFc+KohhhzE99DOUimevlXmdFURRFOdJR8awoSh8UywzlYpnrdltFtKIoinKko+JZURQjijlsnR0Putz7XC6eFUVRFOVIR8d5VpRDBPuo7iRsJYRRSeyW9kalZd9T7ZRWe5OIRJY9fGeOIQplJw/GJI0Tw5133oknn3wSkyZNMr2wmSfFdCaTMdN3f/nLXzbHFEVRFOVIRsWzohwi7Eo8i3Q2/+cxOwC+47i9Wtk2vxBhLeKYItuK6FhEsV3aiHqV9qJFi7B06VKznsvlkEgkjHjmkm2hL7roIlRVVfU7v6IoiqIcWah4VpRDBD6qrxSu7MwXIgw5FrMnT3QMgcTbIZ97kRWmj+S42SdPvclKllY82/xts41isWimb+V6+blfWQZFURRFOXJQ8awohzBhIELXcYxgzhd9tHfnkckVkMtk4HkuKtMpechDJOIuGuprRCY74Pj5kYhtV0RwLFZqzxyLSR79xni2QppwH73QdlB9RVEURTlSUfGsKIcg9rGltM0WQqzZsFXCFmSKASqqapFOpeVIgCCfQ6a7A24UoK6mChPGjUFdbSU8t+SBFnlsBLITK81IxXwplM0+WXLbnovL8pmrFEVRFOVIRMWzohyC2Me2rSuLhcvXYtPWNtQNHobhI0ejyAOijBOic+lDTjgRulrbsGrlMkSZDI4/4VgMGdSIVNIV0Uz5TSFdEsq2iQahgKZYtkKanmkutdmGoiiKciSj4llRDhFCn0K3gJgTIBcksWZ7J5Yv3460iOCR48cCHts7i9BlK+aYiFx5stn2OfR9xMJIxLSHjo4MFixajBFD63HiMaNQnWSbZonYTxBbIa0oiqK8OhRSVk05bA4XsgM3vw7K/2Slt7eJsgvY74b/pNbqvU/mxpUWdjQpCQOpXlLxrCiHCGKLxXgU4LgutrRn8fT0BRg2bDSGDG6G6xnJjGJYRDwRB3wRzq6DsBgY77PLNs1+gNDxRGD7mD9vHsYMa8TxR42Cpy0xFEVR3jBWTEXmax3FHvWfkdVGQCu7o/cesbbigsiS+tkKZiuaVTwrivLakEdVzAiyfohpsxcjcBIYM3Ys4k6IoBDCdSKEYlh8iZOOxRFJvFDSsOMgDTlH5OgosFEH3+0LWLFoAU6cNA4jRESTgWKUFEVRDjUopUpCzzF2l8ODFosBPwiWmrsxUq+JlcMSr7SuCFSh9guovY+yk19Q+25aLyqeFUV5bYQFEcYJbGjNYPaC5Zh8wtHyBLso5AqodiP42R5U1NSjPVNAXWUF8vnSuM+RGPEg5KgcMeSisDRcXRBh3apliGW7cNF5p8mxklFSAa0oivJ6oOgLEYhtdVwPXZkcnHgCTgi4Ip6JNa8qnnfG3g+jRiPWWwHi7JwuO/niUYpT8kAPFFQ8K8qhQpRHIZbE1Jlr2CoDY8YMNYI47sThZNswqK4Cv/3dXZg+byn+3xf+HYlkEm7ChS+PeCEIjDeEQjqZ9jgQB/yeHiybPx/nnnECqioTxjBZQ6UoiqK8FkRKiXimQ6O9K4P/u/nXyPkhivlSm10KQdXLu4PKmfcohOey7XOAQiGHG66/BsOHDdup4/pAQcWzohwiREEBmVgcDzw1G0cdPQmVnmPezuMiiKtjWXR19eDHP/utGB0XF73lzTjp5MmIiXiOuTEUiiKeacAddij0JC9ZStiybj2a6uKYMG64MezG+1w6naIoirLX9IpnEYFtIp6/+d2bcNo5F6K2cQgiIwxNjD7Ymbu/+KKJDpmNBDHr5jj3cdu0amDgNuP1HuuP2cWE5cg20+yK8qjlaalTRa/uOL89ZPPp3c99e9ttxqhNm74MNtLgwVgUwGFfnaCIZS9NxduveAtGjRppxLN6nhVFeV1EQYDW0MWDT0/DqSedKoKZ7ZgDeVnPIhV2YemqTXhgynO4+Kzz8Y3v/C/uuOc2OF6EXKEAL5mE79Ph7BsDnHDixkpv3bIVUb4NZ5xyjDkH3+sHjnlSFEU5hKB4FsXZ3pPH17//Y1z+jn9A0/DRRhyG8v+Aa2K3jYbchZrlHvOFUGyzEZGydEVFU6XxmLHPvckCWVLc9oe5U3iXKK3Q5vNrpdmyx2Qfy8FMjSiX1b5kckLHlTKzCYpkRkHPyDxui81Tm3XZ75iMdqYk/tmUpXTN5rp5bfYCymByc22Bj8jx4MgJZzx0O95yybkYO26ciWMZKCKa5VUU5RAgEGNWDEK4YjxS8iaedFwxeiES6bhpvrF0+VKkKxPY3r4ZNTWVWL9ugxgaMZk0NPJGH/il4eo46kbJUsaQSCTQ3dNjjJw1R/o+rSiK8now0rW0GjlGKFJg2mB2lxYifkOE7OTdG7jtiyTlPK+h2HMuJQsjkiM5xuMFJ0RelsVetRtJuv4hkGPsFh5IWt+sS74uzyF5MPTmxfXSPkkjwWeQ+Exv1pleQlHOw7wCl9uMI/kxmLxKafvyLAuMW5SrZTDlMGWRuCxb/yDn4LlMmXuXDH2V0gCExVMU5RAgEEvCf3F5bD2xxK4YonjCQVemBy1tnVixei2OPf44DB7eiHe96+/wzFN/w7NPTcWNn74Rf3ngcdPEwxFh7HEMaDFuRbaDpnuARlgFs6IoyhukVyybJb3NFNAihs2+HYHboGe595jdjkmgp5eBPg+75FCjdHAEsk1xSS+2aFE4crB/iDnMR84vcSm+KZBDsffMv7SvFLht9rFMsmmDKYsc8qNA4nEEp5KgpqeZ7Y6N55htOmTJcjDYvMoD65ZIygGvd59sh7Iov+byYO9NX1lkfSAjl6IoyqEAH9aKuIhnsTSFfNF4BOhh8BKV2Li5DfF4Nc465zxMPnEyzjnnDLS3tSIIQnz1K181E6yIKTOjbLDnt/m6KP/ryWZRVV0ldlAyUxRFUV4/xoz2CtLSRp8I7Fv2mlp+QfRkaQO32VxBtK5pQ+xKAu4X/YqkpOFxsdpGt3oiZj2x7Wbw/36BXyPNKeQwJ8DyJAOOXuHxfOYckocEl4HbZYEOGe5jXcFKwlQLjG8KL8dkhylrb/AkJpcOZ5/tH9jkhMclTUzyZHnouOF17SrwHKzjeP12fSCj4llRDhFotNJiqWiQcrkccmLU8mKJHSeFIUPH4sq3v1tiOOBEhM2N9bj88stw5umnYvq06Rg5YqQYr16rLUYtoJF2XXRnelBdUyM50lyKxRJUSCuKorw+aEVNcw0jomlLjRQ1WBNsPKsF3whMClBPIsTEcEdFH25AYSx23gY2t5M0bq+opBfaCFiJl5Bz9A+unCQoRAglL+YfF7Xt0fNMsc1QlEzZdE/WYxKMeJXdngQuTZB9Dh0tRlSXhCL3Jd2S+GV6djiPy3UmJf+4lKl/MMJZovI8vlwr++zEKfwlff9gysDAcvQuGehdH6ioeFaUQ4YQgQ8Mbq5FZ9sWiC2C43uIIgfJQUPRMGywGFZ6KSqQK+ZwzDFH44Xnn0dKrNGkcYORjvslT3WNg9Dj50AHue6tGDG4VgwcOx5aX4miKIryWmFnP1eEalyCExbExoqEFDtNYWpsa2/TBfZfceKBaTec7u4yHfLynoOmeB5BsYiYqGPfKZr2wBShFVGBXg20uVIBZLKyJ0RrMYZCIUReVGYsLgI1X0AxLsI5CTm/CNekh4LE40gfxZYY4lkpX1zEcGYTkIpLOX1U5h12IUdlncSPfBRSckLJo0pqCqlZ4KSYXxZFKXMmCpFpy0vB5Dyh1EVyUUEqQCEZISfxC5I+n5JyVEge2VLH9CqpcLxshGS9i7i8Efg5KYOocV+ujO2i+RbA+2EdN1HkwbTL9rISJyF7jfwekKh4VpRDCE6lPXxYEzLdGRHD8nYvxpgGlh4NdrooioFjBxGuZwpZOAkXW1tbMGvOyygEYpQlbntrhyQIsWL5UqRcD8kE/Rq0zca8K4qiKPsQ60C1nlR6cymsK0T4pgsd+P0vfo5bb7kFv/r1Lbjvvj+JiOyBI5HorUVUFPFKL7CPGsSR6OzC4rkL4HkieOOSlwjxgi9SMy1iOaBYDpBI0NubR4UI1pXz5qBn01Y01rhwiqJeRcE+/+IsPDdzOqbNfgHJwEeuM2Oa8/mBg5zUG5l8EVVVCQR5H8WcVDoidD2nG5s2bsG8OYuQoDgXxU9NH+YDOebK+bIIjVdbrkmEu5TANDFx2Q6jUIQjeaakfuIIUcR15Xz0trNJxyGIimdFOURg0woxVRjUVIuEGM1F85aIHfTFAIkRk0NeSgyYmGmxZ8iJ0S3I433Cqafj6muvxfmXvAmIJyBaGfU1DShmC/Cz3TjpuKMRF8Onk6MoiqLsB2i2e/0SpglEbygUQ1SIsHQ6N2CFiNhLL74Qb770Ulx80WnI59tRmXLguZxtr4j17VtRm3aRyAOJrW2YN3MuEkkRtPEQXV3dSCalQkAeWbHpokZRyHWjtsJBlO3AxiWL0LluC7raN6E6EYjgzePPDz2KzZ2tWLZmPipjvvGMi+qVYkZGhHOil66uNpHqEZJeUsoQynoHtm3cigUvzxNRHkOQFcGdD5EoxkRMA3UVaTi+XFcmQr6nS14UcigUCqiIe0hGDtLy5hB050Q8sw12zAhnCmiuH4oC2v2K0LuuKMoAhh382EmaDuKqimq8PHOe+axVW1djjBAnQuFg8oxDKZxMJkUvJ4zdTiRcdHR0w4t52Ly5HW3bt2BoUyXGjxxiOnEQ9TwriqK8figBaUXzRR9PPTcdE449Cema6r5OglxQOJv2wGKoU2EWFW1b8fAzL2DoMccj7M6istoRARvgsYdmoWXbVsx96WW0BF2YP/UpbO+MMEqE6fMr1mLD1m3YsHohRo0ehS0b1uH5px/B6nUbEBaBsUOHYspDf8XCeS9j9aIFGD1oGOqG1eGee+/ChqWrMHtrEccePxJVaEXHlm2YNmM25i+eh0Ursjh+QgNenPoyZs9/GgvmvoQAw1FdH0eNk8GmZTls27IeY8YMxtOP/xUrl6zGmmVrEPgFRMUcYk4aUx58FMeNbsZzMyT99LlS37SgalAN5syYgVkvvwS3qhr19fWl+yE3xGf7aUdENP+JiI9cNh/0sWHJUkwYO0Li1pm45QyEukrdTYpyiFB6O+eAdT56OtuxdMFCzJ85BxtXrpc3/tDMOMhOFmExRDqRgisWO+VxeDoHkc+OIx66OruwSoxdZaoC40cNB3td0+KrcFYURdn3lPtU2WzDiGcxuzG2G5ZlLoyhvTOLeXPnYcWSZVi/dhVCvwdLFqzAMBG9LVta0NLRjlGjBuGJZ59FbZWHTVu249QTJqN9ywbMnz4Pc9kpfFAdhjfUYaMI66VzV+BvU17ACZPPRrwigQy24We//r3Y+RSGDxmHeLwGy5YsxMvTH8XipbMQRCFGSn0w9fEXRCCvlDpiNY49bjS62ldiiYjYimQSUQZIOglUp1PwgiJOmXwcRjUNxkN3Pwg/l8eUvzyALes2YdGcxdi8YQ062zbjovPPxapVq7Bh2xbMWPgyakc1YciQwaa+YX3GZTxemj3wUEPFs6IcIjgO5/f3kcv04JEpD6G2Oo13vO1yRIUilsxbjI7WTvj5oun4F4iAhvzns5+JGMaujh60bNsmhnk1jjv6KEyaMBIe3/CpmXehm1+fMStL07vat8fkx24h9l9oPOmlUUJ3/OufsC+9oijKIYgxr/0MGfuomFGg3RR6gjgGjRiFj3z4A/j7974Xp596OurrGlBVUYOmxmY0Nw7GpKMno6a2CnlJy855Rx93LIY2NWDimNHIS32wcM5sPHT//Xjs4YexbsUqZLoKSHrVGD58DI4+/ljEa0NMn7tI8jkBp595vgg/fqGMkHR9JCo8TDr+eAwZ3AxPKoR0LIF0shJjxwzFmBFNRtxycI4kKqW+cFDIZLFhzWrc9Yff45G//AWVyRRGjhiOGdOew7rV63DJhRdKfdOCubNm4uZf/AyLRKR3dnfCrUwiWZ82E3ixOuDX0GLRL9VBu2Xg1gAqnhVlgBGwk0jZ0gxMT2sTxZDPObjzzvvhuiFu/JdrMWpsAueeNx5jR1dh6/pV2Lh+Ddav3yhv++vw0qw5WLp4KZYtXoKN61Yi4QQ458SxOGFiFerTkfFOB7RNuzBer90TLdJXxLA1duw9ziIzf1P2MI9MTys2bF2HddvWYuXGxVixYZGEJVi1aQW2dW1BJupGMSqUOsn4kkQWzFFRFOVQJS5GjIEeZ/ZJybtA1i0NA5fLBeioGYLWrh689PRUzFw4C/PnLkOurQKRv90MJed5KXS1JuElmuE6KaxPJbBm+2asnDcdcxYuR0V9HKedchqOO+1inH/xRTj9jONQPbwahVgLZk5/FovF/mfDHM578wWYNf05/OX5pxGLtqEimUa3z++YNdjKETlyPYh52wG3GX7oY9rjL2Lrgq2yzjL7SAUeugpZFPN5zH75JQwZNwKnnnMqstlOJGsdnH/BGXj0L49i0qQxGDZhGE447nSce/mbccaFJ2NkU5MI8yTcmAdfbDthXx02M6S5L9U3coMIZ3Yhsd6IAxRt86woAwwaEgpOtgOjgOY6jUyxWMQdd9yBefPm4oYbbhCjypEykoi7DhobajFm5BDU1tQhFXexfPEiPPn4Izj3zFNx1ITRGDtyGEYNb0RlOm3OwXyZ/77sKFjS26X8KKS5baaWRQ7tHVuxaMUiLF29TAT0evQUu9HW1YFN2zZhw+b1Unm0mIlbEom4iPqkmSFLcuSgIFJGk6WiKMqAhvKPlqu8zXNVVbXZT2+zkYeO2HdZTxUDeKkUMsU8FixZjKUichcuWIwly1dh8gmniJD1cMzkY9De2Y6q2gYMbqxCd7wCQxvTiCXrMPPJx1E/bDjOuuBC1FXU4uWFC/HyvPli7yfihFNPQDyexvMvvIiauhqcdNKpOPvCt2HeSzOxvbsdg8eMlvpiKEY1NWPwkGNQM3g0BtWkkC0Ap504GS2bN2HO9Gfghi4GTTwFg0Y0oTpwkI25qKxwcNTkcZgxfw4iN45hw0bi2NOOw7CmRrwwbTHOOv9sjBndjOUr1+PRvz4JV67xxJNPQaZQQFoE+6CmYbwLOyP3w7R6lptE7cxOkhvknkwYO2rAtnmOScXcK/cVRRkI0NNsBbRdMkyZ8iiee+45/NM/fQxDhgwS4xgXayzq0sQpdbgw44jKE711Swtu+91tEvcjYuwqjUGPmd6GJeHMfK04pzDfd0Tw/aLkybx9tObasHDJfBSDLOrECNbU1otxlGOx0uc6Uya5tiAM0Lq5E4VMDo119Th2/LGIx9JiUNnzuzdrRVGUAQzHeebUKJ09WXzl2z/GZe+5FoOGDu0Vz2LnaMt7xXO1H8KnvY7LUVlPBOxI6CIv9j+ZdNEteZRMs9QDTlqOFLAZcTSn2HQvhibZzroeCk6EmlgCmaCAyHPgFEtD26XiKYguRzLhoFgsyLnS8LPtImYdFBKVcMQ+V8OX+iaFLhHFyTAn5XOkHHk8eu9fUOHmsWTxMpz57msw8aTxaCwC7UEM6bCARDpCaz6DpFMBL0igJ+zCI3ffLRcwDG+/6k1IRXI+34WTTKEg5wnkmrwkR3uSsrDtST94f+iZj/kxBGLynVgG0x/4M9568bkYO25MKVIvtl482KhPR1EGGBS19p02n88bQzF16lTMmTMHH/rQhzB48GARzomSyO6Ny7bQxshKMk6zGvgZMbwUqPRg09jIARpuCczfGp99KZzpJSYuvcaxED2ZTsxZNFsMaw8aRgxCqqEGRZZDDH5MQiQGO4gCqVR8WfcxYsxIVDfVYl3rWrw47zn05DpL7T4URVEOUehxLk0EUoIikR0GsxJCjpIkgjEUKVZ0PGTlWEHsYp4mNJWCTzuZSJqxnMN4EnWVLrZ3ZkW8xtFFoc2WfbI/J+Y/8lLIFum5TcLz0siI2OWwpT0+hy9NmHbL8UpOf5IwMwU6olJzhbg5N6f/DkWAu1KGSOqE0UeNBVL1OPH8t+CoSaPNUHMZX+oaSVeUusMPReF6IsBFHEv2KIpArm8cjLMvOJefD5F3UojiaeSlXDE3IfZdziM3IcfJUyT9K4O5NYcUKp4VZYDBqbcpcn2fg8w7WLx4MX7/+9/jggsuwOjRYsiSSTN+Jo/R8EksOF5CrJRsm+YSNMZ82y9KPhyUnqqW1rhkqAj32bbUVqi/ISSLHflERjgvWbpQDHIM4yZNQkVjHcJEXAx7HMWClFGMryfrTuTKOmuWSAx5HvUinsdMHImOTBvWblgtOfUqckVRlEORMmHIVRv8lIsCvc0inkVFQ7Qp/DhFbCBiVGwz7XjME3FdaiudoUoV8VlfVyei1EehIoVYPGXqADGpJjjxBILIM+I25rhw2SlPjgciemOi2vO+K5FSKOakLhBBnExS2Eq+UpCA9YjDCVdCHH/mSTj3yrfh+PPOk7zy8HNSl0j9QgtP2+0XPLgitgtZmm4X6XQ1Ln7zW9A8rA6dUn+FYtvz8tbgS5p8kU4eD2zb7MrLAMd57h/4AfVQQ8WzohwkrNi07ZoJlxTHVuS2t7fjtttuw3XXXYezzjpDXuo5HXdkPM8mifyPszuVYssDLYKaG55DzzT3ipGU46adnTF9skfyNuNB93qg7bneCCZnOYcvVpA+8NUbVyMfy2HcqFGmA2BPdzfCoo+kF0dcKoSQFUHEQfnFZMdc2VeFoBggm+OnShfjJ47Hxq3rsbV1k8QIpIIolb50BXK/JCiKogwkaElpl0UPcs1MgR3KP/b94CCjpYFGS0vTIZpxXe4z+lVEs6x4JY9yUY5RsPJLXY7iUuw1m1UUCyZn0/GOcbj0JQ0dFfSTFCRvDrbkRxTCcmLZzw94Ma9knz1PBCvTSZY9vedhGVh2kbnwklXIBiLa5dwB6wivErFE0njDI+Yd95DlF02x00VJ43PCFMSRi8VNXhXJCnMdIZukSBpHysbL4jUXKaiZpn+QmxZInn6itM3JVijVKeYJ6zxbR+6L+mpfoOJZUQ4SNAL0/pY3o+DSGolMJoMvfvGLOO2000wwwrgXxuOwQTR53MvU5TaFb/M8xjgHCmPnJHRkO9CZ60Jtcx1S6aQI5aIZc5pjSud7epCggI4nS551Vhy0/lFc6gwPyXhKsijNcNXQ3ITVG1YhkxPhLYZ0B+XriqIoB58+cUe9S5vOr4CRD9GWInUpd0vtoUXmylJELPubRFSZIitl6VHYSh4xn7P5SRrWDXKMwWM6rjMPSeeJfY8HclzSubLN9NxfiiOB25LelTyZjyehmPdREZczc/hSiRcFlPFs0kd9LnWF7DNfJCVNGEj5mY7nFdvtUw3zXIzvyD5PSuJHYstZx8h1i1jndONsBOiIgnZ4LRKX03izGaEph6SPhWLzJd9XBDkWyfnl0s39YjqWyzp8yEARzRbtMKgoBxHbYY9Gq9w40ON86623mjbPH/7wh9HY2LjTm3e5yN6VUVm/fr1p6vHJT34SlZUcn7MUf1dx9wWmKPQcII95S2ejp9CFIcOGyPVJWen4TjjwCz6KuQgvz5qPySeegEQqQLqCnR5dFPJS49ATzXlixThHvB/5EOtXrcPEUcdgxLAxUimIqJYT7XiHOHAvBoqiKHuFCMGOrh586/s/xqnnXITGYSN7u27I/4yd5DpNWcl+HzhYB4g49ThcnG/qHS4poB1XxDDrB1O4SOy2CFrZx7isoxg4zwCrD+ZRGpa0VA+V9tm6pZSe29YpxHWmKe0vLfvDVGYZTxrRHvW0YeHMqXj7FZeZporljqOBgopnRTlI2EePBsaKZ7uPwpnbV199tdlHQ8fAfQykPH1/DrR4pj2MEKLHb8MLs6eisq4a9U1NiIqchlYOirB2RUXPncv223fjssuvxMVvOkvSFOBxooCuIuJxNs8AimER6TTb5WXQunkzauJNOHbSCZI+KfUS7wUNPe+XimdFUQYOJRsbobW1DT/48f9h3eYW9OTy4Cgc/TEjDR1AQmM7XTOyUSqZwurVqzFm7BgRxj58NqlLJlAUMc0vgEWfDTKkjOZ/O+olitgopD94R93Df/RW222JbI721TWyYePvFkkT0uMej0tunIOATfkC/Nu/fg7jxo7tE8/7tQ57jah4VpSDDN/qaRD4KLIj4L333ovly5fj+uuvx/Dhw43hsHFseDUOhngOoyK2da7FzEXT0DxyJOKpKqSdFJJi9/xcFh2d3bj9T/egsXkEtmzejk9++nox5Dk4sYQYoiQSXqlTSmc2g6qaKhHKPWjdvhFeTxInHHsa4m6FnIRGtOTVUBRFGUgYGysv/2KgkM0V4STSYt/EXhmzW257jbwsrR5AqPb8IMSG9evw8X/6BP7xH/8R7/uHq6R8jghXV0RzIOK5ZFspivvXGbsSi/vsKnrPRZFP88624qGUxwzJKuz3Ouw1ojWQohxkrFGgIHz66acxe/ZsI5yHDBlSaoMmwTJQDMeuYHLeco4AAHtzSURBVAWRL2SQ9zPwxBDT0MaTcdMEg87nlu3bzXijF118sVyHiy4R0x5HCZFjrhtHPptHVoSzx/bQ8rJQDH2kq9PGMxKG8vIgEUvOZjVbiqIMLChMjbikjRZ7lU4nxFKxvW+pbTO7ze0IbAPsH9hg2htzoDoff3vkYcybOQ0//O7/YNO6lSL4c4iKOSQ586GUzzNlZnvtsnKa/UUJsp/rZnvHsb0ONs1OQfazxZ7UFZ4j5YyV7L3xRPfWjwMNrYUU5QBgBTCX5YbAdJoT0cz9y5Ytw2OPPYaPf/zjaG5uNu3NGGg8GGdAe1spnIM8Yl5cxG9J8MYTMbi+iOhIrtkrYtHCuXjp2Rfx7f/3Fbzw1N/wyAMPYMWixfjsP38Gd//pTmR7skh6nMLV6R3fOkKhyPGqd4xFXfKG7HiZUBRFGQhQMzvmf3HATcoeF3FXbLfLWT9KnaB3Ctx3AEPkiC0W27qttQ23//GP6M7lsGzlSsyY8bKUlUPbmW6KYl9LQ6CadOXlNOsSx673P7a3wabZKch+07OS55VzxDwz5rR1Ftm6byA5j1Q8K8oBoNwI2HUrqCkUV4oR++Y3v4l3vOMdGDlypBmurpxy7/NAhUPOOWL0gkKEkB1O5DILfhZeogJ+sQLt7UV881vfwre+/XX85xf/A1OffgYVcuzGT/0z2Cs9YWagEqMpBpS3yLSl82PgsHxmfNDedw4eVxRFUV4bxWIRTz31lJlwy3ZWZ/O+np4ec5z1DMNAEqkDFa2FFOUAQG+zFcA0WtbjTNg++f/+7//wta99Deeee67xNjOu9VDTkJV7XwciURSIWHZQU9mAdKoG+ZxvPMSchruru4BUejDGjD4WEyYehWTaxYmTj8EVl74VxXwRK5YuQ2UqgVy+AJ8zJbqhXK8Y8gDobM1KXvyE55WEuVXQpQ+kiqIoyl7AeoSdBDlvwLXXXouzzjoLv/rVr4yjZv78+aa+YRz7tVPZMyqeFeUAUN7sgoaJgSKaQ9LdeeedOPvsszFixAizn8LZxqdBK2/mMVBhuTmUUSpeiab6IShkC6Dcjxx5UYh8ZPI5nH3+ebIdwUs6KAR5vPVtV5qZtLKFPFrat8n+OHz5l811iQGXexY6KGZCNDcOgZnohecxopkvISqeFUVR9hbWNw0NDfiXf/kXfOUrX8G4ceNw6aWXGqfNsGHDSuPtC9bJo+wZFc+KcgCgQbLeZCuMOQnKHXfcYbzKV155pRlpgwbOxj2kMAKfYt/B8CGj4ToJ5LJZM4RRsiKOnN9FWYzWzjbE4iKyayvhJBMYOnI0KupqcOb5Z6O2qR4ep/CWmGFQNB0K66oaxbCPMp5nUnoBUfGsKIryWmA909TUhPPOOw+pVMrYUnbImzBhghHS3FaP896j4llRXgvUbL2hNNpl2Q4TSpS2dvyzgpnimIFtzB544AG0tbXhhhtuMMYskUgYY8bPZoxb3mxjoMOxP2NRzIzD3FjdgKpkJTq2d8JlU4sgj1SlAzcB1NbXIlsooqOnG935rAjnKlx4yYUYM2EMuns6EUQ5JOIxhPIi0dXaiZHDxiJuOrKUKN1X3g818oqiKHuLrU9ss0BbH9n6hktul9c9yu5R8aworwKnujYDPJSUWwlZUjCaXmwM3C9xAp+d5Xq3eUiMEQ9YTzKFMIUzR9VYt26dmT2wtrbWeAVosErNH0oeABsOBWKOh3zeF6Er1+EXMH7IGHRt6sGCmXPkpoQI4KMQC5ANfAQiqJMV1XASMTPOsxfn/RJj7vGzYR7FbCc2r1mL5prBGFI/0ghwV8Sylcwx0yBETZeiKMreYusSLlnfsJmGFc7ECmhyqNQ7BxOtgRTlVeDwQxS27KzGOTp8sSv5WISiE5PgoCChKHF82XY4NFEoEUQz0xPrcgigvMhnEc+5XM4YpRkzZuCRRx4xwpljOZeGZSu1dT6UobzN5rNmiKHOjm489cTTmDN3DrZt34ZsLiMRxFgnOTxfBoV8F5KevCSgKGI5K6IbqExWws8EaN3cgbibxthRY40nW1EURVEGEiqeFWUvcHqFMaVcELHtMgePLwWvdxkLAzkugZ5UeYGnz5lC24+7RhizWcaCBQvwxBNP4EMf+pDpvEHRzP0U53Z5KBLI9XEIT9eLY+nS5fjdb2/D6SedgX983weQ8lJo2bod3Z1diIo+qtjejvcrKIKTsVZXVCLI+Vi/fB22b2jD4PqROOW4M5EWMe2JwFYURVGUgYTWTIryKkSxEKKMReaJSJbAEZhTFM0dnfA3bEDX8uXoWb4CwYaNyG7ehLCrHTE/D86SFDoRuos580lsy5Yt+PnPf44LLrgAZ555phHOFMs2HMpErmO88vPmz8d3v/t9HDvpOLzr796DScMnYfKE4zFu6Fh0bGrFkjkLsH7lauS6erB6xSp0t/dgjYjmxfOXozZVg+PGTcbRY45H0q0U4+T0ziioKIqiKAOHmFTa+l1UUfaASGARzhGcAChmcmjduBnt69YhvWEzMt09yGYy8Iu+xAH8qgTqhg9GqqEByaZmNI0dAzddgZWrVpnB6I8++mi8613v6mtbRmybM8LHcV+0N+PY0TzfJz/5SVRWVvYJ9X2R964oyv157vnn8OxTT+OUE0/Cmy5+kxk/NCYvGaEbweeLRFRALtuFTZs3YlPLVvz3N7+FL/zrv2P8mAlobh4sgtlBwktKPDbnKI01GnJKWc5ApSiKorwhbEfBbDaLT33qU/jxj3+MioqK3qPKa0H9OorSB9scs7GFBFllP8CibOXpc+aMHd3tWP/801jxxKOozHagfvwQjDjzeEy++BycftkFOPnSM3Ha6adi9OChCLdtx9qnnsWqp19A+4ZNuPfPd+L0M0/B5Ve81TRtiMKYmVSkv5jdV+LWiuVywbyv8rbv25ytius0yM888ST+9shjIpovwWWXXQYv7sktlJvolmYdjCOBZKwSdRVDMGnsyTjr+AsxuHokxgyZiDHDJ6IqWSvCuVpyTUj8eF9ZOXa0oijKoQD7xdA6BoEvNp71SGmyKO4rD9zTf9+BCCHrBFkGLJuYWMdzXxHnYAXWvuz2w3WLrcMsA6lfkIpnRdkJeVj5fIphoXyLmae6iGJXJ2ZPfRob164ys+MNbmxCRWUFXBGJZhwIeaiDKEAskYTnJTBq9GgcM2kSOrZtwy2/+DmifAHnnnk2UqmknEHe/l0R5JL3vhK0BxIaMApnwh7bs2bNwrPPPIMrLr8cZ55xRmm4IzuFdu/l8R7J64Ks0avMBhkuTjvldLS3dZhRS8rH0tiZQ+/+KIpyZGJ1nutKvcAvin3tznhgRyhZtZ337e8QiJBndUMxyvJRRkdGre46/gENUgbeE3PLWB4GKVv/6nEg1Zf2L6soColcEcFiVOQZ5WPqim1J5H3Mm/ocejrajWfZ41jM7NwnhrEocR3ZhhgjV/YZkei6HEwTNY2NOOboScYTfdq4Sah0XMQdeoSpzq0BPfSgAaNo7urqwp/+9Cfcd999uOqqq3DaaaeZT4JskkIDXd4cpRymZ+fI888/H9vk5WKgTz2uKIryatDmsXkf7boZ3lTWQqlIqPfYfK10rDdw+wAHhzbZ1GsUzIEZ8DMKODzoruMf0CD3hGI59IPe+rH3C7BQLphVPCvKQIQ93uQx5lTQfB82b7+FPNpmz0Vx+3acfcbpyGR74IpYLnIq05grD7OLohggvyBBDGYYxlCQZ9/4ZcVSVYiovuz8c1GTj9C5YQs1s6QR4ylGwHzWO8Sg15mB5edY1cuWLcP1119v2nLbT2oces9UJLsxdPZYXV2daZvNbXqruVQURTkUobWjv4B2zOfY9rRrYud8MYsiXY2Q7gvcPsABDidBYRXEek7qLV/WXM7ouuv4BzSYe0LHEydokXW+fLA6GcBVgnYYVBQLtazYlaJYQbZxTsrD3Ll+I9Y+9lcMGtmM5tFDUcjlkYinzdBqWzvasXLTZpx41DGoFKvpxwOE2TiclKT05M2+UECsGKEgBqFnUzuWtG7CcZdehPSgJnhOnAN4GIG9P9iwYQNuu+0202GwupptifcdnBXxf//3f434veaaa9DY2GjEb38PMgXy7gQ0WbNmDf7whz/gC1/4wqvGVRRFGdiIlBLFRzFaFPE8c/Y89GQLKHAcfzna38YdDOlFBwftNJe/+MUv8NGPfnRAfPnjneCd4ZCwEZv9yUZFRQrHH3c0aqT+4n3j/RpIdYSKZ0WxlBynyMujHMFHSp6MVS/PQ8vfnsDJF56Foghir6ICsUCEcj7Anfffjwceewz/+81vY2hdPXJOHimvAblCXgR0BC+TgRfKWzU92Z0Bpi56GeMvORfDjploxHOpbcj+MQb7SzxzdkTm++KLL+LrX/86Bg8e3Dc+tRXQ1qTsrtkGofFmk40f/OAH+OpXv2ryUPGsKMqhC72lgZlttb2rB//9ne8jka5GVVWNHIv12UNr5+yXugOJbVbHJndc2iZ2B5uYcSJJOUwTDpgJxVq2bcWnP3Ydxo4ZZcrN+7WnOuVAo+JZUXoxPaADMWgidguxECk/j7lTHsGgXIihY0ciFxUR8yIkRCB2tLXjt3f/EaOPOkGE9CBcfunxSMVy8HPVkou8JTshEikHhWwnkp686RcDrFy+GtlUEie9/e3wY64IaDEE+0kvsjnE7bff/prFM82BfcsvNw1c37p1K2655RaTHz3OXLLjIAVz+dB75XCqctrFKMah/JxSZ0K2tpP729Lehu9897v46le+gnQiyZOYe2/qFHmx4Ic8g1salcSKc9/n8HXOgDKkiqIoJQ+Mg5a2Hnzjf3+KK9/1DxgyehRC6sLeQIx+FvNlt0vL0oY1a6xHzC4JpqkfLWKvSeQ2CThxl9hYbrKPNps60PVDo8s8Szq9VMl4vhyzecsuY2YlOL157Q2uKQPrBtmQPOyLwC5z2F2+PHk/OCmvKUdQlDLGOccYZjx0O9580fkYNXpMKZJg66eBgNY+itKHyDsRZ+ztm5BHI8rm4W/vQPPIMWIcPDi+/N+VxzoeYeXWtRh17LE48eyzsLlzCzoyPfK2nEesOoUtXW2IROD5HT2ST+kTGUflaBrUjC0iQEMjOAfOo2dFcrlgpoGygSKVYvymm27CiSeeiA9+8IOora018Sia9/jZT0QyZx/klIthTO6pI0t5mSjG4nATlaiobMD6TdvFnnroKYrtlDiU2ZyVmx571iS8f+XNQmyZFEVRBg47xCLtO+sKCs2cHyIXhMiLHeN4+AVRuGZdjBz7ybCJh89trptjgTleMIHxJTA944nAZDD75TjTB6IlA9nHcxREEgcinH1J40teTFeQ/IpRgJzY4rzsy9nz9wau9w9Mx3L1D5mi5CPHAzHFnD03J/XcrtKXQrSLfbsOvPZSnyGOCsJRnKTMRQ7zt+OeDjS0BlKUcviwyn+OPMBhTw5xEcxuRZV5oI3HVMjksnji+Wfx2NNTcfNvb8dTzz+GLdu2I+8X8Yvf/Ro/+vn/oZAvIOmKQJS8KPooAOmp5ecovv1zIu+Bgn2TLxelVrDSy8tOgT/72c9wySWX4IorrkBNTQ0KhYIxbLw2m35XOGKwOWwdO4QUxcqbDjSy35d7le/qQjwo4rEH/oxHpzyIl2ZNx5w5L6GzZQuCYkZiSeUgQprnYLCGtHxdURRlYLDjix1NIm0pzRS70oSu7PBk2y4lsKkCA+2jCRKfw9uF9BrToyz7Ik+WDHGpQ8w+puc+iZsQ2ytxDbKNuKSVNBTTkRQg5ondlHSuLDkCVMjjDL3nZ5qYWUq91i8wLR1J/UO8Qo5JniwHBTvzcZOlc78i7CbvXccVO8/rN+eRsst1yMXJhfVe3wCEpVMUxSLWzqHhkWeW4pFGRN7x5eGWYzRgYgm7MwVkuvJ471vfi3e8+W249OKzsW7NWnR1dGP0iBFiB+SxMkY0RCyVNG/R9CzQ0BWZgRgE/huIWNFsBfGcOXPwm9/8BieffDIuvvjivmPW48z4exKycuUSp9QBxJP74UZFdGxZhZlP3YeHb/8J4m0rUVvYhI7VM7Du5ccw7YFb8MgffogHf/9TLF/4stz7Uv4U8bZMPOeeBLuiKMrBgHaJ9irsNYnctraKu/qCibMjmOi9Ji3GxBK4dGSVQbSl2S4dk3VJQ23qBJKetlF28zS+2FrmzSFRmUakqskrLPhGVDO5sde9eXsSzBB2/QJLGVEc9ws9nRk5X9HEoY7nMvRDWZbK+crwyrx3FS8m12ReMqLer46yLLV+HrioeFaUXsx7LoUvjZA8uvHqCmTpOi72IIwV0R3ksK2zCyuXb8LoxrE4cchETB4yAWedcBxmPvciInn6zzruBLhiqAqyURDB3ZPpRjwRNx6Fnp4MUqmUOZfkKsbIrB50KEbtkuKYxjWTyWDp0qWmQ99b3vIW/P3f/72pBCiauSx5VcSgStgTHAubXpAgJ6I7LGLpzKfx9c9fh43z/oorTh+Bz/7DRfiHCybineeOwrvOHIaPXnES3nHKCJw5oQG3/eJ/8ee7/2A6KfK8tmwm31c5r6IoysGgJJZpG0vzCLpSofBLpijbvsBtNpkoNa/YEUx7Yl8qEsbj5062Z2Ywn+sCSSeiWUwfRbMj0VxfhLLUXFz3877ps8MqK5D1MM+djB9DmpN5SXa0mzGJYwKHqmO+VKv9AsvBZhT9A/vv0I+U7e5BIZNFQhR0iip+F3nY8u9N4ERZvixp4wNZmvtg7uLARcWzolj4wIrBY5MKTi3tVKSBqips375F9vuIi/Ctrm3A5ONOxLv/7r1oaqxDOuliwrDR+MK/fA7Dhg4RnV2AF7pIJJJIVKSQkhAU8vKW7mBr63bUD2o2n784s5O8yO83HL63c8ZDmh+KYzGaXLWi0wpmY0yNsS9BbzIN2AsvvICf/vSn+NSnPoULLrjAiOV4PG48wExj0zH+HhHDbV5IXB+PP/BHzHjiPnzi6ivxzktORWONlNHpgBOX+5PvQSrKwvM7UZkO0Vzl4p/e/16gdTN+/+ufYtOGNebvIvbefBkY0FZVUZQjEppXmid+aeMXNzH2ZtuVHbRb5YFfKF1Zlr5CMmFR9rP+KMWPiR32WCeJrfaMzZV9bNIgsWNOhB4/a/KhE4Yd2V2puypSHhJyrDIh5xZCCtiC5C55xWJ0Pkh6OW9cdsclTx7mRGBxileWSdIkJU4o6/QsJ2hnQ55DVmRHMuaiLh6hvlpEdDINN1tELl+Qy5T8g4IR7ilek+Qd5/VJXiwj61Zeq9neRTDNGyUa+76Ye8P6y2FpBi4qnhXFYqySCGd5RTe9meXhrx8yHIvmLkasEEO2tRMVTlzetj24SQ9RMkQ+3y5v96682bsiMCM0DhqMcy44HxXptPlUFmZFGEpWXN/YIuJ5yGCTLw3L/kTe3xFJeUqf20pak0uLFcxclotnrnPs5WnTpuGzn/0szjzzTCOUCZfW89w/ze6gnyImLx5PPHY/Nq+Zj7dfeDImDqpGIsiKPc0iJ5Y9JvczkhcOY7q9BDOEJzetUSqAtxw/FuMa4/jDr3+GTRs3mWOkUGCbaEVRlIFDxEpE7CTrDyueje0tmdCdbKkjopQhFlBA0ktdwJYNGzHrhdnGK+16YgelmvCSjqk/3ISLnAjsRcsWYdHSechGebCZhpMG8n4BSZ7LjyEodGPO7GewfP1WFI27WU4o9tTPdiOVlCJJRZBiOf3AzAtm2hr7IqRFtYfFEGk5Rukd+SESvmO+qNJ5Epjmdz6ibDsWLHgWC1esxdzp07B6w0oEIp7ZSZLmuegXxbbL+YpSZr4EyM7IfKmUfGQ9NHXszoH1Lpt0sG6khfekzuCmaO6dMHnxwABAxbOilMG3cj68Dh8NeVAHjRwhRimBXEcPKrwKxMS40Oh4NAJRAQkR0alkUmykI0ZDrIy8lZ997pnI57Ki8MR4xOIIfaAzk0W8sgqjJkww+RoDsI+MwK5y8el7FqEvrwFinEqdSKTkfU0frBGygR0A2VTj3nvvFcO4AO9973sxfvx4E58e5/K4rwXf97F66XwsmfkMzjthHCrCDFy/R47IPaRnQaw3bWfcdI4R4y/G1hhTEdeO34oKtx2nTxqK5pSDeS++iGK+KBWCDy8VL51AURTlEIRf0qw1pT32xFa3bGnHrOmLRYjGxcbFjE0OchEqxQY7yIs9zmD+/Cewce0KVMQSqKG6zhZQy2VGxHEQijAOMG/2LCxfvg6hiGYOm5qSOqA+noTfmYNXiJB0fcTpq3ClhpA09AqnigESZqjQCGkR83LU/FeVpCc5hOdn4cWl1G4ObZvWY/6iRVi9eS16WjYDOSk9J/4KJF/TTFFEODsW5nrEjuflBSCGooj2oL8aPoRxvyL0rivKEY3VhTRkfKvkJ69kKoF0IcDGDZswbPRYujzhscewCDzOIhgDpzmVt2R5K6fILEomaXm9T8i6F5UEtZtMY8mG9agbPgzDjj4Kpic0z8DzUalzIfteD8yCJri0LAVm2tOSwZL5i3H6aacjxQlIxGjxDOWd/EzvbjmvFcT33HOPmbjkIx/5CIYPH953nNj45LWUtb1lKx6793ZMaIrjpIlDxEgXpBysNuQFxaWPI2nuD/yC6SkuJ5H/XDhSxliYE1Gdl3UfQ4eMwoyXF6G6sRENQwZJat75V2kyoiiKcgChXaN1zBd9PPXcdEw49iRU1FSbY5Y++ymL0jqbNARSIxTRuqEDm1Z1YvLZR0sePWioqsbq1Rvwo299G48+9SBGjh+HtpYFWLNoHe754z2oFHU7bsIYbFqzCt/9+jexauVKHD22GcuWLUBUdTRGTxoiYrqIXGs7vvofX8YL057GsEHDUFddwB/+dB9+d/cfMHv6TJxw/CmIRz341c234q677sGYodWoaBiM2/7wR/zhN7/BkKFjML65CrPnzcNPfvwtLJs/D/UTzkIyxuZ2XVgwby1uvuU3ePHJRzB07GTU1KTwx1/fir/c+yfMmPYcmkaPR11zHVyx5VKTlK6/DN4FBjp7eEvikY81yxdhwtiRqK+vM3HKeS110P7ilVehKEcoFLWmTZhYQIpbYwiTSdSeegIylUksWjDffM4KI4o/dmzIy3qReq/U9lfSx+WI5xcRy+YkoohUEYaPT5uO9a1tmHDSyciL0ObIG4G8oYvi7hOurxempo/AeJUlLwaO74lI3v6RgNggnqYUUVboSabhoRDmBCcU0i0tLfjhD3+ITZs24UMf+pAZUo/Xw3gMLCO3ubRtpfcWM+xc1zacctRIWbbKHhHv9OB7aWTyMbw8fwW6O4sohC6yPT3IZ/II8rwvDlw2EXF5bh+DG1wcPaoWqxfPlpcSimbP5K8oinIoYprRSWATDzbuYDthR+xzMcs5bh3EE2kU/Ty2bVqND33gH3DVe9+BF56dh0Ku2zS7+Nq/fR6zpr+AdWuW4/5778IH//EqjB05DM8/+yjCQkZsbCWKjth7L4O5M2fi4nMuw/uvficennIv1m+Zi5mzZ+OqD7wfzcMG4aX5i/G3hx9EXUMDPv6ZTyMddeKpZx5DZ74HN1x/Habc/yRaVm7CT394C658+3tw6rGnIJsLsD3Tgq1rXsaM5x7HNR+6Cldcdi7uvPcvWLp4GRoqa3Dd+96LMNeFbF6uS+qg11p/DGRUPCtKL6ITRQxTeMqGBDbh4JibQW0ak847C2FlCitXrzRjNVNhB4EI50RJxBWLFNQi+CiK8zlZBujp7MHcxYuwqmUbVokwffRvf0WmIIZR8vT4SYv/xGDa8Hoo2d/SWzjzKPVWlnMnHAkuOkVn9shT3i0iNNvrqLVv7Wy/zDGcb731VpPmuuuuQzqdRlJeGGxexHqcubTre8v2zeswZlgz6mvSUhkk5Ppj8N1qFEX8dmQCPPLX5/DXJ59HMZZAUgR6Oh6XioRNMhKis1PyIuDKXeUbQDfGj6pB9/YNpp0ge5AriqIcqtDRwbbBxlkjNjkutpWtL1wRvEVRmjRxkVjKbG4bVq9YjPlz54otrEI6UYFjJx6L2lQcTc31WLNmJTZt2YD169egvbMFcTdAVTqFguRRiHxkch3YsHo1sj3A4iXz0TS4Ah2F9ahtbsSEY49H7aAG+HLi9ratGDluDJpHDsLko0dg4+aVGDV+JIYPHoKmuuHo2NSJbVvzOO640zBh5FFIpqqlEolQWxFg5LBqNA+uRGN9Evm8j9bWdgxtHoLJx0xEbTqBwJdrkqrV4/h5hwkqnhWlFz7WHjs9iLjlhsuOgfIv4SdROWgIjrr8TehuqMKLL72E9o3bRP4Fpk2zF3im53Ks0CXCLovQLWLxphV4+KVnEVUn8KFP/RPOvfIK/PWpZ/Hd//4etm3YgkLBNwPCU6RSkFpBa4V0ebAUw6L8TwyuaFp2l+ORmM/WzbJbCrxdhOkzC5fiR3+4Db+4+x48OPMl/O9dD+K3jz6JlRs2I0FvblgQYx1DKAJ03YYN+NWvf4Jhwwbh4x//OBoa6HEOjYGjp9l6n8vpv11Oqbz0LDCI4JVQbN+GwYPpZW6RCA5SoY9krAC3mEBXawbjx0zELClnS0srigVJIsY4QCuceLfkJfGQLP0t5GB1MoIrhjoKe0yFoyiKMpAwdknslZhXEziGsTHUuyDO2bLEnoauWEra+aLYZ6l7KqpCVIiRz2czyIplnzbrBRx/wjEYM2gk/OxSEdaDsHHrVgypH4S1bS1obhwm4nUixk0+GUefdDKS1SPR1ZNGyt0i+cTQVFWHMTVNqKx1cMm556Eq1YRU3TB0hwkR7yxjFnUVYnorj8KaRcsR7+rEc/NWY1iFh+6la7CtJY9c5zq4Q4eiri6LDYsXYlVPAUHXJqQLFSh2VyFn+vvUoBDkxW53SFmHSro2tGzairbuDIJ0FZJynR47hO8Ce7840ogsUJC4HAVkINt5bfOsKK8Gm3K4MXDmo6bmJsTjCbS1bEP7us3YsHwjtm/rRHtrB7Zv2YJVmzdjc2eXiOYaTDj5ZBx14klIVFWhoanJTG3ti9h98sknsWrVKkycOLHPy8tAYcqlFdM2mCLI/jAWiLCXY3yDl308VBDrsnhbB25/bgl+88Ia3L04h+e212NJfBzWV07EWm8opq/txqy1XXhpXYcYrxwGNdRhy4pV+NPtt2PsxGPw1ivehvq6WjlHydNshpZ7He/VpfKW1imi/cDH8jnT0FgLNFZ5JsdQxDuHZAqdEA898TSOPfUMrF63Fum0i4njRpuXAX7ElJsgRlTEu1jUmBPAz7EJTA0Wb2hD8/CJqKquk3xK51IURRkQiNijDcz1tnk+6piTkGab5zJbZW06dxptKDacI03QqRHlCli1ZBk2b9uIZUsWm6HiBovwXTBvCcJEAnVDh6ChcRCKmQJWLF6B+tFjccoppyFdWYOZs+dg1fpNGDVuFJKVdagdNApDhzUjyucwWMTytLnzsG7TaiQSgzH6qKHww0ZMmDRGxG8nqtJ1OHrSUdi0aTMWL1mA+kGNOOGU07F+fQtWrVmHU844BWMmjMSQ4cOxcP5cdIkZP+qkM1DhORgpcSsbRmPIuKNQ6RaQCVM47fhjsWLJCqxdOg8LV6zAuW99D6qTCQS5rNSlu+jsLbeEd4X2nhUF56HduGQRxg/gNs8xqZQHsLZXlAEAB3IX4VyMiiLnxNBxUPdCAfnOdnS3ZlDMBcjnsxBNLUYrjYqGeqRrRYx6YiQc+qdFeIeltsYM69atw1/+8hezPPvss82015w8hc0o2CaMcezSNpPgY+qHeRHLIdIxT/Sng07HxR2z1+PeuS2Yv70T+epmOKl6EaAeemJJuKKwI0mTCnOokbJHXW1o7F6ICwelECyZhavefhlOOP9cOW8cCbFFgcRzeoVzxOYS9MC/ZmhO+DnSN22qn77rVxg3NMSYehHDOQpjuX+pOJat6cJ/fvtmjDvmLBR7skj43fjS596Lno5uLF21DieefDRSboh46CJM+Yjlk+h263H/rKW45O3XYPDgkXJ9r13gK4qi7C842QfHYG4Xm/aVb/8YV77rWjQMH1pqgiE2nMEKP/MFUFY5upCZfVXSxjnihdjfIOGYibbcmCv2nM04fDjVKfQE/DwXQ1rSJv0YMnGxq4HkI3E4xCoSnljYLDzEUQjYA0fyixWRDNNw4hGKhQz8XAW8um7kgzQKYuNTfk6SVSIocmxmClNJFRObKxVaIcfyShmlLDGHNj2GCjdAFE+ii19lgwBVxXZEbp3UR0CN04acV4etK9dg3vQFmNCUwiPPPIt/+NyXUVchLwdSD0buK73PHFKVd8Xh0Hj0nSCHGQ/ci0svOQdjx40pReql/B4eTLT2UZRXQx7sUIyEExNjJMLVd10EyRTcwYNRe/QEDDr5GIw861QMOeUUNEyahHTzYDFiKRHccTFoJQPJJhAUxGxHPGzYMHziE58wonnGjBm44447sGjRInR1dZnjNAyMT+y7rdnnxBEXwVxEiG0B8ODyFvxqxkbM6m5ArnE8wqoaMYg98lT3IBV0IBF2ISmGk0MEdbmVaEk0Y3P6NPzq6Y3oHnQsRp5yuhRR8o8KvWK95PGmwH09tslWDoT5cPSRZKoKPT0iyuV6WIE4XsxMV75o8WJc/6F/wOdv/Ai+8fX/hyFDh2Hrts148aWFWLquA2Gi2rx00APNoZNiblIMN5uRpNDYxNE2FEVRDl3YpKPX9yx1hNg5EcqFRBytno92Ea89YvsyroMuz4Uv9U2Rcs1JiS0VWxh5KEhdVBCjGkkcL+nBSyeR86WukjihlzDDf6bEBgdIIit2t8Bx/70kklUiUMNK45iRVLJMltpfi7ktSjmyUrf0FCHiOyYiWoKcNvIcM4lKqiIp+SeRl+Oc8CSQurGQrJM4lOsu8mESCcm3rqkJrfkMHn/hRZxz4SWoq/SkLuLsA4cPKp4V5VUIxRiwfbIxdpEjIpouXRoL+ScGj/s53SqNCUfpoEksBdMAgV3f+t6WabAYKFYpnj/3uc+ZYeE4Mcmdd95pRrwo76jHNBbmnfDZvjmOR9ZuxQ+eX4zVYhidigISsZwI5gApEcmBWwt4KQRiDSk8IeXNRxKvchCC6pFoPv89eNFvxh0zVqA7w9xKTUVKXmeJ3iuiXys7l1VKK/nU1g4WUdwhOxKIOQxx9GR6UJUOccZxDagIliDKzMfZ545HR64dU1+eh6UbOrBiSwvyNNoVaeORpyc8kwkQyn136FJ/7cVTFEUZMNBcGpspgSM9sXO6L3Y4iqeMrfRok106X6KSgKVjgvY8oL1mwwYO7BbKemSGS5UIZl1SwUznLXUM0zhmaFURw5JHIRYXwc2zS55+wTQBNLP6URzLPt+cS+qZZELsN4tWqhvYos+LiSiX+PwQm0pKvRcUzXwHLLMvcTnRSyJVjVyP1EepSrznmvfhI5+7ESedcx44Cimb30WJklPocKBUWyqKslvEBIkQpaESAyBGhMHjXKI0evSPisESDS3btF80WPQe04jJftnmNNnECmcrpOldrqmpwaWXXoprr70WS5cuxY9+9CMsXLgQPT09Jh6h0DZL2Yx8B+25CI+u3II53R4yIk67UnLiuIt40UdKLGOFqM6iSHYOVef4IqjFkjoiTJPFTtHRPtaJJd4sIvqu55djycpWhIGddrt0Hl6nmfDlddBfdNc3DEZrWw/yed4bDqSfEOHciAvOuhS19IIEBVSI2T7uqEkYNWEsjj/tNKRrG8Qge0jQy5HNIJcroCgWu6WtG4lEpWlmwtmsFEVRBhq9ZrtUX7AOKG3uAhr0vrUSYoK9QCy3hDhVbsZHpahYT0Lgh6bZoBnSTqK6Ioo5QkexIGKVAlnsN5tdcCQiVkfmq6LUQ35BBLZsB5HD7OVAKPWZCF+pwzj4RSTn6skUEOcIULTfrNvCGIo5imOpWliXsVdjkQJZrojFFnuccKQ8jot8QUS51B+ptIueLGfdDRBPikinMyaVRCC2OsvZdiWfPHu774q+GyCrXC/bHqhoh0FFeRXkPV7ewsWK8D+xB8ZBK+uk1LnObpS2d+wzOySUPLlWWFqPshXRDA0NDXjzm9+M5uZm44Ves2aN2V9XV2dENtMUxfjkvACPb/Rxy/NZxKuPQ01GLJoYtp54pRi2nJS1BWPS8v9YXoRpJHYwiU4xqm5KjF3QaSwT28Slq9Joi9Wia9sGXHzsCDNEnDG5YmDFPnIhefE6Xiu9123SynXGPcyfOw893V0YPXyIMb6uWFsnJuVOpeSaPIRigOP0p4sxHjd6ECaMqMfYQXVIibCOoVsMdCM63AY8MGMpTj//MgwZNEgKKEZY7omiKMpAgV/cOI11vhji6Weew/HHTkZFVY0Rg+YLZVmgr4KTV7m00xK4Xuo4yIOm8ZypA0IRt1S9tJ38wmnTsn212S922/hXRPA6NNzmmASmEzNp/DoS1/Opm0tpYnRkSL1hJs+Sc3mss6QMjmwzjikL90lc6t3SS4CUice4Zs4nOcuxUud1qZ/o7ZZjTjyBIvdLocLQMcOy8njAJiJyDk4eJlXZTsGTMji+5B0vnTMt8dYunY/x40ehpqba1H+2HxDDQEBrH0U5SFjPMpcUyGyucfLJJ+NrX/sajj76aPzxj3/EL3/5S2zfvt1Mn+1FReSCOGYs3oi2fBFBsdt0NPE6I6R9D+lEiEuGJvCpNw/FkGSbGKoO2mAkY3ExzmLwPBGriRSSySoxjmLyvEos39aFNdvbjGC27EvTVFFdh1PPfTOmz12JjBjH7u5NQDxnjCk/LYZZMZgFMbhSfg5HV+P6GDWYHRi7xUAXJSTQI9L6xXkLUN3UjPHHHiUVU4FmvPcMiqIoAwAxtuwbQ/sZidCjZzcK8oiL2o3H6BWWIOrXBnpuD4eQZOi9vkRv4HaF68jSKYliqb84nGuFx347O9+H0r0QUQ1f6gS5b1GAsJiFSyeTua0lW29Fs90+2OhoG4pykKFott5ovl0z8LHcuHEj5s6diyeeeMI07Tj91OPhNwzD+372PBZXTRTl6SCez0v6SmQTERpSW/DVC0ZikFfElEICd/9tFTKxEeDYmpxKvKeYkSfeQUVIL3SAyEmifttL+KqI7b874zgxbr0FQgA6LfbF9NecUTHhxDDziSmYM/VOvO/KE1EVlwomSpc+Q6Yq5HRyvUUxnFLG0GeHRyArBteN18H3E3hm8Va8vGwD3nvtpzB67CS4YlzjnvF3lE6iKIoyADDeYBGOHd09+NFPfwnXrYCTTItNo9+WEUpGlv83XzMPA3gtvCyz7L0kdj50IldeJkqOIfNSIXUc6zXXMS7qnTDCWDKgUyWS+iAuQrqnbRuuu/ZqDB8x3PR7GWioeFaUgwQfPQpnaxjsSBu+CE6OVEERTY/z8uXLcffddyMdd3D0m67Bt2Zsx4KKwRhc14D2TS1ARQPS6MHRNZ347MUjMXv6Eow4+0R87/6F2IrBiDI5uAkP20QRV3gcXqiAhFiqwKlG3fYF+MRkHx972/lmTFF+imI7bhoFxzTkfmMwH9YnrVs34sm//A55Od9bzjsJDbU18MRIwi/IhRdFOEdijDzTiSV0PcRStWjJxjFv6QbMWdeGy9/+XoyddLxk6Mh9kNJz6D/njZdPURRlX0GbHonwC8ToLVi0TOyZWFT5r+Q1LUkt83+JR4fJ4YJUVXKRpWujgObSEXseio3ndbJuY/toxomxyd4roPOIQVYlM/YV4nL8+NGorJQXkAF4r1Q8K8pBZFftuPhIcoxkLjmJCuNQUE+fNhOf/d49WNR4HNwL3oIgH6AiSKKYiGN4cS3eOc5Fc72D+Us24oMXnY3fzNuMpbk4Etke5AMPy7Me3GSD6NUuY7x9pwaDti/Hhyd24zPvvcT4mc3IdZFPCyf/vXFxGkq5aSpNj/FMO564/w6sX7oAxx81BuOHNqOxwhWzmUUQy5kOLRyNI5OLYWNXiJdWbMRSeTn46Mf/Bc3Ng5FKlYZXYq9u0/ZuAHojFEU5cimJKXpWRUQbN6wnelFs1Q7zfnjCa+29Rt4Daml2mO/9z7Cne0AHC184PKknTGMNicxZcEVPD9h7p+JZUQYQ9nGkmOZ6+ZLDET2zLo9P3zEN2wdP4pdAEZEchi7AGc56XH/WCLy4cBbWFmpwfl0NKkY2YqsfQ6XnYPHaVjyx1kN35SD4uVYEXoUkTqNx0wJ8/JgQ//yeC43to1w2b/3G4O8Dz64If451zV7cZuSRwMf6ZUsx78XnsH7VEjRWx1FXE2enbPTIadu7cmhpy8KrbMYxp56Nk88+R45V7LgPLCVfOFx2QhmgVlVRlCMSY79FAJYsE//PQJteJrPs6mFjvnZ/IRzBae/sdNm9MnVg7/beJD1IqHhWlEMEDi+00onj3d9/HJtqJiHhJcD5pqKoiPOa8rho8jjc+7fpWBerwEm5jbjmveeaIYO2bl6PoleDm5/YjE1VgxHLZ5CN1cALHQzeNhefOiGJ6y8/04jxksmi8WfY95/KrLmJikUUst1o374ZG9atQlDMwfE8NDYNRvOQ4ahqGiKx5MWg4COR2LWHWcWzoiiKcjBQ8awohwiBiOR1iOOTf5qGqW2c1akO8SiGuNuDhqoC4k49NrTHkav0UN+xHpOGVKC5OY6udUtw1ukn4K5p3diY9VGTrkV7t4vKMI/R2QX490tG47KTJxipzCE+S94Ciuj9I54DWXK2KiN9xfpwkhbiBL0dSdixRI4HUg7HYbMOFcmKoijKwGHgtcJWFGWXsA1ZRSzAeUcNg9e9DR6bLpgxMTx0+XG0BhyQ3oNTzMKr8LB6UxtSNVW46OJzgWwKhW0rjRCNRK5WiUpOdm7GUC+D48YPl9x9OSKiWdZKTSP2n2DlUP1x5E2P6rhcjxl2Tl4CIldktARfrihg5xERzjoknaIoijLQUM+zohwisNlGKP9mtvj4f3+eh6Wxoci5KXBGKT+Xg+vkEYtHKIr4zBcyqPeaUMB6VBc6kMw3oruqAt3xOkSBg9qgB80tC3HVMWn887svgBuKZBWxWpooRYQzrcJ+eLUumRuKdB9sWs22y6bzn4hl33QYlDiynx5wur+DwJeXBO0YqCiKogwc1POsKIcIoSjLuIjiyXVpXHniOPRsWQMnXkSW4z2HbMIRInIzKCbrUFFZjVyQQj5Rj1zFCGRS49DqNCOIV8FJJ5HLbMGxIyvw7otOlXS+iNZSJ0FOLb7/4XifSYQSgtCT67Ke5sB4pd0YyyLambNUxVQ4K4qiKAMLFc+KcojgcvSLRAXSIpAvPaoKHzy1GYmtK1DpJhCgBvnYIBGgKcSDrSgUZV88B6dYjR6/GdvjLqJYJXxJ67UuwLFYj384fQJG11eLEYjDRRIxDqtEsUqvb69loKd4X36cYic/EyR/OpRdLmWj5PPmsE4cRaN3JA0O9qEWSlEU5TVRPtkWl8T3/T57zqFQOzo6zCy2M2bMMOMwc04Bm8YGwmPEbisltNmGohwiGBMYFlAMfWTcNOZuz+PmJxfg+bViDBPjEFbHkUG7xKOAziKIPPgSEvE0EvTpFnqQ6lyAcfFufPwtp+DNRw1BLaeO5QD0pomzaSvBFYM1DXZUC27rCBeKoigDF9ppBo6JXy7v7DrF8NatW/Hzn/8cqVQKPT09ePvb344zzjjDiGczln6/tHZb7f8OVDwryiGCL//ojg3kifXZLtiNoTWM8NCCNvzmkflYlg2RbB4GJ9aAWCqPMJaQEEfQ2QqvfQNqwi68a1It3n3BCThhSCUSUR7ZokhtjqNsGjm/UjyXG0s1noqiKIcGVtpZm03RzNDa2oovfelLuPrqq3HxxRdjzZo1+K//+i+89a1vxTvf+U4znTZFdTlq+1+JimdFOUTgUHU+m1VweDoRu05YEDldRMFJYvbmIh6etRTzVm9FR0eIrRXVpuNdKhahutCOU4ZV4M2nTMApwxswpCYlEjknwSmNcBE5IrhpGG14Jf0NsaIoijLwoK1msN5i603m+qJFi3DbbbfhxBNPxJVXXmlEsud5WLBgAe69914MGzYM73//+5FOp/vyYlrllah4VpRDhchHKOKZU5lyELeYiGf6o2GGd4ujy4+wrSuHXKGI1piLULY5JF1DHGhMxlFbkTBpIjMEnGPyCYt5JJMJyeeV4pmmgWKZxpft5WhEaWh3ZTJUVCuKogwMaK/pQaanmTab7Zlfeukl/P73v8dVV12FU089FYlEwsTJ5/OIx+PYuHEj7rnnHrS1teG6667DmDFj+uoAsiepeCTafxXPinKoEIRG8DqeYxpZ0LXMZclz3Ct7YxzMjmM2927z8WZj6ai3951TQA5JWcbgyKFETP4Xcaxlp9cAxvoMJkUzl+xcUt4Wrr8ngvG570g0oIqiKAMNa7spnmm/n3zySdx///346Ec/arzOFNT2OG03xTbp7OzEnXfeiVwuh/e+970YMWKEyYtYu2/rh3KORNuv4llRjnCsCaAB7L/O0N3dbfZNmTIFyWQSl1xyifmsR2NqPRf0YhyJBlRRFGUgYG23XRKOqHH33Xejvb3dtHEeOnSosdPl9p1YYcz97EBID/Tq1avxnve8B5MmTeo7TpiGdv9IZ2cXkqIoRxw0hlb4WqNKTwS9EtzmJ72HHnoIjz/+uDGqf/rTn4wx5TF6NejFsN6JcqxhVhRFUfY9tNHWznJpA20znRq33nor5syZg+uvv954ka3o5XHr/LC2nDac9ryyshLXXHMNzj77bNx0001YuHChSWPrA8a357H7j0TU86woRzD28adR5Hr5ksZ006ZN5nMfjerf//3fY8uWLXj66aeNYaZBrq+v7zO+DOXYfBRFUZR9T7n9LndgrFu3Dvfdd5/5QvimN73JtF+2wplp+ttmrnOfzYPbdKA8++yzmDZtGo4++mhcccUVxpFCe9+fI9HOq3hWlCMUa0QtNIq2owmNIYXzT3/6U9Mj+5//+Z9RUVFh4rNDyWOPPYZVq1aZNnRDhgzpzWFnY64oiqLsP3Yl35YsWYJbbrkF5513Hs455xzj4KB3mMKXWE+xFcy0+xTNXOdXRB5nHcBt7l+5ciV++9vf4qyzzsLb3vY2c5z72VTvSEbFs6IcgfCxt48+l/ZTHD3MNJzz5883bZyHDx+O973vfX3eZWtUGe83v/lN3wD748aN26n5BuPuykOhKIqi7Dtoc60gZhMNDkV33HHHGY8zBTPtdbkzg86QxsbGPhttHSaZTMY4RjgyB9PxOPPlcv369fjlL39pvM8U5eXp7fJIQ8WzohxB0NDS0HFJo2cffxpQil/y4osvmjE/3/GOd5ghjdhJkHEJ49PQMj7zYDxO7/rBD34QkydPNvFsXBXPiqIo+w9rv2lzOVLGd7/7XTPpCds3057b43R2UBBns1ljl7/1rW+Z/dZeM94LL7yA22+/HQ0NDTvZcK7T1rPz4dKlS/HpT3/aiGjCdEeqnVfxrChHEDSCDFYoE5oAGki2Y+ZYoHfccQcuv/xynH/++abNHI/bNNZY0jthDeyf//xn0y7uYx/7GEaOHNn3eZDHKbQVRVGU/YO131yyiQWhjbailvut3V62bJnpRPjDH/4QNTU1fTad9p1N8ebOnYt3vetdZj/jWxtv8+CXRk6kwqYgTHMk23cVz4pyBGGNIKFhpAGkkaRH4pFHHsHzzz+Pj3/846aDiRXY9tMd4zG+NdRct+k5Q9Uf//jHvnZxNKo2rjXAdqkoiqK8ccrtubXFhPvKxS/h8RUrVuDrX/+66cvCPiw2PuM98MADxrv8gQ98wKQvt93E7uNXR8J1prfnOtI4Mv3tinIEY40sjR5FLr3IHAuUnof/+q//wvjx481xayQZp9zIMnAQfWtYmR/b2H3hC1/A1KlTzXB2XV1dZj/PUR4URVGUfYO1wbTP5d5ia6/Lba/dZ5vc2biE2zYdm3jY/eXpGQjPw8B6oTzfIw0Vz4pyBEFjV+4VXrt2LX784x+b9nLf/OY3UV1dbeLwGOPZNIzPQLi0Xgs20bDTvDItR+WYNWuW+TTY0tLSl1ZRFEXZt1jbSjtLuE3bbcVvOdauM45dt18VCQUxt21e/bHx7Dm5tOtHIiqeFeUIggbQhg0bNpipWNkh8NprrzUdRYg1noxjjSmFMgPXrcG0BpieCq5TQHPYui9+8YvGu8FxRm1eXNp1RVEU5Y1D+0u7zCUpt7PcVx7K7TaFMretTeeSdpxfIe1ssbsKTMOlhfkcqWibZ0U5wuAjz86BnD3qySefNE0uaDzLhTI9yjSU7DD4uc99DrW1tSYtDSfjMfzLv/yLEd5Mw22KZy4Zh8062Dnlne98p5lMhcMjlRtgnkNRFEU5MNBO0yZ/+ctfxs0334yqqiqz34phziK7bds240ix+5Tdo+JZUY5A6BnmmJ4c25OG0nogCJfcx3bLHIqOMwtOnDjR7LNxKI4///nP41Of+pQR1hTNzKNchDM+RXhTU5PxalBAK4qiKAcHiuf//M//NOKZzezKRfLDDz+MrVu3qnjeS9T9oyhHEBS2hMaRonb06NEYNWqUGReUw8wxlG/zsxzjWnHNdWtYKYYZb+jQoWbJIYwGDx7cl5YTrHCbae1sVLYToqIoinLgsTbc2nHrENnVPmX3qHhWlCMIaxzZxIIG0oppwu3ywOYV5e3iyo2rFdV2v10yLtMQu788Do8riqIoB5Zyu8xAaJPL6b+t7B6tyRTlCMKKV9vMwhpRi93m0gpsBsbnPrtdDrftsf7tmbmfwRpuHuufXlEURdm/lNvochvM/cTaaGL3KbtHxbOiHIGUG0ca0t0JWsajl9kKaW5TAFsxbYPFCmebJ5tp8DjT23jl8RVFUZT9j7W7tMutra1mQhT2a+Ewpe3t7ab/y5E8esZrRcWzohyBWJHLJY2qDaT/+q6ENcUwscfK0xC7rcZYURRlYFBXV4djjz3WzCb429/+Fr/5zW/w61//GrfccosZ83/ChAl9jg9lz+hoG4qi7JLu7m4zgcr73vc+jB071uyzApnjgXI8Z/bcrqmpMfsURVGUgYsVxtaO8wui/SrIEZG4bh0ryp7Ru6QoiqIoinKYY32lXLKNs/0yyHUKZ9se2sZTdo+KZ0VRFEVRlMMc25yO3mUGOzus9TZbL7T1TCu7R8WzoiiKoijKYQxFshXFdmQNK5a5zSXjsCmHep5fHRXPiqL0YT/bWfhZj14Ja2ztcTszIQONrT2uKIqiDDyscOaSNn13SyuolT2jHQYVRenDmgMaTw5h9Mc//tHs4zTb3Meh52zbOK5/8IMfRGVlpRpbRVEU5YhBxbOiKH2UmwOOqEGvMgM9EsQep3DmlNsU1QyKoiiKcqSg4llRlJ2wJqF8SW9zORTP3F8+jrN6nxVFUZQjARXPiqK8AtuGmYLYNteg95mBJqO/2bDxFEVRDid2JZHU1u3MkXiPtMOgohzhvNr7M5tt0MNMY8h1LpmGSyuotTJRFOVwg3ZuV0FR1POsDADo5eTP0C0tjA4LUeQoDgGneGaTARFuYV6WgaxWIOb4ElvWub/oIR4PJH4BrlMhecTkuBg5FBFJFMcNEIWe7I8jDH3E3IwcK207MQ++pIsnOGKEiEDuF+xjwaXrJCR+gHwhg2QiJftcyU9K6+08dbVZjyT/GIUlBWWpY10YRijItaSZNigi5jkiQunJ9cz5A4kTi4WylHKISPV7BaojefD9NgrlfMw6ljf7eZ945eZGSd4JSWOLwaPFIsWunEMKGUn8mCN7gxAu8zP3tlRWK3gDSVvwC0h6vB9yTZKnOe46KBRlfyJZujaeTsrKfMrFMo+FYUb+VpLeS0g8uUYpYZCXc8c9KWIgaXg9kkbuTShlieTeMI/Q5/3tXY+K8rcqebZ5HnsONhmJIil77zUyD/4OJJb5O/A+E95nxy2NBuI6th12aaQQX34TCbkPEXwJspRr4F876O0AaeHLAa+PaRz53XEcVCl4qXlKMS9llLzlPsnNMXFIeXpz36Tc5n71bhOzj/dPzu7xWnrx5e8e47nkOL37thmMyUd+i7xG/i48Ny77eB7eF+ZJT7/6PpQjD/uMEfOcyst7McjJsyKPqthU86AJkdgV2kdPDByjy5MEeYKRlufa90v23pFn29heee7jbkIe66LYJ7FHUjcEYrccR7aZmZsyy5jUH47YeFfS+uZRDSV/OY/ELziyLvWSQZ5x2iM+oywfn23aCS6NrZNyc9vuI4wnSVCUY+kEx2DOy3Mv9lTsfyh1mBhyk69UbabMDJFcK89BM8N8i0Wxb7KMuRJkpyuRw1BsGssgpiwm187joVyvJ2kcSR/FWUfRBpXqEUfuG7fL77Ndj8R20wbyXzwRN3W065bSeQU5Fo+hIP9Spn4V+8oDAu06bR/zkGKLPZZyGnPmSMxS3VCU+p15mXS8d9wvcVgC1uOSGEXJL5TrlarX1COeXCerNxag/H6Xl9/8bfdDvxy1vsoAgL/+/j9FGkVahECMC9fl4ZQHKy7CpfTo8lmi6HLlwRChKA+kS8Mp6QIxFsQ8fDGJL8fyhU556Pn4Uuyk+wwFhWpJnLuyryTcCB84a9RKiPhKiCETWBYaXcIh2+xDmsvljGFxaAAEXwQpjUY2mxGjKkZSBDONFx9sClqKIHlFkPVesewkJb085GI8HLkuKYIg18jziZGgyGQZJaoxjDQSLDvzoxiXhExQMshibcx5ZNvGZUIaGGK2TXwx4rKajFP0yiYzZ9lkJ+8j8zDwmEQvv0dcmnNIGjkDPDFQkWzz1jBE/HuIpXTlXptKTc5TFAvu0IstFQ3/tl68JHj9QAyn+TuwCLwXJSNYEqY8J++ZiHypUFjEkpjmCCCe/A16jMA0L0v2WgWu27+NJwXyab7lvppr4LVJntajbq5B4vJ85rp776XpFCl/z2K+IFWv/A1kPdabvy0ffysM9lzl5yV9+cu9Mbmae8lKiH9guU4pD9MzP3bStPe0KL8fk5bVi5SbvyfeB0VRdsZxEkjQ7oq45cs1nxsjDimo5Nk3dkmer7gE36d9oW2ikC09g56XlHiR1BM98oxSgHI0oax53vg85gt5GhSTB4Un5OWc1ptOAclEjC5tBw0ThRvLU7LNPMQXcNoZ2gQueYyB8LmnDWF5ueR+OkPyeQpJeXmn4qUQps2Qa3Ekj1DWrRVgnj7jCLTtPKfHfGSbeXV3c0hROmg47KjYS1nyXjBDuTOsLOT/pbqF18k0LK+xV5I3gy0rcUwZY0aMUrzGJV1g4vOob8rixBKl8sk+imLaWdalpu6Sf3RW8f4XRGwz6756We4pr4H/XKl/GAKJE0j970vZunq6JQ5tOYsvZe6t++js4f2yNpf77LVwaR0S+xr1PCsDAP4EzdPXC72KBfNWax7EoGRs+GDSsHnxlBgVH0kKH/lnHnDRWMViTuLReMR7xYzk6YsYdbPygGYkLw6plpB8cnDjYizlQaMgi8Tg8oHlQ0pxzgfOHJNQejz4kFIIs2wlQV4olLy7/R9SilhJxidL9pc8m8b4RGIQOZuT5OFRrUo8s5R4LGckb+CulDsMeC0iqYsUU54xhCxboZAVIVd6e5ZT0Y6aa5WE5jwlLyTLK7sk8E65skIvalCUCkXKGkk5mAMFvvxf4klZJS3zoyDktRakvBSINGgJY8ykghAj1WcmZEEvBrd5f8wuWadnPvAlf7mmMOpmhmKw05KXvFDI34B5BBG9Q6WXlsgpwKMglPuYEOHO8wRSKxgvhvyjiLQvSp7cB3pZsrlupJIVYih9WaZNWcxLAwW63Ap6WIwwl3+8Jt538xsgYR45uR5HKjdzF6XSZOUhv6y+a2HgC5CXkN+GRDGGn8acmXFb7iErFn4d4P1jJWq80DyjxLX3qPy+kL5jsps5Oaz96J2XMmSLcamAWJJSGWxZrJimaOY18H6k03I/5O9iMjLn5N9cUY4s7HNFuM5Au5WSZyWk6BVbIDIRUVFsI50C8shEdFSIveMzTRtEe06tnclkjU1xxDYEYbc8U3xBTUjqtJgwsS3yghujvRe7UfT59dDr/e6XkDyLxiYl3GrznFKM04FDpwjFIstFpwefU9oR2lRTt/Cf2F2x+CZeqd4oOVCsFzeIpBySj+vyqydfsGVd7EZMQo+UKRF3EZd6q8Cvph7tp5ze2A8pGs2LBPNFU8qTF9tB+14hZQwkH1o+imDK5kiuKZDroGPK1EOSnlkYYVxWrpItLU2gwnVTp0mcQIITl7Qsn5Q5kPo140dIy+1g/ROY+kzO2+uQ4LXGGE/useQkeecRp42TOl42zd+I9yhBcc66rSg7+RWVpZJ7ZpweFOtSf7OsFNKB6ALWk7zHLI/1MrOs5sWEdtTs2be4XxF61xXlINH70+598Euf1imeC5g1cxbqG5qMsH3xxRcwdepUeQgDDB40tGSo5F/JQy0PqRGREbZt34IpUx7B3LkLUFPViLqGKnmgPGze3IJsphvTZzwHN1GFmtoatLVvx4ZNG+QczaYI9/35z5g9e7bxKI8YMaLXYIRYunQxBjU3oSiGiKJ16tTnMWPGdEyfPh1HH320eUj5sD79zLN45tmpxmMwfNgwbNm2GdNnvogxI8aJAQ6xuW0btrdsx6CGBmxYtx5/ffxxLJi/EHV19aitrTMGeuWq5Xj88SexccM2NDcPQSolhs4L0bK1BevWrUNNTS22bN4iZSni/7d3HYBxVGf62160albvtiXLsmTZstwNNt10EpKQAClAChAgPUAguVxyCamXEC6ht4PQXcHg3rsty5Zc5CbLkm31Xrfv3ve/9QRFZxvIhRy255PHOzvz5rXZ9/3f++e9Nza7lfUgOZeys+6YXyE7H49UMV4HSaa/rx9LVqxASmYGoigMI/VNA0BDU3fsCHr7ehDLOPtZ5vJd5TDbLFi/eQPcvQNIZxmUZ5SkJfHK3ZE6F8h3ZQwkPX4qzzjrQIaX1B2vR2dvELGuMHaUVaGtowPJafEUiyFUVB7CMN4TYcu9+/Zh6dJlaGlpQVZ2Djs1FnR0dqL6yBFEM082u0MRuXiqpe8g9drS3I53Fr6DmiMHkJqaAofTgcMHD/MeWODkvpY3IVfZBN3djdhTd5T3ORl25bUW7xHLxfoWQpf0O5mu0+lEc3sH5s+fj6M1R5GWkkqCNvF3uBO9Xh/6WJeuKCfTUrKbcYjXiPGcNDIC7XMoaDqVAREDCHhZJh+O1LTAabfzmogI2LFjB9atW4cO1ldKaqJ61Lpt204l2js6W5j/OJWe3MPTpaNDx7mMSNuO8JxsIkB3792JzmMd2Lu7Gkk56XBaAjhctQ/bd+5BamY6tpeXwelywuWMImd5sWtXBW1CFA7sP0QuX49Dh6swfHguqg7sYdsjH8YmsX2GsZ9xtLZ14ER9I/k/ie2/FzvJ+/GpIyk8B3Dg4D4M+E14d/ESHD60G5W7qshZdl4fg8rdu7Bq1UpU7tmNPfv2orO7E7kjc9HV20U7sY5hK5XHVOzMnj170NbWhrTUNFXGvfv2oL6pAW3kJCM76E6HA+agAR3NnTja0oS4hHiKZ9YBqUDqYEf5DmUbjx07hvS0VNoLEeIWbKF9qiUXZ5BbrWSswwcPIEA75CCHiRPF5/Ni/8H9iGZ+hQ/FtjU1N2P9uvWso13KriUnJyueb+bx+QsX4ARtkMjRhIQE7C7fSdNrQFRsFI8NoL2rHxu27WNd0m7IPeLfdtbXMNo7q82m7tWCBa+ST6tZ5v04cKgSw+JieV9isa/qAFauWoWGhhOIi4+Fw2FHoD+I995bgl17KuH20R6lJiPs8aCSYVevXo2mxgbk5GQrR8Zx2tOVK1ehqqqK9R9LmxqnfidSro+DKZXZ1aHjkwLxrIUpbGTr7+/Bvv171Oerr75KcmnHNddexwa2AsuWL6egCJF8/IoAfCQhETBHjx7BL37572xQOSguHofvfPc7aG/rRG+PF+8uWkbx5cXTz/4Jc+cugI+CpKW1GZu3bKFY9uCRX/5KvRiksLAQc+bMQXV1tSKNFSuW4ZFHfkkSbVUe1PUkvvXr16pwMTExWLZsGdunEfPmzSMh7MPFF1+CTZs2Yemypajavxe//e1vsImC2mqzomzXThJpFYV8E37/uz8gyhmPkSPz8fzzzytxVF29D/ff/0NMnToDBw/U4C9/fgqNjU2sg248+cQTeP6ZZ+Fxu5Wwe/fdd1W6QhADA73o7e1R5CQEP2fBfPz617+Bl0RTV1OrSDE62qXOyzHxsEonZdeuMorsvcqb3NJCcnxnIcx2CwIUy+vXr1eiTbye8imPxzSh6GYe5LikL3UkHgaJW0R2Z3MTfvfb32L1uo0q36++9jrvySPo6O5ghyhEQ7OC9UzDc+gI3pqzADMvvJTXm7By9VrenwDWrF1HAm+hYRCPq5fxMg9eN+P2Y+fOMpbr15g2bSKNTiJ+8YufslPRBpvFhUUL+Jvg9SKwpSMgHSBBC/PzynNP4+XXX0Y360aEZ4iiWfIvxqGrqwtr165Vhufo0aO48+67Ma6kBBmZWbxH/wlPvwdvvPI6Wju68PNf/BL9bg9FrV8N+emmcdM6EFIvkqbUgxyTOuvr61PHBdLZ8Xrk0ab8zgPYVr4J//Efj+Bw9RFVjy+88AI7fUtQWlrKjuJWzJn7Juupl7/bJewo1NHQVzGcikqHjvMamnAW7pP2Vb5zE96buwhzX3sPbS09bP/teO/defj5rx9Bp6cfC1csRTkFmCfgw/GGg3jt9dewp7Iay5duYHubgJF5GVixcg0Sk1LYmV8FN+1BR3sPBdoacqUbC99eiF625UOHDuHJp55C7YlO8kUtFi9ejAbyz8atW1BaMp68PQ0/+MEPcZAiNS8vF0VFBdi0eQMKiwoxOn+04qYnn3pSDQOZOHEiheF7eO2111BbW0tRuYC8ERkC9th/PYbDR6qxZPlSHK2rI1eT52nvag4cRll5OdxCIgaz8g68/sZrtAWLMH36NArPeixcOF89Levu6cbbi95DOUV6b38/e+8hVOzchfoTJxibeH0NFPLkl/feVWkKF4pNfI62yOP1MO9FFP+rFCfW19eTa3+Biy+5RA3P+/3vf08h34pl7DT0isCX8SDGIBooZt94az7th/gVTMrOvL3wbdqm3ohzhQQ2fcZkNDa0ssxNuOCC6ewwJNPGrqL9nE9en66GOT708I94D3vwbz/6MeqPncB4cuKSpUuY/3LIEDyxz1OmTFE8++KLL6K9vR3vvPM2Ro0axXrPUzwqNkrZx5O/mX82dM+zjk8O2D1ke1b/yWMwm82J5MQU1FAoikC97bYvIzklCTanD/NWbMawxHTMf+W/sXHdGqxauwEOp40NRkSkB5+58fNITIxHUel4xETbsXl1GeyWKBQU52Iryaf26GFkpOUiOiEadY3VSHRmsBe9D1/9xh3IzMhE/uh8RLF37qVoK6uoQMjkxSUXT0N3Wwf++9W5uPWrd6IgNxvZ4gGPjkJMyINtZeW4/vOfR1Z6MtLS0mGw2hCEHwcPb4evL4ThhWNxrP0ERRcFXLcB0cZhuPL6Sxk2FSlpaSxPPMlyPW66+VaMyM1B0dgiOB025HL/aM0B1B1toNiOw6TJU5Q3ffee3cjJTEN7RzMee+IFVFOMFhfmo62rHfXMZ9Djw7SJk+Hp7EPI5YAxQNJ5ax7raiWqqw4iOzcXB2sPorO1HcOiYtHU3ortlTtxBcV/e2cHGo5WobnTi3lvr8TWdcthcqYjPcWCLRR2zz/7HOumH5k5WfxeidfffAMnWtswcngWjleVo7mhDel5k5CXG4dd++sx4KOw9rUhf8wobC2rQ0npSKyiuC6degkml+QgNSkV3f29iItyoe5EHSZPmcj7sQPP//VFbF6/CevWbsTITBc2btuJkqmfwsQpBUhNSaXtsKK7qx9jCvJx5MAe5I4pxJHqBrz00svqyUDuiFy0tdehq7UGLcFYEu50WP0+LFo8F2/Ne0fsCYIUsrVHq3HZpbOw8t13MPbSq3HZ9ClIT01CamYKEmLjsXXVJhRNm8L6LMThQ1VITc/E3FffwHs0nkmJibDb7JhLAzufhstOo+aIteONOYuw6N23IYNAkuLT8NdXXlVPRBzRsXA5DKyjapzoM6NoQhGiLCbs2roNN37mRuQVjEbuqFwkJgyDyWbD2k27ceNnr8FoHrPbZJx35G2PqsHo0HFe4aQUErGm9rmFQ0jNGIa6ikaKRB+scWHkZpBH6urRFUjBNddegBby0Z7KfRSYU/DWm4uQkpqC9Ixk7CbfjR9fiHRytsmZgLzhmWg+VoMDB6qw71AtskaMxNTJk7CnvALF5Jb29g627RhU7jyG5CQbO777MGnSdGxYvxZ33P5lxEfHYfjwEThytBbjKMpNVgsq9uzBlbNnM3wCysu3U9T2sZ1/DmlJ8bQVGYhJSEJJcQHemv8mCidNQUdLBzZtXYdbvvwZHDp8nPGNJu8Og5n8fay2EYeaGjGhdBycxrBymCymgL300ksxbtx4Ct5C5SSJj4/B4YP74fcEYbFGwxkTjYx4Kw7tr0VUSia5LREBqb4BHzZXbsbMabPUJDwZt7yB/J4Yn4QROcPV08BhCQnsuB9ALHlr+szpyMnO5rk0pCQPw44tlcjPLUFCajwMxm60sbO/dNMBfPb6yyEjn0NU0RvXrEfptGnkvSjIBD9XVD+OHJIZKiZcMXsK+npqUb6lBrOvvhL5o4YjZ8Rwxsf4ExOw6J2lyMkajoL8HOSNyUdKUhoMgV6sXL8dY8YUYBQ7KElJw1jeWOytOoDckXmqrhJTUhDLerWq4YIyNv2f73XQ/Rg6PmGQBz0yHMPOH7wdWWw4NTU1JLixShyz04nkZBdOUNw5KVq+9d17ce9d9+CBBx/ClMlT4WZPd0TOKDZamdRgROHYfMTFRmPJO6sxtqBEzdR1xCTj2usuw5w330JdfRMMNisGSEIi4GRlC3nclU3SSEpOQBxJ6LM3fQ6ueBfM5hDCAR9aKTZjk9NhovKKjY/DSArtIHvJ/b3diElKVI/SsrOzMKZ4Arp8/Zg2YzxKp4zH4uUrEGIB/AEPaqtrkZeVD2ouxmsk6Y0jmXjR0x9CUlo2jDYT7C4zxhaPYzkcGFtUhNIJpRSgRlhNVsTGRMHldKC+rgZPP/UErrnuBlw4ayYa64+zzrIx6+KLYKP4N9rZCZGxy6xRm88An9eHW750MwnIgD17q+ELhbF9xzYsX7oUy1Ysx5HjdXDImF+Ks86eYyjbsw8JGXm46spL8NJra9DcXovV69exvh9AdKwDFXvLsXgFBf9NNyNj+HC0sh7Hjx+P0SNz0d8jk2yM8DvtmHXVNfB2u1FXewR+s0uN1dt3+CBiU2RYSBCxTjOmT5uB1sZWlXbcsHhcOGM6fvLww0zrfvzowR8jJT1NeXsLJ0zmfQzDbLEiPXMEGptaYLeyfFY3du2swLy5i3Hjp2/C5z57Ezo6OtVvoOTCCQiGrAibwjQ2i2hY9uGOO+5CV083allm6WhRl6Knsxnjp1/Ie2iG1WpEflG+Gtbh7/Mqb/O4sbmoZJlfpnDuYnm+9e3voJadu5UrVuBwbQ3u+PrX1CSl/Qf3wk+R+8OHfsR8WVGxay8c9mh8/zvfUR2WKHYMp0ycgPSR2Qg5LehghyctKQnZWZnwU8xnsPM1Jj8PRuYhbIpCQloSHA4n6ybSRnThrOP8xEnBrDZ54hMiDxiRnZpJbg5g+uQStDbVYe+evfAZZQw0BRT5rDAvB/C5UX+sHs++8DYuoZidPK0IU6YW468vPI/vfPPbaGg2YID8O/uqGeSR9di9fz8m0KY47GyrEybg2KFqcn8bJpGnGimwe/u95JbxFJ1BBLyyEpSsnhRCdkYm+voj8zu8tBEyTEImi4sPdH/VXna2k9Scm7XLFrOT/yK27NoHi9OKgsJcLKfQ3LZ5O64lX7pcVpZPxguHKTNZXvYXQj7aHAp08ahKHfh8ftjtdowcORIyAdnMTvjwEVnkLBMO7D2EiSXjUTK+AHv3VrH4A0DQRDtD20r+kKeNIY8XIYt0RGQinpHHgrj+0zegvaML37rv25g7bz5kZaLGxmYkUYyKd9pGoiydNJ4i2AKLyUabJBPpZR5IAD4MMAmz0L7iKgPjF/vjjIqGl7ymJn4H3TCE5RqrKltfXzPaWjoR5RqGY0dr8Kvf/Jo2ZqPy9D/4s5/Azbr9xc9+rJ7O9nuDiE6KZWfkSjz99DN4kHZIhnnE0B5Omz4DK8jD1117JW1aGdhrgBqTzd/BxwFdPOv4REOGLGVmZKG+vgGyvJA8lu/oGsAwCuLGhuN49LH/whPPP4vf/ecfsaO8nKRhQXNzq5qMJ4/POxsa0d85gJbmblgcMQhSvA5QAOePGs+e6whs3VCGQL+TQtCAE41VcFKgy+N2efzeRMKQyYIihkJBoLuHjd5shcNmo1DupMgJYoCEcLyhCbYYFwIUwV3secs4WBnfdvR4LezOaPQOBJX3uIqEXlVZA2PYgaTUYWigEA34ZaJcWD1uk8YYRWIaYBxhikTZGhsbmR8KN1aEMSgkalCTPOw0CLK0XF93H/p6+zAyN1cNI8kfM4YkShqjuBzwe0iuJEYSlow/szNfMcynjMUW6SUTSlzRMZh9zTW48777cMttX0Fufr5aKkmEqS3KjGh2HmISYmCOIhGaE9DU1oRAyIwYitvpF05h2Y/B6XIhMSERpeOL2etPY09fJngYaHRoLkQ8W4OsnyiMzRuHBXMWo4dkaGBeUlPF28x6ZF68zOa27bvZYYqi2IxVQxvKtpXhV7/7FR79zz/gd3/4Pdrq29SwmbraOpnyg1DIg5aWJiQkJquJMDaK0L7+btaXh4bHgZzhOSgoYH2QQMP8PbjYGQl4BuDtl8lFLmQlp+GG666jEXCxDNGM20oCj8Xh3btZX1JBRjQwTX/YAKPDzo6PW427szmicPBIHZIzstW47GsZR39/P7IyM5GRkYELZsxAd28X0jLSEeWMwviJJWjv6VJ1KeP4bvn851i3LtZnFKj5eV9DiImOpRjvQXt3N38HRjU0p6GpXtziCHq40WiI0VIWVIeO8xbCkuJgiXyqfao0mXAdokBNIM80UkyVHzyMAXaA7dEUbW4T8vNTER8TQMXmnRgzvgRpbKsdnX2YfflVeOiBH+BLN38GS5dtYHx22okwps+8DMXFk8gZFIeMNysnB4drjijJLvMgJkzKwNGjh1BacoFy8sikQ8lVmPalkx1ycfLI5DZZ90K8r8LXMqFNvKhdMtSLHJ6VMxxJmenYULEDfvJTcdE41Ow/iNYTDbh45ixYKUxDLFuI58RGMCEYSBhedx9FtE/ZB7F34hBpkWFuTCvgp83raqUNbMf8BSvxymsv4605z6GyrELxjclgU7ZA8iYTuC3kaHM4siSnjFAWe5QUm4g7brtdDdOQMdnltKuJiQno7u5SY4vlHjScaIKbaUlHPyzL6PF2yLKykNWtaF9F2AdkWViHTS136va4YVFzlAhTNG2UTOD38piF/JuEWHKjh9wcG+3CBRdcQD4l/52g7WP8d933DTz87//Ge+nC9opKcmQnSiaMZ/5+ji984Qss50J0dHQrx8N9992LR//0Jxw4eAA7mW+ZIKpExMcAXTzr+ARDxrQBU6ZOZe/agT0Un263Bxs37cC08eMxpbgAt3/1Dtzxja/j7nvuxIQJpUilINq3bz9OsHF3tHfi4R88iFYKLJvTATcbtazGIGsLG41OfPmLN6GjiURzooON10GB2o/FSxbD6/PgzTffQm3tcfbELUqwGigCDUYb4mOH4YrLLsXb895CV18vDhw5gnWr1sDAhh0dH48Vy1eil+L3vXcXYc3qNWxgVnj6SJrZObjuqquxff022EkehcVjsHrjclTurUJzaxuefe45EpcPRQX5+N0jjyDg9mLVipV47tln0dnZzaoQYjZFVno4yQUyzjsqKgbJyelqXNrmzRspOLeRxCiU7eKlNyivjDB5kETmpQiXccPqkSc5JbImKsnTZofBJBPfSPWyUSz6BhiWAlbCymRFEW7iIY6LSRItrvK08J13SLo+dhTa0d7WhpWL30NlxU4YXPHqkRzEw0DxLh4Pp91KY1QKl92JpoY6tTTeJRdciPWr38VArxuVew5ixcrVLJOMb/YrEp9QOgX33v1t3HXXN/HN++5C2vAxyKQRm/P6i+hsa0ZNzWE1LGL0mHz4KEDdNEgxsbIGONQkyOrqw9i+vUw9SfBTbod9bsSwXlJTM8n0RrS3tOCJJx5HXd0xtNOg8XKUTJqGpx/9Pdr526k91oinn3wWHtazx0hDxfKLIbRY7BiRl4/2ri709PbiT3/8o5p8U9/QoDxTL738MuwWC1qbm2hI29V4SZmsJKTfQ8P68IP3o7Wti50UE2y8md6ePiWeZS3wN+bOUXlZvOg9XvcODRE7MgxjM0VWQJHVR3ToOL8hEkwmgQ0S0EarWmfZEmVkJzYdG7fvQl7hWHY6e9h+TBgW56K4SsVTjz+BBx78IYWnCdu3lePZZ19UneaSkrHk+h54/CJSLbBaEoBAFKJkVQcK1+T0VBxrbFBD+eIoyMcWZ5LHGpCdnqU62i6nU81v6B/ox69/+xuMHj1aeT1N5FIvuTwg++TvqVOmoZ7ieNfOSmRl5cBC7q1vblYT4ovY0W9rasbxY7WIIa8rMUoeFE+CcK6HdilkDsJpZfdaHAIsl0wej49PwNq165l+P7Zu3a7GGFdW7sVFl87G93/4fXzz3q8jddgwDJCLRYObyWWK3BmpjyI65BOnVAh9/QNwU4g/9/QzqChnJ2PMGFXeaJZXxhHLPIwA87C/6iD+/Jen0EmO9IU8CJp8zKKfYlpWDwkh2mpSc1X8TEPEtthwr0eWkgshwM9A0I4g+ijaB2hewoiNzUByRhLmvPUGoqOiMCJnBLZt2Qa/N4jf/O7XeI82OYPCWJZ99VGw9/V5yNt/5j2nXc3JVr+DtrYOvP7GHDUvSp58xjDPMqFRyij6+eOAPuZZxycYbBYUc/LYTcZzbdq0Wc2mlUb96atvgMtqRxRFtTPKgVhXtFquJi4uBiNHjFJjeyt278BXb/8GRo3Jg53nO7qb2dhS4PeESG55SIkfpjymMkSgIH8EZsyYqSYuyKzl7OxsXHbZFSoPBqoq4bHsnOFML4rnhuNITQ1WL1+OsorduPu2r8FlA4bnjsGusr3YuHo5Mkm2n7/ly0r8RFMojh5VrK7r6+/DaBLRGKaflpaG5atWYefO3bjhhusxcngakhJJJAnJmDv3dVWeL976FaRlJKvHae5+P5zR8STyJHT0tGLL1m24hHkcN74EcxYuQltLPS668EIKNRKlux82qsis1Az0tnWi2xQg0adTJIeRKvH5jRiWmkbhzDpj3aQmpqjHizKhpWh4HsVwO07U1qG4dDqyMjKROSwGbgrviyeXwul0Yd7rc5XB+PQNn1YrYqxZsZyE78BFMy+koA4yHQuFdhzznqYmymUlpJIU05GcFg2XIx7jR+dgRFo2O0MdePv1Beho68PNX/4C0pLjsP/wQeTm5iHWGQV7TAxinHZYXQ5YwhbkjBqO+LhEvDf3LVTtP4g777yb5UlTgruMBvPyKy/F8Jw8LF++mCRfhelTL0BsnJ221kriNiE3JwOF+WPQ2tGApUtXYHTBKJSUluDY8RO8JwVISU3F+OJCvPTiCzh08BBuu/12RDMPfQO9KOA92122HYlJWbj2uk/jWM1+dpaWYPblV+Ciiy9WY8aXLVmCKeMmYPKUElRV1WLNyiUYmz8a06bNxM7KCmxYtwozZ81AUVEJ69rH3wd433PhsFpQzN94zfHjqgMWbXbgc1/4PBx2O0W/GSNGJtKgy6oc4t/6eB5D6tBxdkHaAkGBKi/v6KdIzR6VhfyiXDUEYOKEKbCbTRg7agQs5D+Xi7xnc+Kaqy/ncSA1KYW804MlS5di38E9+PIdt6lxyGbypt9rQZQzmjyeCJst8iKr5tYWcnYG+TCD6boRH5tGrhmBgYE+HDxYha0UfJs2b8Qtt3xRTQYUh4HbM0AetyjOl5WPZCWO3JH5WL9+I1Yufxex8Ym46+5vIZv8Oiwunhxsoi2ifRhbSOHpo5juxsa1a7Fp/TocO1an+HTDhrXYsb0Ma9esVTbkcvKPjMVesGAh8+JWT8JaWtox/cILkJAah+S4JDjMTnJLNTv1dix8dyF2bl2HvTWHMXHcNNqfbdi8uRzlO8poP124cPrFWLtqDZYuW4JJUyZj2vTpSKD4zsnKxpNPP85OQxsuueQSjKZd7ezswWrmY+OGdag7Xqfq40hVHSrK1mH9hvVISUymaDZgzab1WL16FVrJswXkvoH+fiQlxWLEiBzIGtvZw3PQ39uHt+e/gUM1R/GNO+/BjClTMHFKKco2b8WSxQsxrnQyrrz8GgyLsaK7p19NkhSP+9e+9nU1DttostPuv4mtm9fRDlyDUaMLUVlejpRk3nfa0n829HWedXxiofxsg36eAfbAVSMgkVEDksCM6jGZLGgv34TgzCb2roPaeslBik6ZttCP7l4fFi16B1dcdjGFYg4ClhCMbnlhhwE+9mDFv6zWi7RGxklF1ouM7MvDJje8MFvMMFNIi8dW1qgMs2fdz/PRsMFo6WM+7MyjBRbl2fXBb7DxmIGiz88YmCcj4KNakqXfTLKYv+SZ7C8vbIm8DaqH+Y6iMZBVSn08IQ3exDiksH0styzbJhMgAti2Yz0aGlvwmWtvZH4M8DCsXRbqZ/4CzIeB9aCmPLMe9pZV4o2yNbj/q3eryZNBxm3z2+G3GuGBn/kLwMFr/My3h2UKd/TixVdeRn93F777s5/DHzYiOujFgNkLh9cBo6x2J+tn8/6EjF7mU/IvniAZgsI0eY+k/lWdSk3JMVlHlffBaOxmOTL4nfXACgmyzGafg3k2w2/zwsZqWUsj1NTSiRtnXwMv43KxGryWIKJAAWzwIgA77CGWk3Uv67rKEJHKin2or2vGp268kN9cTEeGdfD3w/oymFh3anXnyNqsMhbRhAFmn/VkNKKzrwcr2CkbnpWDSRMm8D54GcbCsPKyAvHUs2wm1lV7N5569Pe4455vIzadHY+wvESBxTVEXp7jl0VH2QGxqkv6mK9YXsf7yM4EwDLy/lgMspRfgIesNBoBBBk2ZDLzHjAi/pOhP+KNsQbCCPL3K8swhjxWGCxuRupkfJHln3ToOC/BNvL3P385wLbCdidv4DSwbQV8PWyTMTzKtsL2ZCI3kQjJ5eRts5tsTR4l70Xe3Mpzwi+BLrbNaF7HyEO0LGx78sZTecGT8JusQiFLxrHxcguxfbuZDeFjxm/xKIGIsI3xBnhc1kxmNlU+5dVM7O5y3xBmHnxs8GZ2iA0mWIw+2hwjvOR7h8EjNAMPhbaFccnTUbPZx2uYhp/lsNBW8PqTQ52ZBVmKTkZRR1YbUSnRPsr4Z1mBQuXXZmQZ5NknE/cH4DP5yStORd3WgAdu2jqzl/m3euAL2mg7aTNZf0buS5xSJInZxDoUdie5k3M9sFCICwwmmdNCjpc6YEg/60vc8KawLAfYT8o1I+QTtrXQtvC4LJ9H3vazTo3KJoqdYJlknWpeZ6AxNLNOAsyzj9fYxG6Yye6sIwNtR9DCeMnn1nAP7ZaFdSH54h/rUp4O0KJzX/jRzThob2j7bbxXkfHh/3zo4lnHWYeP8pMVT51AiEXW8ZVrtXUrh0ILK2G0NOTzdL1WLbwGGTcmYU/VWE+X56FxnAlaHJL31tZWtZ+YmKjS1PIs8an0GVQmuJnMZlTXVKvx4LNnz0aMKzpCOifzODhfcq1ssp7nzp071RrPslyRhJFJc/L5QUQ0OD4tvHZMPgefF8j5wXUgpC2PP+vq6tT6py6XrNEtwvd/Q+6p5EuWQ5KllGRdT/Wo7hSQdCUdqTvt3mvpyqcsHSh5kd/G4PwMhixpJ3lLSUn5W55OF/ZUxweXXc5r37Wwg89r+T0VTndch47zHdJutO107eR0HDa4/WkYHMfguD+KJ/NU8Z4OWvyCwWkP5qzBm0C7RjsmYQd/185rdkKLS+Ne+T64TrTrBXL+dPU1GFr4wTjVMYHE+WFxuji0PMn5wXnVyiPHPmze/1Ho4lnHWYeP8pPVGpNA+xTBpe1/EM7U0LW45VM2EX4aIQ3F6fJ8pviHQtJSHoGTxKBtkqYc047LdzWxg0mK94AHI157MwmfPXQtj7INzpfsD64XOS+QY6cTsEMxOD6BFod2/FTntTACzYsiglheWCJpn44AtbByXvYlnjMZNTkv6Wthte9yjdSPfD9dWoLBeZc45Hd0Okhcp4LEoZ3T4hv6/YNwurh16NARaUdD29ZgnKltDsXgsIPjPRNPDMWp4j0dtDQGpyv7Gi/LvrYJzhT34HPaNVr8g48N5dhT2QDt80zp/SuhlWUwtDwOrauPC7p41nFO41TiS46dqlENbgra+Q9qfJoQ+yhk+o9CK4v2chLZJM9a2rIveVF5ZlFkQqG8mEWGUoiIluEisni+Fl7CaWXWyilpiAdd8zTLponEv4v/DNDiFAwNO/ic4FTnldCnoNXyeSpIOC0urV7k80yCVsPg6ySdwdcLTpWulp7kV+65hDlT/k4HLQ4Np/quYWjd6NCh44PxcbWhf0XblDS0dE6XxlC+GPpdw9D8auGGxn+6OIaGPxMGX/+vgHC1lubQtIeW++OCLp51nNMQoaN5Iwd7HE+Fwce1ZiGfZxJJcv7jbKCDMTitD2y2PC1hZYUGJQzlACHDp9XnkHi0uGUbGrf2/aOIRe0aLZ0PAy0PGoZ+H4p/JI3B0OLXiFj7fqb4NKH9f037TPg449ahQ8cnG1r7F2gcoHHTUAw9fqprBYPDaWFOFd/p8I9c83Hig/IzuLwfF3TxrOOch9aQzuRZPFswuMct0Mo29JgMz5DJcOGTolleLiJe2Q+iE40OJD5tX0tDPmU709CIfwRa/EPLJhj6fSi0a4funwpa/IPDa5v8JuT4meKQcwItnLavQ4cOHf8KaLyjQeef/z+cvSpCh44PicEEownoU0GIaSg5fVj8o9d9VAz2egpOl64mmsXbLmUW4SxrMp8KWhxa3Uh9aWOAZRt8/qMKZ7n2dHkcCi29wZss0n8qaHFKmMH5/iiQ8FKfUibt2jPFIeckXUlP9uXzw5ZNhw4dOv4vOBPXRM797/PnCz/9f5RT9zzr0HEO4nTN+lTiUAs7+JwcO5OQ1KFDhw4d/984lTNIeFvn7o8buudZhw4dOnTo0KFDh44PCV0869BxDkK8xqfadOjQoUOHDh3/N+jiWYcOHTp06NChQ4eODwldPOvQoUOHDh06dOjQ8SGhi2cdOs5BhMPy9r2/nzQo8wJ9CMAXDJw8E0Yo7IPX4INH3qIS8vNYP0K81MCQfgQRVCt09HJPpqb0q/kpQYbjGQQYSZjxIexHIOBn/CGEAgzJfxK/XMmzCPK4HAiHImuARNLWoUOHjvMB5D1ynyJPmd8X7lNcK/xJMlXHfCRK4dhg2I1gkCcYPuiP8C2Ey8mhQqNySlg6pEIHIisNBQzwewdOci15XOIl2avVgOSLXM99iSoY5jXceFaSUEEFQdqE979FVkiSvxCvZU7UfvDkBcqOMCORdwcEaS9kRSSJPfIG3KCUSc5IlOqCiEGQHMghSV9e3CXBJIZISlKeswv6ahs6dJzDCIW0Jecoc4N+lO3eg+O19bCbLZg2dSK6uluxdNMW3HDFLchICGJ72WbU1AYw88JMHG7sQ/HwInj8tdizL4TZVxTAChdCJjeOHq/Hpo37EOMi+QV8KCoqQnp6Gnq7erGjrBL9/gCKJk5AXm4WrAYzZIVpebshjAZFxWaD3m/XoUPH+QARkPJJ6RiykAPbUX+8HRu27YPF74bDHo380lLEx0chLtYKn88OGznbaPEi5LEjbPHDJLwZNMIj6/VbjBSmXjitFvgoaK0hK9zBbixbtxXTSi9AcryD54MwWs3w+Hxw2uxUspS6xogYluU5hYpNRjOFbxh+vxc2q432gaKactBqtSphLfaCQbmZTr711YywJwgD4w3zeMDvg8Uk82vEzkSW7jSbrcreeL0+xmkVhal4P0xRHzYyUYOJJkBUsyx5GpmDY5DvrCAD/rnvD/i4oVswHTrORWhdYnmloMFHIuxFS2sdXn7hr4hyRKGxsRE1NYewef0qPPTth/HCc3/F8caj+NPTz+D+hx7G5u3v4JWXXsfeyt3Yu2cv/vryXAx4JFJ5w14vhfMabN1SjpG5BRhTOBZR0VaSegDPP/8MKisrSchhrF2zRb3qOxSiXBa2JsQxQimv9nXo0KHj3IcIS/mkkCSFiv/12PGjmDNnHrJzRqDHM4B///kvKUQN8Lk9FM0h+IJuBHwheChag8KfYR+6u1sw5635aGlrgNVig8fth1fEL0Wv2+tGecUutHbWw+/rU17i7t4uGCiQlSNYHNIhD8IUxF6m4fX4lEAWD7YxHKLYFeHMYMYgvAFfhLeVa9jEa4w0IxTcsvY/JWOQgtzH9IzMb5CiOegLK4+zxWJR6/IHKNwlrkDArbzlfp7zMU6EGE9IzgfgZRw8zC1SJ7KdbdDFsw4d5yDeJyPp0Ucei/n9HhzcswerVi7DtTdcg0mTJsNqMGH65ElYt2oJduzeg56gGbboWPj8HXA5onm9HzarhSRpJrHaEQwHSX59iIpyID4+HsmpGUjNzERiUgJMRhM6Otvw9NNPIycnB1+94+aIF4OWQzZttQ991Q8dOnScTwiJUjXI2vnCfzLcwgunPRojRxdgxqyZqK6pRsWOMvz4/gfw2ZtvxHMv/QVr12/BmKJC3HjT59DaXIt581/G975zP37xHw9h7+4qzL7iasy89BKs37QOA/392LJ5C4L+Hjz51GP43vd/iOkzZ+DBh36i2D9AAW4IDaCifBuumn01Lpp5KXZVVCg+/+8XXkBp8WQ8+sc/oc/TSxFegSuuvAI/evBBXDzrMhyprsMf/vAoXnvtFdQeqsb93/su3P09WLFyOUpKJuG2r96Jvr4+bN68GbfeeitmzboId911F1rbatHX24e777kPGZnpWDRvERV1D15//U2MKSjET3/6U9qpMNweD+vk7JOiunjWoeMchGjniGiVR3VmmE1RSE7KwtduvxmrVy/HrV+8Fdu2bIfD5MKE4hQYzT3YsGUP0keMhclhh8UchaDPy4gG4KdYFueFDLcwmU0wGRzq0duh6r1YsPAtLFiwEPUNLQgEQxTMX8P0GVNw991fwx8efQwDA+6/eyuhNpZOhw4dOs4XmM2DHQZ+GE1BHDtWj7/8+XH89g9/xJ13fx05mRlqeMX3fvBtXHHtLCx6bxk2btmIu++9B9/93r2YPLkIl118BX74wD148YWXMH3KBXjgBw9g3ZqV6GxtRbTVjr6OBuV5TkhJxcuvvoz2zh4K8w4YTAamGcC+3RWIdkXjrru/CbfXgxONJ7By+VK88vJrqKBo3lVZhtffeANf+crt+OItt8Ld56XoNqO3u4/C3E97YUUo4ENbWxMee+yPePjHP8GMaRdh2bJl6OjoUFz//PPPw+l0Yt++7fjL44+jdOIUbN2+HWkpaajevQXz5s3Ho7QN3V192LBhM2zM99k4elgXzzp0nIMwGGRsmwEmoxUGWBAK2mA1x+Ezn7uW5PUq4uJjsWbNOoQDJhJdH0blJ2L5yq0YPqoYJqsVVlMMzGpsmhdmS0Q6RyS5AYawAzIBZnTBCHzpS1+gEL8ZI4bnkQRdKCwqxuOP/xfuufcbWL1mCRoa6iU7EdHMzaiPddahQ8d5BHFiCHfKeOOI4gohEPIihQL3Uzd+Cvfcdy9uuP46mMnXZpMZrlg7/O5+tLZ2IH5YAoYlJlBoH2U8HjUkwmwKoa+nFwf2H8Lq5Svh6euBd2AA8AYRZTFQ5HrUU8HYuBjY7E7093uZIvNgDCEvdwTiYmLJ0U9ix45yeBm2tqYGTz35jBp2IfTc3NbCvKUgOjqa3B8ZwyzjpCXvJsX/YTVso7m5CUuXrUBF5V7leXa5XHA4HIiNjVVxBYNuVO2rQlJqKtIy0jF16hR1rLGhEYsXL0ZnZ6caGiLjo89G6JZMh45zEAaDSXmdNchKGAcOHcAzL76B/h4TJo2diZi4JPRZvegPp+O6T92BeKsZ15aMQVSoHm5ERzzEtkQK3lEIevaj/shhHK2tRWunB05HIjw9nag9dBT1tSfQ0tSOjs5+/PmJZ7B4+SrkZOWgIHsk4h0uGBmNyWIm20RGOwsB69ChQ8f5ABGfatQGHPykjA3mwGTMhisqgMzMNBSOHI4EpwM+gw1ekwOuwDBkJJYiOzMRG9Ysx9F9h3HJZTcjJrYI9qgBtDc4kD96FOKSYnHtFZegqGQS4pOyKI+96PPFwmBJp072wuwxw+DugNPSBatBhs8lodtrxPWfvQ533nUr2puPI84ehaKpY3D3976I1NQMZCUWYGJhHg4drMTOikoMeHpJ2AEkpyTj+PEm7G+rRVNvHxzOJIzOHYtrr7oUkybno2BMIdrbBpTn2e4MwOfvh82aj+tvuBo1VRXYW74Lr837K8KuIozOz8cVl1+M8eNHM814OOzWs9KpYvoZcXJfhw4d5wi0x2DiMZB9ITWbzQar1YSO9h4MHzECs2bNQFp6EvJG5SM/vxDF40owoaQY6ZkpKJlQjFEjipCbm4v09HTlhRD09fUyDjPSUtNgtzuU16C3txdms1l5K8TrIJ4Wu92Oyy+/nMYhU417Vl7nk3kR6OOedejQcT5A+FD4VzhPJtbJvnhms7Ky1NyQyOoXEc4UDs3IyEBMTIw6Jx7dxMREXHXVlYiLH4bUlHTFtbNmzUJcXDycThvGjRuH5ORkJCUlqf20tDTF2xJPQkIC8vLyFPfLEqNxsXHo6e2haE3FrJmzkEFuz8xKQ2+PB4VjijBqVB5GF+TDarEybAKWLlmGm276LAp4zGazYNiwBJSWlmIE7UdJSYmaWCj2YezYsUwrCbl5I5CaloDkpHTalNFqFSbxRnd3d6OwsFBdN3p0gZo0KOUrLi5W9SJ1crZBX6pOh45zFNK0NcIWgha9KkvXGY0WeYoorhB4vL2KWL2+IAnTocJ6ff2wOwwIB+yK5COPHSNGwGw2kYR9Kt6AP0RhbFfXyHefL3JcE8uyL5vsy6Ye/enQoUPHeQRNMAuEQzVeFGjnNI4VCE+KKBXOFP4VoSnr9gvXyjG5Rs5breRt74AaXyzXa9dZKHzFqSHh5Jwgch7qvJYX4WsxBGGDF3ZrNM9JniRNfjB/zU1t+OKtt+PFF19EdnYa/AEv+f/9CeCSN5Uf2hT5NBmsTNOLQLgPdlsszYsRHrcbNnYKpLwBpm1k2kajWZKHx+P5m02QuLQ6OVugi2cdOs5RaISqQSNeOSb7BmNkJQ5Z1kjGnoXCIrRFEJsV0RoNZhVOyFsIV66TZZOMsl6nxBcSIzBkMuDJTcJK+nKdZiy0tM82ktShQ4eOfxSKawdxnnzXPgfzZUQkRwSzfGrXiMg1m20MI2syR8SvyST8GlleTiBhNb6V4XqyJrPGt9pxpvi39LQ0ZWk5i1X4meGC4gE2Mw2fWobOPeDB1i07MHXqVMTGupiIvAQlkqBcK3FE0og4SPw+o5ofYzS5GZeVcclcm4AS4hrvhxhe1nrWxLdcr+2fbdDFsw4d5yAGN2uNhOWYHBYSJu0p4uJZ5UG22ewkUjdJzMqAJx+j8bJTEXBk8qDEd5J0T46tljCSlhgB8T4LtLQFmgiXfEicOnTo0HG+QeNm4UbZF94UaDyrHdcEqoBMSxFNXrWZFY9aLEb4/F7lwBDIdcK5AwMDisvFK63FNZiDBXJcNuFi4fdwOKAmCqrl4sJGpmsmywcQDEgYeUrJOMTRYpCw7/O3xudiE+SY32di/uQppAehsOVvzhfZgifDiudZ7IakK8NPNMj3SFxnD3TxrEPHOQxp3hp5qn3+ka7Z8kms/COHKiIUj7MiUP7J/6KRZXKLXKuReCQuiUmOi/iNeKrlvIQTQpZ9wdB0Ncixwed06NCh41yHxnlDuU/7Ppg7BZrwFahPUqiwqFCpvJFP3hgb4dX3r5Hv7/PvyevUvoSLfB+czvv7ElfEISLxRRwiEaeJcpDIYfVfxPMsIle79v24JT6GpcCGwc/gMnTv5GWCk3kRnLzk7/Kj1cPZA+B/ANLrq2pkR+VsAAAAAElFTkSuQmCC;" parent="1" vertex="1">
          <mxGeometry y="20" width="720" height="523.73" as="geometry" />
        </mxCell>
        <mxCell id="MBvQPwcf4Z8G5umYzWfS-3" value="&lt;font style=&quot;font-size: 11px;&quot;&gt;protein sequence model branch&lt;/font&gt;" style="rounded=0;whiteSpace=wrap;html=1;" parent="1" vertex="1">
          <mxGeometry x="569" y="245" width="150" height="226" as="geometry" />
        </mxCell>
        <mxCell id="MBvQPwcf4Z8G5umYzWfS-4" value="&lt;font style=&quot;font-size: 11px;&quot;&gt;drug SMILES model branch&lt;/font&gt;" style="rounded=0;whiteSpace=wrap;html=1;" parent="1" vertex="1">
          <mxGeometry x="140" y="245" width="260" height="125" as="geometry" />
        </mxCell>
      </root>
    </mxGraphModel>
  </diagram>
</mxfile>
